<?xml version="1.0" encoding="UTF-8" standalone="no"?>
<svg
   width="2e3"
   height="1e3"
   version="1.1"
   viewBox="0 0 529.17 264.58"
   id="svg56"
   sodipodi:docname="planarian-background.svg"
   inkscape:version="1.1.1 (1:1.1+202109281949+c3084ef5ed)"
   xmlns:inkscape="http://www.inkscape.org/namespaces/inkscape"
   xmlns:sodipodi="http://sodipodi.sourceforge.net/DTD/sodipodi-0.dtd"
   xmlns="http://www.w3.org/2000/svg"
   xmlns:svg="http://www.w3.org/2000/svg"
   xmlns:rdf="http://www.w3.org/1999/02/22-rdf-syntax-ns#"
   xmlns:cc="http://creativecommons.org/ns#"
   xmlns:dc="http://purl.org/dc/elements/1.1/">
  <defs
     id="defs60">
    <inkscape:path-effect
       effect="mirror_symmetry"
       start_point="19.46,99.62"
       end_point="89.56,36.931352"
       center_point="89.564088,36.931352"
       id="path-effect23298"
       is_visible="true"
       lpeversion="1.1"
       mode="free"
       discard_orig_path="true"
       fuse_paths="false"
       oposite_fuse="false"
       split_items="false"
       split_open="false" />
    <inkscape:path-effect
       effect="mirror_symmetry"
       start_point="19.46,99.62"
       end_point="89.56,36.931352"
       center_point="89.564088,36.931352"
       id="path-effect22995"
       is_visible="true"
       lpeversion="1.1"
       mode="free"
       discard_orig_path="true"
       fuse_paths="false"
       oposite_fuse="false"
       split_items="false"
       split_open="false" />
    <inkscape:path-effect
       effect="mirror_symmetry"
       start_point="19.46,99.62"
       end_point="89.56,36.931352"
       center_point="89.564088,36.931352"
       id="path-effect20782"
       is_visible="true"
       lpeversion="1.1"
       mode="free"
       discard_orig_path="true"
       fuse_paths="false"
       oposite_fuse="false"
       split_items="false"
       split_open="false" />
    <inkscape:path-effect
       effect="mirror_symmetry"
       start_point="19.46,99.62"
       end_point="89.56,36.931352"
       center_point="89.564088,36.931352"
       id="path-effect20671"
       is_visible="true"
       lpeversion="1.1"
       mode="free"
       discard_orig_path="true"
       fuse_paths="false"
       oposite_fuse="false"
       split_items="false"
       split_open="false" />
    <inkscape:path-effect
       effect="mirror_symmetry"
       start_point="19.46,99.62"
       end_point="89.56,36.931352"
       center_point="89.564088,36.931352"
       id="path-effect20560"
       is_visible="true"
       lpeversion="1.1"
       mode="free"
       discard_orig_path="true"
       fuse_paths="false"
       oposite_fuse="false"
       split_items="false"
       split_open="false" />
    <inkscape:path-effect
       effect="mirror_symmetry"
       start_point="19.46,99.62"
       end_point="89.56,36.931352"
       center_point="89.564088,36.931352"
       id="path-effect20449"
       is_visible="true"
       lpeversion="1.1"
       mode="free"
       discard_orig_path="true"
       fuse_paths="false"
       oposite_fuse="false"
       split_items="false"
       split_open="false" />
    <inkscape:path-effect
       effect="mirror_symmetry"
       start_point="19.46,99.62"
       end_point="89.56,36.931352"
       center_point="89.564088,36.931352"
       id="path-effect20338"
       is_visible="true"
       lpeversion="1.1"
       mode="free"
       discard_orig_path="true"
       fuse_paths="false"
       oposite_fuse="false"
       split_items="false"
       split_open="false" />
    <inkscape:path-effect
       effect="mirror_symmetry"
       start_point="19.46,99.62"
       end_point="89.56,36.931352"
       center_point="89.564088,36.931352"
       id="path-effect20227"
       is_visible="true"
       lpeversion="1.1"
       mode="free"
       discard_orig_path="true"
       fuse_paths="false"
       oposite_fuse="false"
       split_items="false"
       split_open="false" />
    <inkscape:path-effect
       effect="mirror_symmetry"
       start_point="19.46,99.62"
       end_point="89.56,36.931352"
       center_point="89.564088,36.931352"
       id="path-effect20103"
       is_visible="true"
       lpeversion="1.1"
       mode="free"
       discard_orig_path="true"
       fuse_paths="false"
       oposite_fuse="false"
       split_items="false"
       split_open="false" />
    <inkscape:path-effect
       effect="mirror_symmetry"
       start_point="19.46,99.62"
       end_point="89.56,36.931352"
       center_point="89.564088,36.931352"
       id="path-effect20059"
       is_visible="true"
       lpeversion="1.1"
       mode="free"
       discard_orig_path="true"
       fuse_paths="false"
       oposite_fuse="false"
       split_items="false"
       split_open="false" />
    <inkscape:path-effect
       effect="mirror_symmetry"
       start_point="19.46,99.62"
       end_point="89.56,36.931352"
       center_point="89.564088,36.931352"
       id="path-effect20012"
       is_visible="true"
       lpeversion="1.1"
       mode="free"
       discard_orig_path="false"
       fuse_paths="false"
       oposite_fuse="false"
       split_items="false"
       split_open="false" />
    <inkscape:path-effect
       effect="vonkoch"
       id="path-effect20010"
       is_visible="true"
       lpeversion="1"
       ref_path="M 37.531086,36.931352 H 89.564088"
       generator="M 37.531086,64.246611 H 54.87542 m 17.344334,0 h 17.344334"
       similar_only="false"
       nbgenerations="1"
       drawall="true"
       maxComplexity="1000" />
    <inkscape:path-effect
       effect="interpolate_points"
       id="path-effect20008"
       is_visible="true"
       lpeversion="1"
       interpolator_type="CentripetalCatmullRom" />
    <inkscape:path-effect
       effect="clone_original"
       id="path-effect20006"
       is_visible="true"
       lpeversion="1"
       linkeditem=""
       method="d"
       attributes=""
       css_properties=""
       allow_transforms="true" />
    <inkscape:path-effect
       effect="mirror_symmetry"
       start_point="89.564088,9.6160934"
       end_point="89.564088,64.246611"
       center_point="89.564088,36.931352"
       id="path-effect20004"
       is_visible="true"
       lpeversion="1.1"
       mode="free"
       discard_orig_path="false"
       fuse_paths="false"
       oposite_fuse="false"
       split_items="false"
       split_open="false" />
  </defs>
  <sodipodi:namedview
     id="namedview58"
     pagecolor="#ffffff"
     bordercolor="#666666"
     borderopacity="1.0"
     inkscape:pageshadow="2"
     inkscape:pageopacity="0.0"
     inkscape:pagecheckerboard="0"
     showgrid="false"
     inkscape:zoom="0.61543756"
     inkscape:cx="885.54882"
     inkscape:cy="506.95639"
     inkscape:window-width="1303"
     inkscape:window-height="744"
     inkscape:window-x="65"
     inkscape:window-y="24"
     inkscape:window-maximized="1"
     inkscape:current-layer="svg56" />
  <metadata
     id="metadata2">
    <rdf:RDF>
      <cc:Work
         rdf:about="">
        <dc:format>image/svg+xml</dc:format>
        <dc:type
           rdf:resource="http://purl.org/dc/dcmitype/StillImage" />
      </cc:Work>
    </rdf:RDF>
  </metadata>
  <path
     id="path4-5-7-6-6-9-3-2-26-6"
     style="fill:#ff8c2d;fill-opacity:0.243137;fill-rule:evenodd;stroke-width:0.999999"
     d="m 238.41267,132.98061 c -0.0156,7e-5 -0.0314,8.2e-4 -0.047,10e-4 -10.557,0.82056 -15.78208,4.48089 -15.78208,4.48089 0,0 -1.61984,0.26674 0.20618,3.53572 0.41213,0.73779 0.83332,6.16934 -4.90282,10.92043 -5.73613,4.75109 -17.62961,8.82172 -21.21133,10.84386 -5.68654,3.21046 -8.37736,9.54833 -8.42006,14.56744 0.28624,8.08308 2.45872,12.66726 5.71821,9.00186 5.02475,-10.71126 8.50717,-9.96252 18.03093,-14.06149 23.74418,-5.96597 21.17215,-22.36665 24.51715,-21.87365 3.7076,0.52416 3.37398,-1.07694 3.37398,-1.07694 0,0 1.54119,-6.19126 -1.48261,-16.33916 z m -7.46005,5.16405 c 0.21504,0.0108 0.39222,0.0789 0.52142,0.20051 0.54318,0.51159 0.13112,1.83151 -0.92037,2.94816 -1.05162,1.1168 -2.34456,1.60732 -2.8877,1.09555 -0.54318,-0.51159 -0.13112,-1.83152 0.92037,-2.94816 0.77014,-0.81781 1.70407,-1.32935 2.36628,-1.29606 z m 4.5181,2.50168 c 0.1087,0.006 0.20855,0.0329 0.29765,0.0806 0.65794,0.35225 0.60379,1.73406 -0.12092,3.08614 -0.7248,1.35214 -1.84565,2.16224 -2.50322,1.8092 -0.65758,-0.35264 -0.60321,-1.73433 0.12144,-3.08614 0.61223,-1.142 1.52724,-1.92621 2.20505,-1.88981 z"
     sodipodi:nodetypes="sccsssccccccsccscccsccccs" />
  <path
     id="path3160-3-0-0-1-2-7-2-64-1"
     style="fill:#ff8c2d;fill-opacity:0.243137;fill-rule:evenodd;stroke-width:0.264585px"
     inkscape:transform-center-x="0.54301653"
     inkscape:transform-center-y="-0.62643602"
     transform="rotate(42.597099)"
     d="m 265.38054,-51.919945 a 0.52943784,1.1183225 0 0 1 -0.52944,1.118323 0.52943784,1.1183225 0 0 1 -0.52943,-1.118323 0.52943784,1.1183225 0 0 1 0.52943,-1.118322 0.52943784,1.1183225 0 0 1 0.52944,1.118322 z" />
  <path
     id="path3160-6-5-9-6-8-0-5-8-95-0"
     style="display:inline;fill:#ff8c2d;fill-opacity:0.243137;fill-rule:evenodd;stroke-width:0.264585px"
     inkscape:transform-center-x="0.70786244"
     inkscape:transform-center-y="-0.43153024"
     transform="rotate(24.884408)"
     d="m 272.60884,31.394836 a 0.52943784,1.1183225 0 0 1 -0.52943,1.118323 0.52943784,1.1183225 0 0 1 -0.52944,-1.118323 0.52943784,1.1183225 0 0 1 0.52944,-1.118322 0.52943784,1.1183225 0 0 1 0.52943,1.118322 z" />
  <g
     id="g4420-7-2-3-2-7-2-9-89"
     style="display:inline;fill:#ff8c2d;fill-opacity:0.243137"
     transform="translate(-28.998553,184.45451)">
    <path
       id="path4-5-7-6-6-9-3-2-26"
       style="fill:#ff8c2d;fill-opacity:0.243137;fill-rule:evenodd;stroke-width:3.7795"
       d="m 331.41797,36.353516 c -0.059,2.94e-4 -0.11885,0.0031 -0.17774,0.0039 -39.90022,3.101309 -59.64843,16.935547 -59.64843,16.935547 0,0 -6.12219,1.008154 0.77929,13.363281 1.55761,2.788454 3.14953,23.317029 -18.53023,41.273806 -21.67975,17.95677 -66.63119,33.34173 -80.1683,40.9844 -21.49232,12.13395 -31.66228,36.08794 -31.82368,55.05771 1.08186,30.55002 9.29274,47.87595 21.61201,34.02255 18.99107,-40.48324 32.15287,-37.6534 68.14798,-53.14544 89.74121,-22.54843 80.02022,-84.53484 92.66266,-82.67155 14.01289,1.98107 12.75196,-4.070304 12.75196,-4.070304 0,0 5.82495,-23.39988 -5.60352,-61.753906 z m -28.19531,19.517578 c 0.81277,0.04061 1.48242,0.298113 1.9707,0.757812 2.05297,1.93355 0.4956,6.922202 -3.47852,11.142578 -3.97459,4.22096 -8.86126,6.074886 -10.91406,4.140625 -2.05297,-1.93355 -0.4956,-6.922202 3.47852,-11.142578 2.91074,-3.09091 6.44056,-5.024257 8.94336,-4.898437 z m 17.07617,9.455078 c 0.41085,0.02202 0.78822,0.124221 1.125,0.304687 2.48667,1.331321 2.28203,6.553891 -0.45703,11.664063 -2.73939,5.110435 -6.97566,8.172196 -9.46094,6.83789 -2.48531,-1.332807 -2.27982,-6.554906 0.45898,-11.664062 2.31392,-4.316204 5.77223,-7.280117 8.33399,-7.142578 z"
       transform="matrix(0.264585,0,0,0.264585,0,-0.0025)"
       sodipodi:nodetypes="sccsssccccccsccscccsccccs" />
    <path
       id="path3160-3-0-0-1-2-7-2-64"
       style="fill-rule:evenodd;stroke-width:0.264585px"
       inkscape:transform-center-x="0.54301653"
       inkscape:transform-center-y="-0.62643602"
       transform="rotate(42.597099)"
       d="m 70.929684,-40.716286 a 0.52943784,1.1183225 0 0 1 -0.529438,1.118323 0.52943784,1.1183225 0 0 1 -0.529438,-1.118323 0.52943784,1.1183225 0 0 1 0.529438,-1.118322 0.52943784,1.1183225 0 0 1 0.529438,1.118322 z" />
    <path
       id="path3160-6-5-9-6-8-0-5-8-95"
       style="display:inline;fill-rule:evenodd;stroke-width:0.264585px"
       inkscape:transform-center-x="0.70786244"
       inkscape:transform-center-y="-0.43153024"
       transform="rotate(24.884408)"
       d="m 83.967449,-17.093147 a 0.52943784,1.1183225 0 0 1 -0.529438,1.118322 0.52943784,1.1183225 0 0 1 -0.529438,-1.118322 0.52943784,1.1183225 0 0 1 0.529438,-1.118323 0.52943784,1.1183225 0 0 1 0.529438,1.118323 z" />
  </g>
  <g
     id="g4420-7-2-3-2-7-2-9-89-0"
     style="display:inline;fill:#ff8c2d;fill-opacity:0.243137"
     transform="translate(-70.952636,0.80487109)">
    <path
       id="path4-5-7-6-6-9-3-2-26-4"
       style="fill:#ff8c2d;fill-opacity:0.243137;fill-rule:evenodd;stroke-width:3.7795"
       d="m 331.41797,36.353516 c -0.059,2.94e-4 -0.11885,0.0031 -0.17774,0.0039 -39.90022,3.101309 -59.64843,16.935547 -59.64843,16.935547 0,0 -6.12219,1.008154 0.77929,13.363281 1.55761,2.788454 3.14953,23.317029 -18.53023,41.273806 -21.67975,17.95677 -66.63119,33.34173 -80.1683,40.9844 -21.49232,12.13395 -31.66228,36.08794 -31.82368,55.05771 1.08186,30.55002 9.29274,47.87595 21.61201,34.02255 18.99107,-40.48324 32.15287,-37.6534 68.14798,-53.14544 89.74121,-22.54843 80.02022,-84.53484 92.66266,-82.67155 14.01289,1.98107 12.75196,-4.070304 12.75196,-4.070304 0,0 5.82495,-23.39988 -5.60352,-61.753906 z m -28.19531,19.517578 c 0.81277,0.04061 1.48242,0.298113 1.9707,0.757812 2.05297,1.93355 0.4956,6.922202 -3.47852,11.142578 -3.97459,4.22096 -8.86126,6.074886 -10.91406,4.140625 -2.05297,-1.93355 -0.4956,-6.922202 3.47852,-11.142578 2.91074,-3.09091 6.44056,-5.024257 8.94336,-4.898437 z m 17.07617,9.455078 c 0.41085,0.02202 0.78822,0.124221 1.125,0.304687 2.48667,1.331321 2.28203,6.553891 -0.45703,11.664063 -2.73939,5.110435 -6.97566,8.172196 -9.46094,6.83789 -2.48531,-1.332807 -2.27982,-6.554906 0.45898,-11.664062 2.31392,-4.316204 5.77223,-7.280117 8.33399,-7.142578 z"
       transform="matrix(0.264585,0,0,0.264585,0,-0.0025)"
       sodipodi:nodetypes="sccsssccccccsccscccsccccs" />
    <path
       id="path3160-3-0-0-1-2-7-2-64-8"
       style="fill-rule:evenodd;stroke-width:0.264585px"
       inkscape:transform-center-x="0.54301653"
       inkscape:transform-center-y="-0.62643602"
       transform="rotate(42.597099)"
       d="m 70.929684,-40.716286 a 0.52943784,1.1183225 0 0 1 -0.529438,1.118323 0.52943784,1.1183225 0 0 1 -0.529438,-1.118323 0.52943784,1.1183225 0 0 1 0.529438,-1.118322 0.52943784,1.1183225 0 0 1 0.529438,1.118322 z" />
    <path
       id="path3160-6-5-9-6-8-0-5-8-95-7"
       style="display:inline;fill-rule:evenodd;stroke-width:0.264585px"
       inkscape:transform-center-x="0.70786244"
       inkscape:transform-center-y="-0.43153024"
       transform="rotate(24.884408)"
       d="m 83.967449,-17.093147 a 0.52943784,1.1183225 0 0 1 -0.529438,1.118322 0.52943784,1.1183225 0 0 1 -0.529438,-1.118322 0.52943784,1.1183225 0 0 1 0.529438,-1.118323 0.52943784,1.1183225 0 0 1 0.529438,1.118323 z" />
  </g>
  <g
     id="g4420-7-2-3-2-7-2-9-89-7"
     style="display:inline;fill:#ff8c2d;fill-opacity:0.243137"
     transform="translate(380.94445,184.4545)">
    <path
       id="path4-5-7-6-6-9-3-2-26-71"
       style="fill:#ff8c2d;fill-opacity:0.243137;fill-rule:evenodd;stroke-width:3.7795"
       d="m 331.41797,36.353516 c -0.059,2.94e-4 -0.11885,0.0031 -0.17774,0.0039 -39.90022,3.101309 -59.64843,16.935547 -59.64843,16.935547 0,0 -6.12219,1.008154 0.77929,13.363281 1.55761,2.788454 3.14953,23.317029 -18.53023,41.273806 -21.67975,17.95677 -66.63119,33.34173 -80.1683,40.9844 -21.49232,12.13395 -31.66228,36.08794 -31.82368,55.05771 1.08186,30.55002 9.29274,47.87595 21.61201,34.02255 18.99107,-40.48324 32.15287,-37.6534 68.14798,-53.14544 89.74121,-22.54843 80.02022,-84.53484 92.66266,-82.67155 14.01289,1.98107 12.75196,-4.070304 12.75196,-4.070304 0,0 5.82495,-23.39988 -5.60352,-61.753906 z m -28.19531,19.517578 c 0.81277,0.04061 1.48242,0.298113 1.9707,0.757812 2.05297,1.93355 0.4956,6.922202 -3.47852,11.142578 -3.97459,4.22096 -8.86126,6.074886 -10.91406,4.140625 -2.05297,-1.93355 -0.4956,-6.922202 3.47852,-11.142578 2.91074,-3.09091 6.44056,-5.024257 8.94336,-4.898437 z m 17.07617,9.455078 c 0.41085,0.02202 0.78822,0.124221 1.125,0.304687 2.48667,1.331321 2.28203,6.553891 -0.45703,11.664063 -2.73939,5.110435 -6.97566,8.172196 -9.46094,6.83789 -2.48531,-1.332807 -2.27982,-6.554906 0.45898,-11.664062 2.31392,-4.316204 5.77223,-7.280117 8.33399,-7.142578 z"
       transform="matrix(0.264585,0,0,0.264585,0,-0.0025)"
       sodipodi:nodetypes="sccsssccccccsccscccsccccs" />
    <path
       id="path3160-3-0-0-1-2-7-2-64-15"
       style="fill-rule:evenodd;stroke-width:0.264585px"
       inkscape:transform-center-x="0.54301653"
       inkscape:transform-center-y="-0.62643602"
       transform="rotate(42.597099)"
       d="m 70.929684,-40.716286 a 0.52943784,1.1183225 0 0 1 -0.529438,1.118323 0.52943784,1.1183225 0 0 1 -0.529438,-1.118323 0.52943784,1.1183225 0 0 1 0.529438,-1.118322 0.52943784,1.1183225 0 0 1 0.529438,1.118322 z" />
    <path
       id="path3160-6-5-9-6-8-0-5-8-95-97"
       style="display:inline;fill-rule:evenodd;stroke-width:0.264585px"
       inkscape:transform-center-x="0.70786244"
       inkscape:transform-center-y="-0.43153024"
       transform="rotate(24.884408)"
       d="m 83.967449,-17.093147 a 0.52943784,1.1183225 0 0 1 -0.529438,1.118322 0.52943784,1.1183225 0 0 1 -0.529438,-1.118322 0.52943784,1.1183225 0 0 1 0.529438,-1.118323 0.52943784,1.1183225 0 0 1 0.529438,1.118323 z" />
  </g>
  <g
     id="g4420-7-2-3-2-7-2-9-89-6"
     style="display:inline;fill:#ff8c2d;fill-opacity:0.243137"
     transform="translate(201.68941,-0.40272691)">
    <path
       id="path4-5-7-6-6-9-3-2-26-1"
       style="fill:#ff8c2d;fill-opacity:0.243137;fill-rule:evenodd;stroke-width:3.7795"
       d="m 331.41797,36.353516 c -0.059,2.94e-4 -0.11885,0.0031 -0.17774,0.0039 -39.90022,3.101309 -59.64843,16.935547 -59.64843,16.935547 0,0 -6.12219,1.008154 0.77929,13.363281 1.55761,2.788454 3.14953,23.317029 -18.53023,41.273806 -21.67975,17.95677 -66.63119,33.34173 -80.1683,40.9844 -21.49232,12.13395 -31.66228,36.08794 -31.82368,55.05771 1.08186,30.55002 9.29274,47.87595 21.61201,34.02255 18.99107,-40.48324 32.15287,-37.6534 68.14798,-53.14544 89.74121,-22.54843 80.02022,-84.53484 92.66266,-82.67155 14.01289,1.98107 12.75196,-4.070304 12.75196,-4.070304 0,0 5.82495,-23.39988 -5.60352,-61.753906 z m -28.19531,19.517578 c 0.81277,0.04061 1.48242,0.298113 1.9707,0.757812 2.05297,1.93355 0.4956,6.922202 -3.47852,11.142578 -3.97459,4.22096 -8.86126,6.074886 -10.91406,4.140625 -2.05297,-1.93355 -0.4956,-6.922202 3.47852,-11.142578 2.91074,-3.09091 6.44056,-5.024257 8.94336,-4.898437 z m 17.07617,9.455078 c 0.41085,0.02202 0.78822,0.124221 1.125,0.304687 2.48667,1.331321 2.28203,6.553891 -0.45703,11.664063 -2.73939,5.110435 -6.97566,8.172196 -9.46094,6.83789 -2.48531,-1.332807 -2.27982,-6.554906 0.45898,-11.664062 2.31392,-4.316204 5.77223,-7.280117 8.33399,-7.142578 z"
       transform="matrix(0.264585,0,0,0.264585,0,-0.0025)"
       sodipodi:nodetypes="sccsssccccccsccscccsccccs" />
    <path
       id="path3160-3-0-0-1-2-7-2-64-5"
       style="fill-rule:evenodd;stroke-width:0.264585px"
       inkscape:transform-center-x="0.54301653"
       inkscape:transform-center-y="-0.62643602"
       transform="rotate(42.597099)"
       d="m 70.929684,-40.716286 a 0.52943784,1.1183225 0 0 1 -0.529438,1.118323 0.52943784,1.1183225 0 0 1 -0.529438,-1.118323 0.52943784,1.1183225 0 0 1 0.529438,-1.118322 0.52943784,1.1183225 0 0 1 0.529438,1.118322 z" />
    <path
       id="path3160-6-5-9-6-8-0-5-8-95-9"
       style="display:inline;fill-rule:evenodd;stroke-width:0.264585px"
       inkscape:transform-center-x="0.70786244"
       inkscape:transform-center-y="-0.43153024"
       transform="rotate(24.884408)"
       d="m 83.967449,-17.093147 a 0.52943784,1.1183225 0 0 1 -0.529438,1.118322 0.52943784,1.1183225 0 0 1 -0.529438,-1.118322 0.52943784,1.1183225 0 0 1 0.529438,-1.118323 0.52943784,1.1183225 0 0 1 0.529438,1.118323 z" />
  </g>
  <g
     id="g4420-7-2-3-2-7-2-9-6"
     style="display:inline"
     transform="translate(355.78941,123.36277)">
    <path
       id="path4-5-7-6-6-9-3-2-1"
       style="fill:#21a7ee;fill-opacity:0.239216;fill-rule:evenodd;stroke-width:3.7795"
       d="m 331.41797,36.353516 c -0.059,2.94e-4 -0.11885,0.0031 -0.17774,0.0039 -39.90022,3.101309 -59.64843,16.935547 -59.64843,16.935547 0,0 -6.12219,1.008154 0.77929,13.363281 1.55761,2.788454 3.14953,23.317029 -18.53023,41.273806 -21.67975,17.95677 -66.63119,33.34173 -80.1683,40.9844 -21.49232,12.13395 -31.66228,36.08794 -31.82368,55.05771 1.08186,30.55002 9.29274,47.87595 21.61201,34.02255 18.99107,-40.48324 32.15287,-37.6534 68.14798,-53.14544 89.74121,-22.54843 80.02022,-84.53484 92.66266,-82.67155 14.01289,1.98107 12.75196,-4.070304 12.75196,-4.070304 0,0 5.82495,-23.39988 -5.60352,-61.753906 z m -28.19531,19.517578 c 0.81277,0.04061 1.48242,0.298113 1.9707,0.757812 2.05297,1.93355 0.4956,6.922202 -3.47852,11.142578 -3.97459,4.22096 -8.86126,6.074886 -10.91406,4.140625 -2.05297,-1.93355 -0.4956,-6.922202 3.47852,-11.142578 2.91074,-3.09091 6.44056,-5.024257 8.94336,-4.898437 z m 17.07617,9.455078 c 0.41085,0.02202 0.78822,0.124221 1.125,0.304687 2.48667,1.331321 2.28203,6.553891 -0.45703,11.664063 -2.73939,5.110435 -6.97566,8.172196 -9.46094,6.83789 -2.48531,-1.332807 -2.27982,-6.554906 0.45898,-11.664062 2.31392,-4.316204 5.77223,-7.280117 8.33399,-7.142578 z"
       transform="matrix(0.264585,0,0,0.264585,0,-0.0025)"
       sodipodi:nodetypes="sccsssccccccsccscccsccccs" />
    <path
       id="path3160-3-0-0-1-2-7-2-5"
       style="fill:#1da7ee;fill-opacity:0.239216;fill-rule:evenodd;stroke-width:0.264585px"
       inkscape:transform-center-x="0.54301653"
       inkscape:transform-center-y="-0.62643602"
       transform="rotate(42.597099)"
       d="m 70.929684,-40.716286 a 0.52943784,1.1183225 0 0 1 -0.529438,1.118323 0.52943784,1.1183225 0 0 1 -0.529438,-1.118323 0.52943784,1.1183225 0 0 1 0.529438,-1.118322 0.52943784,1.1183225 0 0 1 0.529438,1.118322 z" />
    <path
       id="path3160-6-5-9-6-8-0-5-8-5"
       style="display:inline;fill:#1da7ee;fill-opacity:0.239216;fill-rule:evenodd;stroke-width:0.264585px"
       inkscape:transform-center-x="0.70786244"
       inkscape:transform-center-y="-0.43153024"
       transform="rotate(24.884408)"
       d="m 83.967449,-17.093147 a 0.52943784,1.1183225 0 0 1 -0.529438,1.118322 0.52943784,1.1183225 0 0 1 -0.529438,-1.118322 0.52943784,1.1183225 0 0 1 0.529438,-1.118323 0.52943784,1.1183225 0 0 1 0.529438,1.118323 z" />
  </g>
  <g
     id="g4420-7-2-3-2-7-2-9-47"
     style="display:inline"
     transform="translate(457.70941,123.36287)">
    <path
       id="path4-5-7-6-6-9-3-2-65"
       style="fill:#21a7ee;fill-opacity:0.239216;fill-rule:evenodd;stroke-width:3.7795"
       d="m 331.41797,36.353516 c -0.059,2.94e-4 -0.11885,0.0031 -0.17774,0.0039 -39.90022,3.101309 -59.64843,16.935547 -59.64843,16.935547 0,0 -6.12219,1.008154 0.77929,13.363281 1.55761,2.788454 3.14953,23.317029 -18.53023,41.273806 -21.67975,17.95677 -66.63119,33.34173 -80.1683,40.9844 -21.49232,12.13395 -31.66228,36.08794 -31.82368,55.05771 1.08186,30.55002 9.29274,47.87595 21.61201,34.02255 18.99107,-40.48324 32.15287,-37.6534 68.14798,-53.14544 89.74121,-22.54843 80.02022,-84.53484 92.66266,-82.67155 14.01289,1.98107 12.75196,-4.070304 12.75196,-4.070304 0,0 5.82495,-23.39988 -5.60352,-61.753906 z m -28.19531,19.517578 c 0.81277,0.04061 1.48242,0.298113 1.9707,0.757812 2.05297,1.93355 0.4956,6.922202 -3.47852,11.142578 -3.97459,4.22096 -8.86126,6.074886 -10.91406,4.140625 -2.05297,-1.93355 -0.4956,-6.922202 3.47852,-11.142578 2.91074,-3.09091 6.44056,-5.024257 8.94336,-4.898437 z m 17.07617,9.455078 c 0.41085,0.02202 0.78822,0.124221 1.125,0.304687 2.48667,1.331321 2.28203,6.553891 -0.45703,11.664063 -2.73939,5.110435 -6.97566,8.172196 -9.46094,6.83789 -2.48531,-1.332807 -2.27982,-6.554906 0.45898,-11.664062 2.31392,-4.316204 5.77223,-7.280117 8.33399,-7.142578 z"
       transform="matrix(0.264585,0,0,0.264585,0,-0.0025)"
       sodipodi:nodetypes="sccsssccccccsccscccsccccs" />
    <path
       id="path3160-3-0-0-1-2-7-2-6"
       style="fill:#1da7ee;fill-opacity:0.239216;fill-rule:evenodd;stroke-width:0.264585px"
       inkscape:transform-center-x="0.54301653"
       inkscape:transform-center-y="-0.62643602"
       transform="rotate(42.597099)"
       d="m 70.929684,-40.716286 a 0.52943784,1.1183225 0 0 1 -0.529438,1.118323 0.52943784,1.1183225 0 0 1 -0.529438,-1.118323 0.52943784,1.1183225 0 0 1 0.529438,-1.118322 0.52943784,1.1183225 0 0 1 0.529438,1.118322 z" />
    <path
       id="path3160-6-5-9-6-8-0-5-8-9"
       style="display:inline;fill:#1da7ee;fill-opacity:0.239216;fill-rule:evenodd;stroke-width:0.264585px"
       inkscape:transform-center-x="0.70786244"
       inkscape:transform-center-y="-0.43153024"
       transform="rotate(24.884408)"
       d="m 83.967449,-17.093147 a 0.52943784,1.1183225 0 0 1 -0.529438,1.118322 0.52943784,1.1183225 0 0 1 -0.529438,-1.118322 0.52943784,1.1183225 0 0 1 0.529438,-1.118323 0.52943784,1.1183225 0 0 1 0.529438,1.118323 z" />
  </g>
  <g
     id="g4420-7-2-3-2-7-2-9-7"
     style="display:inline"
     transform="translate(406.56445,-0.40099544)">
    <path
       id="path4-5-7-6-6-9-3-2-44"
       style="fill:#21a7ee;fill-opacity:0.239216;fill-rule:evenodd;stroke-width:3.7795"
       d="m 331.41797,36.353516 c -0.059,2.94e-4 -0.11885,0.0031 -0.17774,0.0039 -39.90022,3.101309 -59.64843,16.935547 -59.64843,16.935547 0,0 -6.12219,1.008154 0.77929,13.363281 1.55761,2.788454 3.14953,23.317029 -18.53023,41.273806 -21.67975,17.95677 -66.63119,33.34173 -80.1683,40.9844 -21.49232,12.13395 -31.66228,36.08794 -31.82368,55.05771 1.08186,30.55002 9.29274,47.87595 21.61201,34.02255 18.99107,-40.48324 32.15287,-37.6534 68.14798,-53.14544 89.74121,-22.54843 80.02022,-84.53484 92.66266,-82.67155 14.01289,1.98107 12.75196,-4.070304 12.75196,-4.070304 0,0 5.82495,-23.39988 -5.60352,-61.753906 z m -28.19531,19.517578 c 0.81277,0.04061 1.48242,0.298113 1.9707,0.757812 2.05297,1.93355 0.4956,6.922202 -3.47852,11.142578 -3.97459,4.22096 -8.86126,6.074886 -10.91406,4.140625 -2.05297,-1.93355 -0.4956,-6.922202 3.47852,-11.142578 2.91074,-3.09091 6.44056,-5.024257 8.94336,-4.898437 z m 17.07617,9.455078 c 0.41085,0.02202 0.78822,0.124221 1.125,0.304687 2.48667,1.331321 2.28203,6.553891 -0.45703,11.664063 -2.73939,5.110435 -6.97566,8.172196 -9.46094,6.83789 -2.48531,-1.332807 -2.27982,-6.554906 0.45898,-11.664062 2.31392,-4.316204 5.77223,-7.280117 8.33399,-7.142578 z"
       transform="matrix(0.264585,0,0,0.264585,0,-0.0025)"
       sodipodi:nodetypes="sccsssccccccsccscccsccccs" />
    <path
       id="path3160-3-0-0-1-2-7-2-30"
       style="fill:#1da7ee;fill-opacity:0.239216;fill-rule:evenodd;stroke-width:0.264585px"
       inkscape:transform-center-x="0.54301653"
       inkscape:transform-center-y="-0.62643602"
       transform="rotate(42.597099)"
       d="m 70.929684,-40.716286 a 0.52943784,1.1183225 0 0 1 -0.529438,1.118323 0.52943784,1.1183225 0 0 1 -0.529438,-1.118323 0.52943784,1.1183225 0 0 1 0.529438,-1.118322 0.52943784,1.1183225 0 0 1 0.529438,1.118322 z" />
    <path
       id="path3160-6-5-9-6-8-0-5-8-7"
       style="display:inline;fill:#1da7ee;fill-opacity:0.239216;fill-rule:evenodd;stroke-width:0.264585px"
       inkscape:transform-center-x="0.70786244"
       inkscape:transform-center-y="-0.43153024"
       transform="rotate(24.884408)"
       d="m 83.967449,-17.093147 a 0.52943784,1.1183225 0 0 1 -0.529438,1.118322 0.52943784,1.1183225 0 0 1 -0.529438,-1.118322 0.52943784,1.1183225 0 0 1 0.529438,-1.118323 0.52943784,1.1183225 0 0 1 0.529438,1.118323 z" />
  </g>
  <g
     id="g4420-7-2-3-2-7-2-9-19"
     style="display:inline"
     transform="translate(175.97445,184.45451)"
     inkscape:transform-center-x="14.540934"
     inkscape:transform-center-y="4.0282613">
    <path
       id="path4-5-7-6-6-9-3-2-4"
       style="fill:#21a7ee;fill-opacity:0.239216;fill-rule:evenodd;stroke-width:3.7795"
       d="m 331.41797,36.353516 c -0.059,2.94e-4 -0.11885,0.0031 -0.17774,0.0039 -39.90022,3.101309 -59.64843,16.935547 -59.64843,16.935547 0,0 -6.12219,1.008154 0.77929,13.363281 1.55761,2.788454 3.14953,23.317029 -18.53023,41.273806 -21.67975,17.95677 -66.63119,33.34173 -80.1683,40.9844 -21.49232,12.13395 -31.66228,36.08794 -31.82368,55.05771 1.08186,30.55002 9.29274,47.87595 21.61201,34.02255 18.99107,-40.48324 32.15287,-37.6534 68.14798,-53.14544 89.74121,-22.54843 80.02022,-84.53484 92.66266,-82.67155 14.01289,1.98107 12.75196,-4.070304 12.75196,-4.070304 0,0 5.82495,-23.39988 -5.60352,-61.753906 z m -28.19531,19.517578 c 0.81277,0.04061 1.48242,0.298113 1.9707,0.757812 2.05297,1.93355 0.4956,6.922202 -3.47852,11.142578 -3.97459,4.22096 -8.86126,6.074886 -10.91406,4.140625 -2.05297,-1.93355 -0.4956,-6.922202 3.47852,-11.142578 2.91074,-3.09091 6.44056,-5.024257 8.94336,-4.898437 z m 17.07617,9.455078 c 0.41085,0.02202 0.78822,0.124221 1.125,0.304687 2.48667,1.331321 2.28203,6.553891 -0.45703,11.664063 -2.73939,5.110435 -6.97566,8.172196 -9.46094,6.83789 -2.48531,-1.332807 -2.27982,-6.554906 0.45898,-11.664062 2.31392,-4.316204 5.77223,-7.280117 8.33399,-7.142578 z"
       transform="matrix(0.264585,0,0,0.264585,0,-0.0025)"
       sodipodi:nodetypes="sccsssccccccsccscccsccccs" />
    <path
       id="path3160-3-0-0-1-2-7-2-7"
       style="fill:#1da7ee;fill-opacity:0.239216;fill-rule:evenodd;stroke-width:0.264585px"
       inkscape:transform-center-x="0.54301653"
       inkscape:transform-center-y="-0.62643602"
       transform="rotate(42.597099)"
       d="m 70.929684,-40.716286 a 0.52943784,1.1183225 0 0 1 -0.529438,1.118323 0.52943784,1.1183225 0 0 1 -0.529438,-1.118323 0.52943784,1.1183225 0 0 1 0.529438,-1.118322 0.52943784,1.1183225 0 0 1 0.529438,1.118322 z" />
    <path
       id="path3160-6-5-9-6-8-0-5-8-8"
       style="display:inline;fill:#1da7ee;fill-opacity:0.239216;fill-rule:evenodd;stroke-width:0.264585px"
       inkscape:transform-center-x="0.70786244"
       inkscape:transform-center-y="-0.43153024"
       transform="rotate(24.884408)"
       d="m 83.967449,-17.093147 a 0.52943784,1.1183225 0 0 1 -0.529438,1.118322 0.52943784,1.1183225 0 0 1 -0.529438,-1.118322 0.52943784,1.1183225 0 0 1 0.529438,-1.118323 0.52943784,1.1183225 0 0 1 0.529438,1.118323 z" />
  </g>
  <g
     id="g4420-7-2-3-2-7-2-9-19-9-0-8-1"
     style="display:inline"
     transform="rotate(-5.2002258,-169.84763,-822.69918)"
     inkscape:transform-center-x="14.17586"
     inkscape:transform-center-y="5.4552485">
    <path
       id="path4-5-7-6-6-9-3-2-4-4-9-5-5"
       style="fill:#21a7ee;fill-opacity:0.239216;fill-rule:evenodd;stroke-width:3.7795"
       d="m 440.31577,158.12574 c -0.007,0.0586 -0.0163,0.11776 -0.0236,0.1762 -7.52213,39.30729 -23.46802,57.39338 -23.46802,57.39338 0,0 -1.68317,5.97198 -13.19357,-2.26151 -2.5978,-1.85824 -22.82173,-5.72468 -43.07949,13.8222 -20.25776,19.54688 -40.54935,62.5071 -49.65096,75.10966 -14.45024,20.00857 -39.38717,27.44978 -58.25708,25.49922 -30.23989,-4.47473 -46.5445,-14.56264 -31.40626,-25.26379 42.34512,-14.36816 40.9975,-27.76312 60.39884,-61.81072 32.39476,-86.67466 92.91443,-70.11622 92.46956,-82.88748 -0.40942,-14.14631 5.46406,-12.21982 5.46406,-12.21982 0,0 23.90274,-3.18484 60.7468,12.44067 z m -22.53392,25.84828 c 0.0501,-0.81224 -0.1313,-1.50639 -0.53381,-2.04279 -1.69308,-2.25538 -6.82406,-1.26282 -11.46046,2.21697 -4.63703,3.4802 -7.02323,8.13022 -5.32942,10.38551 1.69309,2.25538 6.82406,1.26282 11.46046,-2.21697 3.39562,-2.54871 5.70976,-5.84146 5.86323,-8.34272 z m -7.49612,-18.02227 c 0.0238,-0.41075 -0.0357,-0.79715 -0.17761,-1.15192 -1.04634,-2.61937 -6.25924,-2.99717 -11.64248,-0.84378 -5.38353,2.15369 -8.89769,6.02294 -7.84823,8.64126 1.04797,2.61819 6.2605,2.99509 11.6427,0.84184 4.54688,-1.81924 7.87723,-4.92625 8.02562,-7.4874 z"
       transform="matrix(0.264585,0,0,0.264585,0,-0.0025)"
       sodipodi:nodetypes="sccsssccccccsccscccsccccs" />
    <path
       id="path3160-3-0-0-1-2-7-2-7-8-6-6-9"
       transform="rotate(42.597099)"
       inkscape:transform-center-x="0.54301653"
       inkscape:transform-center-y="-0.62643602"
       d="m 111.95862,-36.695211 c -0.11991,0.605881 0.0154,1.143064 0.30225,1.199832 0.28683,0.05677 0.61657,-0.388374 0.73648,-0.994254 0.11991,-0.605881 -0.0154,-1.143064 -0.30225,-1.199833 -0.28683,-0.05677 -0.61657,0.388375 -0.73648,0.994255 z"
       style="fill:#1da7ee;fill-opacity:0.239216;fill-rule:evenodd;stroke:none;stroke-width:0.264585px;stroke-linecap:butt;stroke-linejoin:miter;stroke-opacity:1" />
    <path
       id="path3160-6-5-9-6-8-0-5-8-8-1-3-1-8"
       transform="rotate(24.884408)"
       inkscape:transform-center-x="0.70786244"
       inkscape:transform-center-y="-0.43153024"
       d="m 114.97734,-3.7316764 c -0.44891,0.4242087 -0.65002,0.9403808 -0.44919,1.1529027 0.20083,0.2125218 0.72755,0.040916 1.17645,-0.3832931 0.44891,-0.4242088 0.65002,-0.9403809 0.44919,-1.1529027 -0.20083,-0.2125219 -0.72755,-0.040916 -1.17645,0.3832931 z"
       style="display:inline;fill:#1da7ee;fill-opacity:0.239216;fill-rule:evenodd;stroke:none;stroke-width:0.264585px;stroke-linecap:butt;stroke-linejoin:miter;stroke-opacity:1" />
  </g>
  <g
     id="g4420-7-2-3-2-7-2-9-19-9-0-8-1-6"
     style="display:inline"
     transform="rotate(-5.2002258,533.21105,-2159.5328)"
     inkscape:transform-center-x="14.17586"
     inkscape:transform-center-y="5.4552485">
    <path
       id="path4-5-7-6-6-9-3-2-4-4-9-5-5-04"
       style="fill:#21a7ee;fill-opacity:0.239216;fill-rule:evenodd;stroke-width:3.7795"
       d="m 440.31577,158.12574 c -0.007,0.0586 -0.0163,0.11776 -0.0236,0.1762 -7.52213,39.30729 -23.46802,57.39338 -23.46802,57.39338 0,0 -1.68317,5.97198 -13.19357,-2.26151 -2.5978,-1.85824 -22.82173,-5.72468 -43.07949,13.8222 -20.25776,19.54688 -40.54935,62.5071 -49.65096,75.10966 -14.45024,20.00857 -39.38717,27.44978 -58.25708,25.49922 -30.23989,-4.47473 -46.5445,-14.56264 -31.40626,-25.26379 42.34512,-14.36816 40.9975,-27.76312 60.39884,-61.81072 32.39476,-86.67466 92.91443,-70.11622 92.46956,-82.88748 -0.40942,-14.14631 5.46406,-12.21982 5.46406,-12.21982 0,0 23.90274,-3.18484 60.7468,12.44067 z m -22.53392,25.84828 c 0.0501,-0.81224 -0.1313,-1.50639 -0.53381,-2.04279 -1.69308,-2.25538 -6.82406,-1.26282 -11.46046,2.21697 -4.63703,3.4802 -7.02323,8.13022 -5.32942,10.38551 1.69309,2.25538 6.82406,1.26282 11.46046,-2.21697 3.39562,-2.54871 5.70976,-5.84146 5.86323,-8.34272 z m -7.49612,-18.02227 c 0.0238,-0.41075 -0.0357,-0.79715 -0.17761,-1.15192 -1.04634,-2.61937 -6.25924,-2.99717 -11.64248,-0.84378 -5.38353,2.15369 -8.89769,6.02294 -7.84823,8.64126 1.04797,2.61819 6.2605,2.99509 11.6427,0.84184 4.54688,-1.81924 7.87723,-4.92625 8.02562,-7.4874 z"
       transform="matrix(0.264585,0,0,0.264585,0,-0.0025)"
       sodipodi:nodetypes="sccsssccccccsccscccsccccs" />
    <path
       id="path3160-3-0-0-1-2-7-2-7-8-6-6-9-8"
       transform="rotate(42.597099)"
       inkscape:transform-center-x="0.54301653"
       inkscape:transform-center-y="-0.62643602"
       d="m 111.95862,-36.695211 c -0.11991,0.605881 0.0154,1.143064 0.30225,1.199832 0.28683,0.05677 0.61657,-0.388374 0.73648,-0.994254 0.11991,-0.605881 -0.0154,-1.143064 -0.30225,-1.199833 -0.28683,-0.05677 -0.61657,0.388375 -0.73648,0.994255 z"
       style="fill:#1da7ee;fill-opacity:0.239216;fill-rule:evenodd;stroke:none;stroke-width:0.264585px;stroke-linecap:butt;stroke-linejoin:miter;stroke-opacity:1" />
    <path
       id="path3160-6-5-9-6-8-0-5-8-8-1-3-1-8-8"
       transform="rotate(24.884408)"
       inkscape:transform-center-x="0.70786244"
       inkscape:transform-center-y="-0.43153024"
       d="m 114.97734,-3.7316764 c -0.44891,0.4242087 -0.65002,0.9403808 -0.44919,1.1529027 0.20083,0.2125218 0.72755,0.040916 1.17645,-0.3832931 0.44891,-0.4242088 0.65002,-0.9403809 0.44919,-1.1529027 -0.20083,-0.2125219 -0.72755,-0.040916 -1.17645,0.3832931 z"
       style="display:inline;fill:#1da7ee;fill-opacity:0.239216;fill-rule:evenodd;stroke:none;stroke-width:0.264585px;stroke-linecap:butt;stroke-linejoin:miter;stroke-opacity:1" />
  </g>
  <g
     id="g4420-7-2-3-2-7-2-9-19-9-0-8-1-8"
     style="display:inline"
     transform="rotate(-5.2002258,1176.0493,-179.65317)"
     inkscape:transform-center-x="14.17586"
     inkscape:transform-center-y="5.4552485">
    <path
       id="path4-5-7-6-6-9-3-2-4-4-9-5-5-83"
       style="fill:#21a7ee;fill-opacity:0.239216;fill-rule:evenodd;stroke-width:3.7795"
       d="m 440.31577,158.12574 c -0.007,0.0586 -0.0163,0.11776 -0.0236,0.1762 -7.52213,39.30729 -23.46802,57.39338 -23.46802,57.39338 0,0 -1.68317,5.97198 -13.19357,-2.26151 -2.5978,-1.85824 -22.82173,-5.72468 -43.07949,13.8222 -20.25776,19.54688 -40.54935,62.5071 -49.65096,75.10966 -14.45024,20.00857 -39.38717,27.44978 -58.25708,25.49922 -30.23989,-4.47473 -46.5445,-14.56264 -31.40626,-25.26379 42.34512,-14.36816 40.9975,-27.76312 60.39884,-61.81072 32.39476,-86.67466 92.91443,-70.11622 92.46956,-82.88748 -0.40942,-14.14631 5.46406,-12.21982 5.46406,-12.21982 0,0 23.90274,-3.18484 60.7468,12.44067 z m -22.53392,25.84828 c 0.0501,-0.81224 -0.1313,-1.50639 -0.53381,-2.04279 -1.69308,-2.25538 -6.82406,-1.26282 -11.46046,2.21697 -4.63703,3.4802 -7.02323,8.13022 -5.32942,10.38551 1.69309,2.25538 6.82406,1.26282 11.46046,-2.21697 3.39562,-2.54871 5.70976,-5.84146 5.86323,-8.34272 z m -7.49612,-18.02227 c 0.0238,-0.41075 -0.0357,-0.79715 -0.17761,-1.15192 -1.04634,-2.61937 -6.25924,-2.99717 -11.64248,-0.84378 -5.38353,2.15369 -8.89769,6.02294 -7.84823,8.64126 1.04797,2.61819 6.2605,2.99509 11.6427,0.84184 4.54688,-1.81924 7.87723,-4.92625 8.02562,-7.4874 z"
       transform="matrix(0.264585,0,0,0.264585,0,-0.0025)"
       sodipodi:nodetypes="sccsssccccccsccscccsccccs" />
    <path
       id="path3160-3-0-0-1-2-7-2-7-8-6-6-9-189"
       transform="rotate(42.597099)"
       inkscape:transform-center-x="0.54301653"
       inkscape:transform-center-y="-0.62643602"
       d="m 111.95862,-36.695211 c -0.11991,0.605881 0.0154,1.143064 0.30225,1.199832 0.28683,0.05677 0.61657,-0.388374 0.73648,-0.994254 0.11991,-0.605881 -0.0154,-1.143064 -0.30225,-1.199833 -0.28683,-0.05677 -0.61657,0.388375 -0.73648,0.994255 z"
       style="fill:#1da7ee;fill-opacity:0.239216;fill-rule:evenodd;stroke:none;stroke-width:0.264585px;stroke-linecap:butt;stroke-linejoin:miter;stroke-opacity:1" />
    <path
       id="path3160-6-5-9-6-8-0-5-8-8-1-3-1-8-64"
       transform="rotate(24.884408)"
       inkscape:transform-center-x="0.70786244"
       inkscape:transform-center-y="-0.43153024"
       d="m 114.97734,-3.7316764 c -0.44891,0.4242087 -0.65002,0.9403808 -0.44919,1.1529027 0.20083,0.2125218 0.72755,0.040916 1.17645,-0.3832931 0.44891,-0.4242088 0.65002,-0.9403809 0.44919,-1.1529027 -0.20083,-0.2125219 -0.72755,-0.040916 -1.17645,0.3832931 z"
       style="display:inline;fill:#1da7ee;fill-opacity:0.239216;fill-rule:evenodd;stroke:none;stroke-width:0.264585px;stroke-linecap:butt;stroke-linejoin:miter;stroke-opacity:1" />
  </g>
  <g
     id="g4420-7-2-3-2-7-2-9-19-9-0-8-1-4"
     style="display:inline"
     transform="rotate(-10.579453,98.693118,-1483.5153)"
     inkscape:transform-center-x="13.680839"
     inkscape:transform-center-y="6.8120731">
    <path
       id="path4-5-7-6-6-9-3-2-4-4-9-5-5-8"
       style="fill:#21a7ee;fill-opacity:0.239216;fill-rule:evenodd;stroke-width:3.7795"
       d="m 440.31577,158.12574 c -0.007,0.0586 -0.0163,0.11776 -0.0236,0.1762 -7.52213,39.30729 -23.46802,57.39338 -23.46802,57.39338 0,0 -1.68317,5.97198 -13.19357,-2.26151 -2.5978,-1.85824 -22.82173,-5.72468 -43.07949,13.8222 -20.25776,19.54688 -40.54935,62.5071 -49.65096,75.10966 -14.45024,20.00857 -39.38717,27.44978 -58.25708,25.49922 -30.23989,-4.47473 -46.5445,-14.56264 -31.40626,-25.26379 42.34512,-14.36816 40.9975,-27.76312 60.39884,-61.81072 32.39476,-86.67466 92.91443,-70.11622 92.46956,-82.88748 -0.40942,-14.14631 5.46406,-12.21982 5.46406,-12.21982 0,0 23.90274,-3.18484 60.7468,12.44067 z m -22.53392,25.84828 c 0.0501,-0.81224 -0.1313,-1.50639 -0.53381,-2.04279 -1.69308,-2.25538 -6.82406,-1.26282 -11.46046,2.21697 -4.63703,3.4802 -7.02323,8.13022 -5.32942,10.38551 1.69309,2.25538 6.82406,1.26282 11.46046,-2.21697 3.39562,-2.54871 5.70976,-5.84146 5.86323,-8.34272 z m -7.49612,-18.02227 c 0.0238,-0.41075 -0.0357,-0.79715 -0.17761,-1.15192 -1.04634,-2.61937 -6.25924,-2.99717 -11.64248,-0.84378 -5.38353,2.15369 -8.89769,6.02294 -7.84823,8.64126 1.04797,2.61819 6.2605,2.99509 11.6427,0.84184 4.54688,-1.81924 7.87723,-4.92625 8.02562,-7.4874 z"
       transform="matrix(0.264585,0,0,0.264585,0,-0.0025)"
       sodipodi:nodetypes="sccsssccccccsccscccsccccs" />
    <path
       id="path3160-3-0-0-1-2-7-2-7-8-6-6-9-1"
       transform="rotate(42.597099)"
       inkscape:transform-center-x="0.54301653"
       inkscape:transform-center-y="-0.62643602"
       d="m 111.95862,-36.695211 c -0.11991,0.605881 0.0154,1.143064 0.30225,1.199832 0.28683,0.05677 0.61657,-0.388374 0.73648,-0.994254 0.11991,-0.605881 -0.0154,-1.143064 -0.30225,-1.199833 -0.28683,-0.05677 -0.61657,0.388375 -0.73648,0.994255 z"
       style="fill:#1da7ee;fill-opacity:0.239216;fill-rule:evenodd;stroke:none;stroke-width:0.264585px;stroke-linecap:butt;stroke-linejoin:miter;stroke-opacity:1" />
    <path
       id="path3160-6-5-9-6-8-0-5-8-8-1-3-1-8-0"
       transform="rotate(24.884408)"
       inkscape:transform-center-x="0.70786244"
       inkscape:transform-center-y="-0.43153024"
       d="m 114.97734,-3.7316764 c -0.44891,0.4242087 -0.65002,0.9403808 -0.44919,1.1529027 0.20083,0.2125218 0.72755,0.040916 1.17645,-0.3832931 0.44891,-0.4242088 0.65002,-0.9403809 0.44919,-1.1529027 -0.20083,-0.2125219 -0.72755,-0.040916 -1.17645,0.3832931 z"
       style="display:inline;fill:#1da7ee;fill-opacity:0.239216;fill-rule:evenodd;stroke:none;stroke-width:0.264585px;stroke-linecap:butt;stroke-linejoin:miter;stroke-opacity:1" />
  </g>
  <g
     id="g4420-7-2-3-2-7-2-9-10"
     style="display:inline"
     transform="translate(253.20445,123.3645)">
    <path
       id="path4-5-7-6-6-9-3-2-6"
       style="fill:#21a7ee;fill-opacity:0.239216;fill-rule:evenodd;stroke-width:3.7795"
       d="m 331.41797,36.353516 c -0.059,2.94e-4 -0.11885,0.0031 -0.17774,0.0039 -39.90022,3.101309 -59.64843,16.935547 -59.64843,16.935547 0,0 -6.12219,1.008154 0.77929,13.363281 1.55761,2.788454 3.14953,23.317029 -18.53023,41.273806 -21.67975,17.95677 -66.63119,33.34173 -80.1683,40.9844 -21.49232,12.13395 -31.66228,36.08794 -31.82368,55.05771 1.08186,30.55002 9.29274,47.87595 21.61201,34.02255 18.99107,-40.48324 32.15287,-37.6534 68.14798,-53.14544 89.74121,-22.54843 80.02022,-84.53484 92.66266,-82.67155 14.01289,1.98107 12.75196,-4.070304 12.75196,-4.070304 0,0 5.82495,-23.39988 -5.60352,-61.753906 z m -28.19531,19.517578 c 0.81277,0.04061 1.48242,0.298113 1.9707,0.757812 2.05297,1.93355 0.4956,6.922202 -3.47852,11.142578 -3.97459,4.22096 -8.86126,6.074886 -10.91406,4.140625 -2.05297,-1.93355 -0.4956,-6.922202 3.47852,-11.142578 2.91074,-3.09091 6.44056,-5.024257 8.94336,-4.898437 z m 17.07617,9.455078 c 0.41085,0.02202 0.78822,0.124221 1.125,0.304687 2.48667,1.331321 2.28203,6.553891 -0.45703,11.664063 -2.73939,5.110435 -6.97566,8.172196 -9.46094,6.83789 -2.48531,-1.332807 -2.27982,-6.554906 0.45898,-11.664062 2.31392,-4.316204 5.77223,-7.280117 8.33399,-7.142578 z"
       transform="matrix(0.264585,0,0,0.264585,0,-0.0025)"
       sodipodi:nodetypes="sccsssccccccsccscccsccccs" />
    <path
       id="path3160-3-0-0-1-2-7-2-32"
       style="fill:#1da7ee;fill-opacity:0.239216;fill-rule:evenodd;stroke-width:0.264585px"
       inkscape:transform-center-x="0.54301653"
       inkscape:transform-center-y="-0.62643602"
       transform="rotate(42.597099)"
       d="m 70.929684,-40.716286 a 0.52943784,1.1183225 0 0 1 -0.529438,1.118323 0.52943784,1.1183225 0 0 1 -0.529438,-1.118323 0.52943784,1.1183225 0 0 1 0.529438,-1.118322 0.52943784,1.1183225 0 0 1 0.529438,1.118322 z" />
    <path
       id="path3160-6-5-9-6-8-0-5-8-0"
       style="display:inline;fill:#1da7ee;fill-opacity:0.239216;fill-rule:evenodd;stroke-width:0.264585px"
       inkscape:transform-center-x="0.70786244"
       inkscape:transform-center-y="-0.43153024"
       transform="rotate(24.884408)"
       d="m 83.967449,-17.093147 a 0.52943784,1.1183225 0 0 1 -0.529438,1.118322 0.52943784,1.1183225 0 0 1 -0.529438,-1.118322 0.52943784,1.1183225 0 0 1 0.529438,-1.118323 0.52943784,1.1183225 0 0 1 0.529438,1.118323 z" />
  </g>
  <g
     id="g4420-7-2-3-2-7-2-9-1"
     style="display:inline"
     transform="translate(73.484447,184.45451)">
    <path
       id="path4-5-7-6-6-9-3-2-2"
       style="fill:#21a7ee;fill-opacity:0.239216;fill-rule:evenodd;stroke-width:3.7795"
       d="m 331.41797,36.353516 c -0.059,2.94e-4 -0.11885,0.0031 -0.17774,0.0039 -39.90022,3.101309 -59.64843,16.935547 -59.64843,16.935547 0,0 -6.12219,1.008154 0.77929,13.363281 1.55761,2.788454 3.14953,23.317029 -18.53023,41.273806 -21.67975,17.95677 -66.63119,33.34173 -80.1683,40.9844 -21.49232,12.13395 -31.66228,36.08794 -31.82368,55.05771 1.08186,30.55002 9.29274,47.87595 21.61201,34.02255 18.99107,-40.48324 32.15287,-37.6534 68.14798,-53.14544 89.74121,-22.54843 80.02022,-84.53484 92.66266,-82.67155 14.01289,1.98107 12.75196,-4.070304 12.75196,-4.070304 0,0 5.82495,-23.39988 -5.60352,-61.753906 z m -28.19531,19.517578 c 0.81277,0.04061 1.48242,0.298113 1.9707,0.757812 2.05297,1.93355 0.4956,6.922202 -3.47852,11.142578 -3.97459,4.22096 -8.86126,6.074886 -10.91406,4.140625 -2.05297,-1.93355 -0.4956,-6.922202 3.47852,-11.142578 2.91074,-3.09091 6.44056,-5.024257 8.94336,-4.898437 z m 17.07617,9.455078 c 0.41085,0.02202 0.78822,0.124221 1.125,0.304687 2.48667,1.331321 2.28203,6.553891 -0.45703,11.664063 -2.73939,5.110435 -6.97566,8.172196 -9.46094,6.83789 -2.48531,-1.332807 -2.27982,-6.554906 0.45898,-11.664062 2.31392,-4.316204 5.77223,-7.280117 8.33399,-7.142578 z"
       transform="matrix(0.264585,0,0,0.264585,0,-0.0025)"
       sodipodi:nodetypes="sccsssccccccsccscccsccccs" />
    <path
       id="path3160-3-0-0-1-2-7-2-9"
       style="fill:#1da7ee;fill-opacity:0.239216;fill-rule:evenodd;stroke-width:0.264585px"
       inkscape:transform-center-x="0.54301653"
       inkscape:transform-center-y="-0.62643602"
       transform="rotate(42.597099)"
       d="m 70.929684,-40.716286 a 0.52943784,1.1183225 0 0 1 -0.529438,1.118323 0.52943784,1.1183225 0 0 1 -0.529438,-1.118323 0.52943784,1.1183225 0 0 1 0.529438,-1.118322 0.52943784,1.1183225 0 0 1 0.529438,1.118322 z" />
    <path
       id="path3160-6-5-9-6-8-0-5-8-3"
       style="display:inline;fill:#1da7ee;fill-opacity:0.239216;fill-rule:evenodd;stroke-width:0.264585px"
       inkscape:transform-center-x="0.70786244"
       inkscape:transform-center-y="-0.43153024"
       transform="rotate(24.884408)"
       d="m 83.967449,-17.093147 a 0.52943784,1.1183225 0 0 1 -0.529438,1.118322 0.52943784,1.1183225 0 0 1 -0.529438,-1.118322 0.52943784,1.1183225 0 0 1 0.529438,-1.118323 0.52943784,1.1183225 0 0 1 0.529438,1.118323 z" />
  </g>
  <g
     inkscape:groupmode="layer"
     id="layer1"
     inkscape:label="Layer 1"
     style="display:inline">
    <g
       id="g4420-7-2-3-2"
       style="display:inline"
       transform="translate(3.9526303,5.1643412)">
      <path
         id="path4-5-7-6-6"
         style="fill:#21a7ee;fill-opacity:0.239216;fill-rule:evenodd;stroke-width:3.7795"
         d="m 331.41797,36.353516 c -0.059,2.94e-4 -0.11885,0.0031 -0.17774,0.0039 -39.90022,3.101309 -59.64843,16.935547 -59.64843,16.935547 0,0 -6.12219,1.008154 0.77929,13.363281 1.55761,2.788454 3.14953,23.317029 -18.53023,41.273806 -21.67975,17.95677 -66.63119,33.34173 -80.1683,40.9844 -21.49232,12.13395 -31.66228,36.08794 -31.82368,55.05771 1.08186,30.55002 9.29274,47.87595 21.61201,34.02255 18.99107,-40.48324 32.15287,-37.6534 68.14798,-53.14544 89.74121,-22.54843 80.02022,-84.53484 92.66266,-82.67155 14.01289,1.98107 12.75196,-4.070304 12.75196,-4.070304 0,0 5.82495,-23.39988 -5.60352,-61.753906 z m -28.19531,19.517578 c 0.81277,0.04061 1.48242,0.298113 1.9707,0.757812 2.05297,1.93355 0.4956,6.922202 -3.47852,11.142578 -3.97459,4.22096 -8.86126,6.074886 -10.91406,4.140625 -2.05297,-1.93355 -0.4956,-6.922202 3.47852,-11.142578 2.91074,-3.09091 6.44056,-5.024257 8.94336,-4.898437 z m 17.07617,9.455078 c 0.41085,0.02202 0.78822,0.124221 1.125,0.304687 2.48667,1.331321 2.28203,6.553891 -0.45703,11.664063 -2.73939,5.110435 -6.97566,8.172196 -9.46094,6.83789 -2.48531,-1.332807 -2.27982,-6.554906 0.45898,-11.664062 2.31392,-4.316204 5.77223,-7.280117 8.33399,-7.142578 z"
         transform="matrix(0.264585,0,0,0.264585,0,-0.0025)"
         sodipodi:nodetypes="sccsssccccccsccscccsccccs" />
      <path
         id="path3160-3-0-0-1"
         style="fill:#1da7ee;fill-opacity:0.239216;fill-rule:evenodd;stroke-width:0.264585px"
         inkscape:transform-center-x="0.54301653"
         inkscape:transform-center-y="-0.62643602"
         transform="rotate(42.597099)"
         d="m 70.929684,-40.716286 a 0.52943784,1.1183225 0 0 1 -0.529438,1.118323 0.52943784,1.1183225 0 0 1 -0.529438,-1.118323 0.52943784,1.1183225 0 0 1 0.529438,-1.118322 0.52943784,1.1183225 0 0 1 0.529438,1.118322 z" />
      <path
         id="path3160-6-5-9-6-8"
         style="display:inline;fill:#1da7ee;fill-opacity:0.239216;fill-rule:evenodd;stroke-width:0.264585px"
         inkscape:transform-center-x="0.70786244"
         inkscape:transform-center-y="-0.43153024"
         transform="rotate(24.884408)"
         d="m 83.967449,-17.093147 a 0.52943784,1.1183225 0 0 1 -0.529438,1.118322 0.52943784,1.1183225 0 0 1 -0.529438,-1.118322 0.52943784,1.1183225 0 0 1 0.529438,-1.118323 0.52943784,1.1183225 0 0 1 0.529438,1.118323 z" />
    </g>
    <g
       id="g4420-7-2-3-2-7"
       style="display:inline"
       transform="translate(128.87277,60.280988)">
      <path
         id="path4-5-7-6-6-9"
         style="fill:#21a7ee;fill-opacity:0.239216;fill-rule:evenodd;stroke-width:3.7795"
         d="m 331.41797,36.353516 c -0.059,2.94e-4 -0.11885,0.0031 -0.17774,0.0039 -39.90022,3.101309 -59.64843,16.935547 -59.64843,16.935547 0,0 -6.12219,1.008154 0.77929,13.363281 1.55761,2.788454 3.14953,23.317029 -18.53023,41.273806 -21.67975,17.95677 -66.63119,33.34173 -80.1683,40.9844 -21.49232,12.13395 -31.66228,36.08794 -31.82368,55.05771 1.08186,30.55002 9.29274,47.87595 21.61201,34.02255 18.99107,-40.48324 32.15287,-37.6534 68.14798,-53.14544 89.74121,-22.54843 80.02022,-84.53484 92.66266,-82.67155 14.01289,1.98107 12.75196,-4.070304 12.75196,-4.070304 0,0 5.82495,-23.39988 -5.60352,-61.753906 z m -28.19531,19.517578 c 0.81277,0.04061 1.48242,0.298113 1.9707,0.757812 2.05297,1.93355 0.4956,6.922202 -3.47852,11.142578 -3.97459,4.22096 -8.86126,6.074886 -10.91406,4.140625 -2.05297,-1.93355 -0.4956,-6.922202 3.47852,-11.142578 2.91074,-3.09091 6.44056,-5.024257 8.94336,-4.898437 z m 17.07617,9.455078 c 0.41085,0.02202 0.78822,0.124221 1.125,0.304687 2.48667,1.331321 2.28203,6.553891 -0.45703,11.664063 -2.73939,5.110435 -6.97566,8.172196 -9.46094,6.83789 -2.48531,-1.332807 -2.27982,-6.554906 0.45898,-11.664062 2.31392,-4.316204 5.77223,-7.280117 8.33399,-7.142578 z"
         transform="matrix(0.264585,0,0,0.264585,0,-0.0025)"
         sodipodi:nodetypes="sccsssccccccsccscccsccccs" />
      <path
         id="path3160-3-0-0-1-2"
         style="fill:#1da7ee;fill-opacity:0.239216;fill-rule:evenodd;stroke-width:0.264585px"
         inkscape:transform-center-x="0.54301653"
         inkscape:transform-center-y="-0.62643602"
         transform="rotate(42.597099)"
         d="m 70.929684,-40.716286 a 0.52943784,1.1183225 0 0 1 -0.529438,1.118323 0.52943784,1.1183225 0 0 1 -0.529438,-1.118323 0.52943784,1.1183225 0 0 1 0.529438,-1.118322 0.52943784,1.1183225 0 0 1 0.529438,1.118322 z" />
      <path
         id="path3160-6-5-9-6-8-0"
         style="display:inline;fill:#1da7ee;fill-opacity:0.239216;fill-rule:evenodd;stroke-width:0.264585px"
         inkscape:transform-center-x="0.70786244"
         inkscape:transform-center-y="-0.43153024"
         transform="rotate(24.884408)"
         d="m 83.967449,-17.093147 a 0.52943784,1.1183225 0 0 1 -0.529438,1.118322 0.52943784,1.1183225 0 0 1 -0.529438,-1.118322 0.52943784,1.1183225 0 0 1 0.529438,-1.118323 0.52943784,1.1183225 0 0 1 0.529438,1.118323 z" />
    </g>
    <g
       id="g4420-7-2-3-2-7-2-9-9"
       style="display:inline"
       transform="translate(-58.464586,116.42287)">
      <path
         id="path4-5-7-6-6-9-3-2-7"
         style="fill:#21a7ee;fill-opacity:0.239216;fill-rule:evenodd;stroke-width:3.7795"
         d="m 331.41797,36.353516 c -0.059,2.94e-4 -0.11885,0.0031 -0.17774,0.0039 -39.90022,3.101309 -59.64843,16.935547 -59.64843,16.935547 0,0 -6.12219,1.008154 0.77929,13.363281 1.55761,2.788454 3.14953,23.317029 -18.53023,41.273806 -21.67975,17.95677 -66.63119,33.34173 -80.1683,40.9844 -21.49232,12.13395 -31.66228,36.08794 -31.82368,55.05771 1.08186,30.55002 9.29274,47.87595 21.61201,34.02255 18.99107,-40.48324 32.15287,-37.6534 68.14798,-53.14544 89.74121,-22.54843 80.02022,-84.53484 92.66266,-82.67155 14.01289,1.98107 12.75196,-4.070304 12.75196,-4.070304 0,0 5.82495,-23.39988 -5.60352,-61.753906 z m -28.19531,19.517578 c 0.81277,0.04061 1.48242,0.298113 1.9707,0.757812 2.05297,1.93355 0.4956,6.922202 -3.47852,11.142578 -3.97459,4.22096 -8.86126,6.074886 -10.91406,4.140625 -2.05297,-1.93355 -0.4956,-6.922202 3.47852,-11.142578 2.91074,-3.09091 6.44056,-5.024257 8.94336,-4.898437 z m 17.07617,9.455078 c 0.41085,0.02202 0.78822,0.124221 1.125,0.304687 2.48667,1.331321 2.28203,6.553891 -0.45703,11.664063 -2.73939,5.110435 -6.97566,8.172196 -9.46094,6.83789 -2.48531,-1.332807 -2.27982,-6.554906 0.45898,-11.664062 2.31392,-4.316204 5.77223,-7.280117 8.33399,-7.142578 z"
         transform="matrix(0.264585,0,0,0.264585,0,-0.0025)"
         sodipodi:nodetypes="sccsssccccccsccscccsccccs" />
      <path
         id="path3160-3-0-0-1-2-7-2-3"
         style="fill:#1da7ee;fill-opacity:0.239216;fill-rule:evenodd;stroke-width:0.264585px"
         inkscape:transform-center-x="0.54301653"
         inkscape:transform-center-y="-0.62643602"
         transform="rotate(42.597099)"
         d="m 70.929684,-40.716286 a 0.52943784,1.1183225 0 0 1 -0.529438,1.118323 0.52943784,1.1183225 0 0 1 -0.529438,-1.118323 0.52943784,1.1183225 0 0 1 0.529438,-1.118322 0.52943784,1.1183225 0 0 1 0.529438,1.118322 z" />
      <path
         id="path3160-6-5-9-6-8-0-5-8-6"
         style="display:inline;fill:#1da7ee;fill-opacity:0.239216;fill-rule:evenodd;stroke-width:0.264585px"
         inkscape:transform-center-x="0.70786244"
         inkscape:transform-center-y="-0.43153024"
         transform="rotate(24.884408)"
         d="m 83.967449,-17.093147 a 0.52943784,1.1183225 0 0 1 -0.529438,1.118322 0.52943784,1.1183225 0 0 1 -0.529438,-1.118322 0.52943784,1.1183225 0 0 1 0.529438,-1.118323 0.52943784,1.1183225 0 0 1 0.529438,1.118323 z" />
    </g>
    <g
       id="g4420-7-2-3-2-7-2-9-19-9-0-8-1-5"
       style="display:inline;fill:#ff8c29;fill-opacity:0.243137"
       transform="rotate(-7.6297018,344.31102,74.285282)"
       inkscape:transform-center-x="13.967181"
       inkscape:transform-center-y="6.0851966">
      <path
         id="path4-5-7-6-6-9-3-2-4-4-9-5-5-74"
         style="fill:#ff8c29;fill-opacity:0.243137;fill-rule:evenodd;stroke-width:3.7795"
         d="m 440.31577,158.12574 c -0.007,0.0586 -0.0163,0.11776 -0.0236,0.1762 -7.52213,39.30729 -23.46802,57.39338 -23.46802,57.39338 0,0 -1.68317,5.97198 -13.19357,-2.26151 -2.5978,-1.85824 -22.82173,-5.72468 -43.07949,13.8222 -20.25776,19.54688 -40.54935,62.5071 -49.65096,75.10966 -14.45024,20.00857 -39.38717,27.44978 -58.25708,25.49922 -30.23989,-4.47473 -46.5445,-14.56264 -31.40626,-25.26379 42.34512,-14.36816 40.9975,-27.76312 60.39884,-61.81072 32.39476,-86.67466 92.91443,-70.11622 92.46956,-82.88748 -0.40942,-14.14631 5.46406,-12.21982 5.46406,-12.21982 0,0 23.90274,-3.18484 60.7468,12.44067 z m -22.53392,25.84828 c 0.0501,-0.81224 -0.1313,-1.50639 -0.53381,-2.04279 -1.69308,-2.25538 -6.82406,-1.26282 -11.46046,2.21697 -4.63703,3.4802 -7.02323,8.13022 -5.32942,10.38551 1.69309,2.25538 6.82406,1.26282 11.46046,-2.21697 3.39562,-2.54871 5.70976,-5.84146 5.86323,-8.34272 z m -7.49612,-18.02227 c 0.0238,-0.41075 -0.0357,-0.79715 -0.17761,-1.15192 -1.04634,-2.61937 -6.25924,-2.99717 -11.64248,-0.84378 -5.38353,2.15369 -8.89769,6.02294 -7.84823,8.64126 1.04797,2.61819 6.2605,2.99509 11.6427,0.84184 4.54688,-1.81924 7.87723,-4.92625 8.02562,-7.4874 z"
         transform="matrix(0.264585,0,0,0.264585,0,-0.0025)"
         sodipodi:nodetypes="sccsssccccccsccscccsccccs" />
      <path
         id="path3160-3-0-0-1-2-7-2-7-8-6-6-9-18"
         transform="rotate(42.597099)"
         inkscape:transform-center-x="0.54301653"
         inkscape:transform-center-y="-0.62643602"
         d="m 111.95862,-36.695211 c -0.11991,0.605881 0.0154,1.143064 0.30225,1.199832 0.28683,0.05677 0.61657,-0.388374 0.73648,-0.994254 0.11991,-0.605881 -0.0154,-1.143064 -0.30225,-1.199833 -0.28683,-0.05677 -0.61657,0.388375 -0.73648,0.994255 z"
         style="fill:#ff8c29;fill-opacity:0.243137;fill-rule:evenodd;stroke:none;stroke-width:0.264585px;stroke-linecap:butt;stroke-linejoin:miter;stroke-opacity:1" />
      <path
         id="path3160-6-5-9-6-8-0-5-8-8-1-3-1-8-5"
         transform="rotate(24.884408)"
         inkscape:transform-center-x="0.70786244"
         inkscape:transform-center-y="-0.43153024"
         d="m 114.97734,-3.7316764 c -0.44891,0.4242087 -0.65002,0.9403808 -0.44919,1.1529027 0.20083,0.2125218 0.72755,0.040916 1.17645,-0.3832931 0.44891,-0.4242088 0.65002,-0.9403809 0.44919,-1.1529027 -0.20083,-0.2125219 -0.72755,-0.040916 -1.17645,0.3832931 z"
         style="display:inline;fill:#ff8c29;fill-opacity:0.243137;fill-rule:evenodd;stroke:none;stroke-width:0.264585px;stroke-linecap:butt;stroke-linejoin:miter;stroke-opacity:1" />
    </g>
    <g
       id="g4420-7-2-3-2-7-2-9-19-9-0-8-1-5-9"
       style="display:inline;fill:#ff8c29;fill-opacity:0.243137"
       transform="rotate(-9.2340192,463.57846,-1835.9423)"
       inkscape:transform-center-x="13.81576"
       inkscape:transform-center-y="6.4819177">
      <path
         id="path4-5-7-6-6-9-3-2-4-4-9-5-5-74-7"
         style="fill:#ff8c29;fill-opacity:0.243137;fill-rule:evenodd;stroke-width:3.7795"
         d="m 440.31577,158.12574 c -0.007,0.0586 -0.0163,0.11776 -0.0236,0.1762 -7.52213,39.30729 -23.46802,57.39338 -23.46802,57.39338 0,0 -1.68317,5.97198 -13.19357,-2.26151 -2.5978,-1.85824 -22.82173,-5.72468 -43.07949,13.8222 -20.25776,19.54688 -40.54935,62.5071 -49.65096,75.10966 -14.45024,20.00857 -39.38717,27.44978 -58.25708,25.49922 -30.23989,-4.47473 -46.5445,-14.56264 -31.40626,-25.26379 42.34512,-14.36816 40.9975,-27.76312 60.39884,-61.81072 32.39476,-86.67466 92.91443,-70.11622 92.46956,-82.88748 -0.40942,-14.14631 5.46406,-12.21982 5.46406,-12.21982 0,0 23.90274,-3.18484 60.7468,12.44067 z m -22.53392,25.84828 c 0.0501,-0.81224 -0.1313,-1.50639 -0.53381,-2.04279 -1.69308,-2.25538 -6.82406,-1.26282 -11.46046,2.21697 -4.63703,3.4802 -7.02323,8.13022 -5.32942,10.38551 1.69309,2.25538 6.82406,1.26282 11.46046,-2.21697 3.39562,-2.54871 5.70976,-5.84146 5.86323,-8.34272 z m -7.49612,-18.02227 c 0.0238,-0.41075 -0.0357,-0.79715 -0.17761,-1.15192 -1.04634,-2.61937 -6.25924,-2.99717 -11.64248,-0.84378 -5.38353,2.15369 -8.89769,6.02294 -7.84823,8.64126 1.04797,2.61819 6.2605,2.99509 11.6427,0.84184 4.54688,-1.81924 7.87723,-4.92625 8.02562,-7.4874 z"
         transform="matrix(0.264585,0,0,0.264585,0,-0.0025)"
         sodipodi:nodetypes="sccsssccccccsccscccsccccs" />
      <path
         id="path3160-3-0-0-1-2-7-2-7-8-6-6-9-18-5"
         transform="rotate(42.597099)"
         inkscape:transform-center-x="0.54301653"
         inkscape:transform-center-y="-0.62643602"
         d="m 111.95862,-36.695211 c -0.11991,0.605881 0.0154,1.143064 0.30225,1.199832 0.28683,0.05677 0.61657,-0.388374 0.73648,-0.994254 0.11991,-0.605881 -0.0154,-1.143064 -0.30225,-1.199833 -0.28683,-0.05677 -0.61657,0.388375 -0.73648,0.994255 z"
         style="fill:#ff8c29;fill-opacity:0.243137;fill-rule:evenodd;stroke:none;stroke-width:0.264585px;stroke-linecap:butt;stroke-linejoin:miter;stroke-opacity:1" />
      <path
         id="path3160-6-5-9-6-8-0-5-8-8-1-3-1-8-5-3"
         transform="rotate(24.884408)"
         inkscape:transform-center-x="0.70786244"
         inkscape:transform-center-y="-0.43153024"
         d="m 114.97734,-3.7316764 c -0.44891,0.4242087 -0.65002,0.9403808 -0.44919,1.1529027 0.20083,0.2125218 0.72755,0.040916 1.17645,-0.3832931 0.44891,-0.4242088 0.65002,-0.9403809 0.44919,-1.1529027 -0.20083,-0.2125219 -0.72755,-0.040916 -1.17645,0.3832931 z"
         style="display:inline;fill:#ff8c29;fill-opacity:0.243137;fill-rule:evenodd;stroke:none;stroke-width:0.264585px;stroke-linecap:butt;stroke-linejoin:miter;stroke-opacity:1" />
    </g>
  </g>
  <g
     inkscape:groupmode="layer"
     id="layer2"
     inkscape:label="Layer 2" />
  <g
     id="g4420-7-2-3-2-7-2-9-19-9-0-8-1-3"
     style="display:inline"
     transform="rotate(-4.3551907,732.39005,-5316.5886)"
     inkscape:transform-center-x="14.242797"
     inkscape:transform-center-y="5.2292743">
    <path
       id="path4-5-7-6-6-9-3-2-4-4-9-5-5-0"
       style="fill:#21a7ee;fill-opacity:0.239216;fill-rule:evenodd;stroke-width:3.7795"
       d="m 440.31577,158.12574 c -0.007,0.0586 -0.0163,0.11776 -0.0236,0.1762 -7.52213,39.30729 -23.46802,57.39338 -23.46802,57.39338 0,0 -1.68317,5.97198 -13.19357,-2.26151 -2.5978,-1.85824 -22.82173,-5.72468 -43.07949,13.8222 -20.25776,19.54688 -40.54935,62.5071 -49.65096,75.10966 -14.45024,20.00857 -39.38717,27.44978 -58.25708,25.49922 -30.23989,-4.47473 -46.5445,-14.56264 -31.40626,-25.26379 42.34512,-14.36816 40.9975,-27.76312 60.39884,-61.81072 32.39476,-86.67466 92.91443,-70.11622 92.46956,-82.88748 -0.40942,-14.14631 5.46406,-12.21982 5.46406,-12.21982 0,0 23.90274,-3.18484 60.7468,12.44067 z m -22.53392,25.84828 c 0.0501,-0.81224 -0.1313,-1.50639 -0.53381,-2.04279 -1.69308,-2.25538 -6.82406,-1.26282 -11.46046,2.21697 -4.63703,3.4802 -7.02323,8.13022 -5.32942,10.38551 1.69309,2.25538 6.82406,1.26282 11.46046,-2.21697 3.39562,-2.54871 5.70976,-5.84146 5.86323,-8.34272 z m -7.49612,-18.02227 c 0.0238,-0.41075 -0.0357,-0.79715 -0.17761,-1.15192 -1.04634,-2.61937 -6.25924,-2.99717 -11.64248,-0.84378 -5.38353,2.15369 -8.89769,6.02294 -7.84823,8.64126 1.04797,2.61819 6.2605,2.99509 11.6427,0.84184 4.54688,-1.81924 7.87723,-4.92625 8.02562,-7.4874 z"
       transform="matrix(0.264585,0,0,0.264585,0,-0.0025)"
       sodipodi:nodetypes="sccsssccccccsccscccsccccs" />
    <path
       id="path3160-3-0-0-1-2-7-2-7-8-6-6-9-4"
       transform="rotate(42.597099)"
       inkscape:transform-center-x="0.54301653"
       inkscape:transform-center-y="-0.62643602"
       d="m 111.95862,-36.695211 c -0.11991,0.605881 0.0154,1.143064 0.30225,1.199832 0.28683,0.05677 0.61657,-0.388374 0.73648,-0.994254 0.11991,-0.605881 -0.0154,-1.143064 -0.30225,-1.199833 -0.28683,-0.05677 -0.61657,0.388375 -0.73648,0.994255 z"
       style="fill:#1da7ee;fill-opacity:0.239216;fill-rule:evenodd;stroke:none;stroke-width:0.264585px;stroke-linecap:butt;stroke-linejoin:miter;stroke-opacity:1" />
    <path
       id="path3160-6-5-9-6-8-0-5-8-8-1-3-1-8-4"
       transform="rotate(24.884408)"
       inkscape:transform-center-x="0.70786244"
       inkscape:transform-center-y="-0.43153024"
       d="m 114.97734,-3.7316764 c -0.44891,0.4242087 -0.65002,0.9403808 -0.44919,1.1529027 0.20083,0.2125218 0.72755,0.040916 1.17645,-0.3832931 0.44891,-0.4242088 0.65002,-0.9403809 0.44919,-1.1529027 -0.20083,-0.2125219 -0.72755,-0.040916 -1.17645,0.3832931 z"
       style="display:inline;fill:#1da7ee;fill-opacity:0.239216;fill-rule:evenodd;stroke:none;stroke-width:0.264585px;stroke-linecap:butt;stroke-linejoin:miter;stroke-opacity:1" />
  </g>
  <g
     id="g4420-7-2-3-2-7-2-9-19-9-0-8-1-44"
     style="display:inline"
     transform="rotate(-1.2661344,7380.104,-20401.152)"
     inkscape:transform-center-x="14.462404"
     inkscape:transform-center-y="4.3826973">
    <path
       id="path4-5-7-6-6-9-3-2-4-4-9-5-5-7"
       style="fill:#21a7ee;fill-opacity:0.239216;fill-rule:evenodd;stroke-width:3.7795"
       d="m 440.31577,158.12574 c -0.007,0.0586 -0.0163,0.11776 -0.0236,0.1762 -7.52213,39.30729 -23.46802,57.39338 -23.46802,57.39338 0,0 -1.68317,5.97198 -13.19357,-2.26151 -2.5978,-1.85824 -22.82173,-5.72468 -43.07949,13.8222 -20.25776,19.54688 -40.54935,62.5071 -49.65096,75.10966 -14.45024,20.00857 -39.38717,27.44978 -58.25708,25.49922 -30.23989,-4.47473 -46.5445,-14.56264 -31.40626,-25.26379 42.34512,-14.36816 40.9975,-27.76312 60.39884,-61.81072 32.39476,-86.67466 92.91443,-70.11622 92.46956,-82.88748 -0.40942,-14.14631 5.46406,-12.21982 5.46406,-12.21982 0,0 23.90274,-3.18484 60.7468,12.44067 z m -22.53392,25.84828 c 0.0501,-0.81224 -0.1313,-1.50639 -0.53381,-2.04279 -1.69308,-2.25538 -6.82406,-1.26282 -11.46046,2.21697 -4.63703,3.4802 -7.02323,8.13022 -5.32942,10.38551 1.69309,2.25538 6.82406,1.26282 11.46046,-2.21697 3.39562,-2.54871 5.70976,-5.84146 5.86323,-8.34272 z m -7.49612,-18.02227 c 0.0238,-0.41075 -0.0357,-0.79715 -0.17761,-1.15192 -1.04634,-2.61937 -6.25924,-2.99717 -11.64248,-0.84378 -5.38353,2.15369 -8.89769,6.02294 -7.84823,8.64126 1.04797,2.61819 6.2605,2.99509 11.6427,0.84184 4.54688,-1.81924 7.87723,-4.92625 8.02562,-7.4874 z"
       transform="matrix(0.264585,0,0,0.264585,0,-0.0025)"
       sodipodi:nodetypes="sccsssccccccsccscccsccccs" />
    <path
       id="path3160-3-0-0-1-2-7-2-7-8-6-6-9-6"
       transform="rotate(42.597099)"
       inkscape:transform-center-x="0.54301653"
       inkscape:transform-center-y="-0.62643602"
       d="m 111.95862,-36.695211 c -0.11991,0.605881 0.0154,1.143064 0.30225,1.199832 0.28683,0.05677 0.61657,-0.388374 0.73648,-0.994254 0.11991,-0.605881 -0.0154,-1.143064 -0.30225,-1.199833 -0.28683,-0.05677 -0.61657,0.388375 -0.73648,0.994255 z"
       style="fill:#1da7ee;fill-opacity:0.239216;fill-rule:evenodd;stroke:none;stroke-width:0.264585px;stroke-linecap:butt;stroke-linejoin:miter;stroke-opacity:1" />
    <path
       id="path3160-6-5-9-6-8-0-5-8-8-1-3-1-8-3"
       transform="rotate(24.884408)"
       inkscape:transform-center-x="0.70786244"
       inkscape:transform-center-y="-0.43153024"
       d="m 114.97734,-3.7316764 c -0.44891,0.4242087 -0.65002,0.9403808 -0.44919,1.1529027 0.20083,0.2125218 0.72755,0.040916 1.17645,-0.3832931 0.44891,-0.4242088 0.65002,-0.9403809 0.44919,-1.1529027 -0.20083,-0.2125219 -0.72755,-0.040916 -1.17645,0.3832931 z"
       style="display:inline;fill:#1da7ee;fill-opacity:0.239216;fill-rule:evenodd;stroke:none;stroke-width:0.264585px;stroke-linecap:butt;stroke-linejoin:miter;stroke-opacity:1" />
  </g>
  <g
     id="g4420-7-2-3-2-7-2-9-19-9-0-8-1-1"
     style="display:inline"
     transform="rotate(-5.2813791,1944.6975,-2654.55)"
     inkscape:transform-center-x="14.169282"
     inkscape:transform-center-y="5.4768025">
    <path
       id="path4-5-7-6-6-9-3-2-4-4-9-5-5-75"
       style="fill:#21a7ee;fill-opacity:0.239216;fill-rule:evenodd;stroke-width:3.7795"
       d="m 440.31577,158.12574 c -0.007,0.0586 -0.0163,0.11776 -0.0236,0.1762 -7.52213,39.30729 -23.46802,57.39338 -23.46802,57.39338 0,0 -1.68317,5.97198 -13.19357,-2.26151 -2.5978,-1.85824 -22.82173,-5.72468 -43.07949,13.8222 -20.25776,19.54688 -40.54935,62.5071 -49.65096,75.10966 -14.45024,20.00857 -39.38717,27.44978 -58.25708,25.49922 -30.23989,-4.47473 -46.5445,-14.56264 -31.40626,-25.26379 42.34512,-14.36816 40.9975,-27.76312 60.39884,-61.81072 32.39476,-86.67466 92.91443,-70.11622 92.46956,-82.88748 -0.40942,-14.14631 5.46406,-12.21982 5.46406,-12.21982 0,0 23.90274,-3.18484 60.7468,12.44067 z m -22.53392,25.84828 c 0.0501,-0.81224 -0.1313,-1.50639 -0.53381,-2.04279 -1.69308,-2.25538 -6.82406,-1.26282 -11.46046,2.21697 -4.63703,3.4802 -7.02323,8.13022 -5.32942,10.38551 1.69309,2.25538 6.82406,1.26282 11.46046,-2.21697 3.39562,-2.54871 5.70976,-5.84146 5.86323,-8.34272 z m -7.49612,-18.02227 c 0.0238,-0.41075 -0.0357,-0.79715 -0.17761,-1.15192 -1.04634,-2.61937 -6.25924,-2.99717 -11.64248,-0.84378 -5.38353,2.15369 -8.89769,6.02294 -7.84823,8.64126 1.04797,2.61819 6.2605,2.99509 11.6427,0.84184 4.54688,-1.81924 7.87723,-4.92625 8.02562,-7.4874 z"
       transform="matrix(0.264585,0,0,0.264585,0,-0.0025)"
       sodipodi:nodetypes="sccsssccccccsccscccsccccs" />
    <path
       id="path3160-3-0-0-1-2-7-2-7-8-6-6-9-9"
       transform="rotate(42.597099)"
       inkscape:transform-center-x="0.54301653"
       inkscape:transform-center-y="-0.62643602"
       d="m 111.95862,-36.695211 c -0.11991,0.605881 0.0154,1.143064 0.30225,1.199832 0.28683,0.05677 0.61657,-0.388374 0.73648,-0.994254 0.11991,-0.605881 -0.0154,-1.143064 -0.30225,-1.199833 -0.28683,-0.05677 -0.61657,0.388375 -0.73648,0.994255 z"
       style="fill:#1da7ee;fill-opacity:0.239216;fill-rule:evenodd;stroke:none;stroke-width:0.264585px;stroke-linecap:butt;stroke-linejoin:miter;stroke-opacity:1" />
    <path
       id="path3160-6-5-9-6-8-0-5-8-8-1-3-1-8-6"
       transform="rotate(24.884408)"
       inkscape:transform-center-x="0.70786244"
       inkscape:transform-center-y="-0.43153024"
       d="m 114.97734,-3.7316764 c -0.44891,0.4242087 -0.65002,0.9403808 -0.44919,1.1529027 0.20083,0.2125218 0.72755,0.040916 1.17645,-0.3832931 0.44891,-0.4242088 0.65002,-0.9403809 0.44919,-1.1529027 -0.20083,-0.2125219 -0.72755,-0.040916 -1.17645,0.3832931 z"
       style="display:inline;fill:#1da7ee;fill-opacity:0.239216;fill-rule:evenodd;stroke:none;stroke-width:0.264585px;stroke-linecap:butt;stroke-linejoin:miter;stroke-opacity:1" />
  </g>
</svg>
