<?xml version="1.0" encoding="UTF-8"?>
<svg width="34.396mm" height="31.901mm" version="1.1" viewBox="0 0 34.396 31.901" xmlns="http://www.w3.org/2000/svg" xmlns:cc="http://creativecommons.org/ns#" xmlns:dc="http://purl.org/dc/elements/1.1/" xmlns:rdf="http://www.w3.org/1999/02/22-rdf-syntax-ns#">
 <metadata>
  <rdf:RDF>
   <cc:Work rdf:about="">
    <dc:format>image/svg+xml</dc:format>
    <dc:type rdf:resource="http://purl.org/dc/dcmitype/StillImage"/>
    <dc:title/>
   </cc:Work>
  </rdf:RDF>
 </metadata>
 <g transform="translate(27.659 -25.886)" fill="none" stroke-width="1.1359">
  <g stroke="#fd6a6a">
   <path d="m-3.5273 40.042v3.5727" stroke-linecap="square"/>
   <path d="m-15.685 40.042v3.5727" stroke-linecap="square"/>
   <circle cx="-2.7324" cy="47.738" r=".90753"/>
  </g>
  <g stroke="#0b3b65" stroke-linecap="round">
   <rect x="-23.559" y="43.994" width="27.905" height="9.3018" rx="4.2931" ry="4.2931" stroke-linejoin="round"/>
   <g>
    <path d="m-18.237 46.859v3.5728"/>
    <path d="m-15.209 46.859v3.5728"/>
    <path d="m-12.18 46.859v3.5728"/>
   </g>
   <rect x="-4.9057" y="46.842" width="4.3468" height="3.6061" rx="1.2295" ry="1.164" stroke-linejoin="round"/>
  </g>
  <circle cx="-2.7324" cy="34.12" r=".90753" stroke="#fd6a6a"/>
  <g stroke="#0b3b65" stroke-linecap="round">
   <rect x="-23.559" y="30.377" width="27.905" height="9.3018" rx="4.2931" ry="4.2931" stroke-linejoin="round"/>
   <g>
    <path d="m-18.237 33.241v3.5727"/>
    <path d="m-15.209 33.241v3.5727"/>
    <path d="m-12.18 33.241v3.5727"/>
   </g>
   <rect x="-4.9057" y="33.225" width="4.3468" height="3.6061" rx="1.2295" ry="1.164" stroke-linejoin="round"/>
  </g>
  <g stroke="#fd6a6a" stroke-linecap="round">
   <path d="m1.7228 29.19 2.7361-2.7361"/>
   <path d="m3.4329 29.464 2.7361-2.7361"/>
   <path d="m6.1689 56.945-2.7361-2.7361"/>
   <path d="m4.4589 57.219-2.7361-2.7361"/>
   <path d="m-22.645 29.464-2.7361-2.7361"/>
   <path d="m-24.355 29.737-2.7361-2.7361"/>
   <path d="m-27.091 56.672 2.7361-2.7361"/>
   <path d="m-25.381 56.945 2.7361-2.7361"/>
  </g>
 </g>
</svg>
