<?xml version="1.0" encoding="UTF-8"?>
<svg width="34.396mm" height="37.575mm" version="1.1" viewBox="0 0 34.396 37.575" xmlns="http://www.w3.org/2000/svg" xmlns:cc="http://creativecommons.org/ns#" xmlns:dc="http://purl.org/dc/elements/1.1/" xmlns:rdf="http://www.w3.org/1999/02/22-rdf-syntax-ns#">
 <metadata>
  <rdf:RDF>
   <cc:Work rdf:about="">
    <dc:format>image/svg+xml</dc:format>
    <dc:type rdf:resource="http://purl.org/dc/dcmitype/StillImage"/>
    <dc:title/>
   </cc:Work>
  </rdf:RDF>
 </metadata>
 <g transform="translate(-106.52 -127.54)" fill="none" stroke-width="1.2467">
  <circle cx="131.88" cy="157.89" r="1.0781" stroke="#fd6a6a"/>
  <g stroke="#0b3b65">
   <g stroke-linecap="round">
    <rect x="107.14" y="153.45" width="33.149" height="11.05" rx="5.0999" ry="5.0999" stroke-linejoin="round"/>
    <g>
     <path d="m113.46 156.85v4.2441"/>
     <path d="m117.06 156.85v4.2441"/>
     <path d="m120.66 156.85v4.2441"/>
    </g>
    <rect x="129.3" y="156.83" width="5.1636" height="4.2837" rx="1.4605" ry="1.3827" stroke-linejoin="round"/>
   </g>
   <path d="m130.94 148.75v4.2441" stroke-linecap="square"/>
   <path d="m116.5 148.75v4.2441" stroke-linecap="square"/>
  </g>
  <path d="m123.72 128.17a6.6812 6.6812 0 0 0-6.6812 6.6812 6.6812 6.6812 0 0 0 0.0285 0.56809 6.6812 6.6812 0 0 0-0.5681-0.0285 6.6812 6.6812 0 0 0-6.6812 6.6812 6.6812 6.6812 0 0 0 6.6812 6.6812 6.6812 6.6812 0 0 0 3.8165-1.2065 6.6812 6.6812 0 0 0 2.8412 0.64294 6.6812 6.6812 0 0 0 3.4974-0.99426 6.6812 6.6812 0 0 0 4.2869 1.5578 6.6812 6.6812 0 0 0 6.6812-6.6812 6.6812 6.6812 0 0 0-6.6812-6.6812 6.6812 6.6812 0 0 0-0.5681 0.0285 6.6812 6.6812 0 0 0 0.0285-0.56809 6.6812 6.6812 0 0 0-6.6815-6.6812z" stroke="#22a6ed"/>
 </g>
</svg>
