<svg id="Layer_1" enable-background="new 0 0 512 512" height="512" viewBox="0 0 512 512" width="512" xmlns="http://www.w3.org/2000/svg"><g><g><path d="m418.506 358.453c-.573 4.068-1.944 9.893-3.167 14.627-1.143 4.422-5.122 7.514-9.689 7.514h-13.983c-4.566 0-8.546-3.092-9.689-7.514-1.223-4.734-2.594-10.559-3.167-14.627-.427-3.031-2.247-5.684-4.899-7.211l-12.92-7.442c-2.649-1.526-5.853-1.774-8.688-.63-3.825 1.543-9.591 3.278-14.323 4.591-4.395 1.219-9.056-.676-11.341-4.624l-6.982-12.065c-2.287-3.952-1.597-8.945 1.665-12.139 3.501-3.428 7.879-7.531 11.125-10.06 2.412-1.88 3.802-4.78 3.802-7.839v-14.865c0-3.059-1.39-5.959-3.802-7.839-3.246-2.53-7.624-6.633-11.125-10.06-3.262-3.194-3.952-8.187-1.665-12.139l6.982-12.065c2.284-3.948 6.946-5.843 11.341-4.624 4.732 1.312 10.498 3.048 14.323 4.591 2.835 1.144 6.039.896 8.688-.63l12.92-7.442c2.652-1.527 4.472-4.181 4.899-7.211.573-4.067 1.944-9.893 3.167-14.627 1.143-4.422 5.122-7.514 9.689-7.514h13.983c4.566 0 8.546 3.092 9.689 7.514 1.223 4.734 2.594 10.559 3.167 14.627.427 3.031 2.247 5.684 4.899 7.211l12.92 7.442c2.649 1.526 5.853 1.774 8.688.63 3.825-1.543 9.591-3.278 14.323-4.591 4.395-1.219 9.056.676 11.341 4.624l6.982 12.065c2.287 3.952 1.597 8.945-1.665 12.139-3.501 3.428-7.879 7.531-11.125 10.06-2.412 1.88-3.802 4.78-3.802 7.839v14.865c0 3.059 1.39 5.959 3.802 7.839 3.246 2.53 7.624 6.633 11.125 10.06 3.262 3.194 3.952 8.187 1.665 12.139l-6.982 12.065c-2.284 3.948-6.946 5.842-11.341 4.624-4.732-1.312-10.498-3.048-14.323-4.591-2.835-1.144-6.039-.896-8.688.63l-12.92 7.442c-2.652 1.527-4.472 4.181-4.899 7.211zm14.58-64.852c0-18.97-15.414-34.348-34.427-34.348s-34.427 15.378-34.427 34.348 15.414 34.348 34.427 34.348 34.427-15.378 34.427-34.348z" fill="#ffc328"/><path d="m133.189 151.846c-.573 4.068-1.944 9.893-3.167 14.627-1.143 4.422-5.122 7.514-9.689 7.514h-13.983c-4.567 0-8.546-3.092-9.689-7.514-1.223-4.734-2.594-10.559-3.167-14.627-.427-3.031-2.247-5.684-4.899-7.211l-12.92-7.442c-2.649-1.526-5.853-1.774-8.688-.63-3.825 1.543-9.591 3.278-14.323 4.591-4.395 1.219-9.056-.676-11.341-4.624l-6.982-12.065c-2.287-3.952-1.597-8.945 1.665-12.139 3.501-3.428 7.879-7.531 11.125-10.06 2.412-1.88 3.802-4.78 3.802-7.839v-14.866c0-3.059-1.39-5.959-3.802-7.839-3.246-2.53-7.624-6.633-11.125-10.06-3.262-3.194-3.952-8.187-1.665-12.139l6.982-12.065c2.284-3.948 6.946-5.843 11.341-4.624 4.732 1.312 10.498 3.048 14.323 4.591 2.835 1.144 6.039.896 8.688-.63l12.92-7.442c2.652-1.527 4.472-4.181 4.899-7.211.573-4.067 1.944-9.893 3.167-14.627 1.143-4.423 5.123-7.515 9.689-7.515h13.983c4.567 0 8.546 3.092 9.689 7.514 1.223 4.734 2.594 10.559 3.167 14.627.427 3.031 2.247 5.684 4.899 7.211l12.92 7.442c2.649 1.526 5.853 1.774 8.688.63 3.825-1.543 9.591-3.278 14.323-4.591 4.395-1.219 9.056.676 11.341 4.624l6.982 12.065c2.287 3.952 1.597 8.945-1.665 12.139-3.501 3.428-7.879 7.531-11.125 10.06-2.412 1.88-3.802 4.78-3.802 7.839v14.865c0 3.059 1.39 5.959 3.802 7.839 3.246 2.53 7.624 6.633 11.125 10.06 3.262 3.194 3.952 8.187 1.665 12.139l-6.982 12.065c-2.284 3.948-6.946 5.842-11.341 4.624-4.732-1.312-10.498-3.048-14.323-4.591-2.835-1.144-6.039-.896-8.688.63l-12.92 7.442c-2.651 1.529-4.471 4.182-4.899 7.213zm14.58-64.853c0-18.97-15.414-34.348-34.427-34.348s-34.428 15.379-34.428 34.348 15.414 34.348 34.427 34.348 34.428-15.378 34.428-34.348z" fill="#f78e36"/></g><path d="m398.947 402.77h-285.584l17.727-53.281c2.101-6.294 8.158-10.559 14.987-10.559h220.425c6.829 0 12.886 4.265 14.987 10.559z" fill="#29cef6"/><path d="m381.199 349.489c-2.101-6.294-8.158-10.559-14.987-10.559h-30.901c6.829 0 12.886 4.265 14.987 10.559l17.459 53.281h30.901z" fill="#22b5ed"/><path d="m377.541 512h-243.082c-12.516 0-22.662-10.146-22.662-22.662v-78.297c0-12.516 10.146-22.662 22.662-22.662h243.082c12.516 0 22.662 10.146 22.662 22.662v78.297c0 12.516-10.146 22.662-22.662 22.662z" fill="#a9dbf5"/><path d="m377.543 388.378h-30.901c12.515 0 22.661 10.147 22.661 22.664v78.294c0 12.517-10.145 22.664-22.661 22.664h30.901c12.515 0 22.661-10.147 22.661-22.664v-78.294c-.001-12.517-10.146-22.664-22.661-22.664z" fill="#88c3e0"/><path d="m142.697 476.974v-53.57c0-2.276 1.845-4.12 4.12-4.12h218.364c2.276 0 4.12 1.845 4.12 4.12v53.57c0 2.276-1.845 4.12-4.12 4.12h-218.363c-2.276.001-4.121-1.844-4.121-4.12z" fill="#43809f"/><path d="m190.072 452.25c-8.533 0-15.45-6.917-15.45-15.45v-17.515h30.901v17.515c-.001 8.532-6.918 15.45-15.451 15.45z" fill="#f78e36"/><path d="m241.58 452.25c-8.533 0-15.45-6.917-15.45-15.45v-17.515h30.901v17.515c-.001 8.532-6.918 15.45-15.451 15.45z" fill="#f78e36"/><path d="m278.337 208.613c-13.206 13.208-19.848 31.609-18.125 50.207l.034.369c1.462 15.775-4.172 31.382-15.373 42.584l-48.555 48.563-104.443-104.459 48.555-48.563c11.2-11.202 26.805-16.837 42.577-15.375l.369.034c18.596 1.724 36.994-4.92 50.199-18.128 13.255-13.257 19.896-31.744 18.106-50.406-1.518-15.829 4.115-31.509 15.357-42.753l48.642-48.65 104.443 104.459-48.642 48.65c-11.242 11.244-26.92 16.877-42.746 15.359-18.659-1.789-37.142 4.852-50.398 18.109z" fill="#f3f3f3"/><path d="m120.988 216.759-29.113 29.118 104.443 104.459 48.556-48.563c11.2-11.202 16.835-26.809 15.373-42.584l-.034-.369c-1.393-15.029 2.683-29.927 11.265-42.062h-150.49z" fill="#7be492"/><path d="m328.736 190.504c15.827 1.518 31.504-4.115 42.746-15.359l48.642-48.65-22.381-22.384-48.642 48.65c-11.242 11.244-26.92 16.877-42.746 15.359-18.66-1.79-37.143 4.852-50.399 18.109-13.206 13.208-19.848 31.609-18.125 50.207l.034.369c1.462 15.775-4.173 31.382-15.373 42.584l-48.556 48.563 22.381 22.384 48.556-48.563c11.2-11.202 16.834-26.809 15.373-42.584l-.034-.369c-1.724-18.599 4.919-37 18.125-50.207 13.256-13.257 31.739-19.898 50.399-18.109z" fill="#e4e4e4"/><path d="m244.874 301.773c11.2-11.202 16.835-26.809 15.373-42.584l-.034-.369c-1.393-15.029 2.683-29.927 11.265-42.062h-32.342c-1.447 6.382-1.921 13.015-1.304 19.678l.034.369c1.462 15.775-4.172 31.382-15.373 42.584l-48.556 48.563 22.381 22.384z" fill="#45d987"/><path d="m416.598 128.275-102.695-102.712c-5.833-5.833-5.833-15.291 0-21.125 5.833-5.833 15.289-5.833 21.122 0l102.695 102.712c5.833 5.834 5.833 15.291 0 21.125-5.833 5.833-15.289 5.833-21.122 0z" fill="#f78e36"/><path d="m437.72 107.15-21.85-21.853c5.833 5.833 5.833 15.291 0 21.125-5.833 5.833-15.289 5.833-21.122 0l21.85 21.853c5.833 5.833 15.289 5.833 21.122 0 5.833-5.834 5.832-15.292 0-21.125z" fill="#f86f1b"/><path d="m176.976 367.934-102.696-102.711c-5.833-5.833-5.833-15.291 0-21.125 5.833-5.833 15.289-5.833 21.122 0l102.695 102.711c5.833 5.833 5.833 15.291 0 21.125-5.832 5.833-15.289 5.833-21.121 0z" fill="#f78e36"/><path d="m198.097 346.809-21.85-21.853c5.833 5.833 5.833 15.291 0 21.125-5.833 5.833-15.289 5.833-21.122 0l21.85 21.853c5.833 5.833 15.289 5.833 21.122 0 5.833-5.834 5.833-15.292 0-21.125z" fill="#f86f1b"/></g></svg>