<?xml version="1.0" encoding="UTF-8"?>
<svg width="130" height="130" enable-background="new 0 0 512 512" version="1.1" viewBox="0 0 130 130" xmlns="http://www.w3.org/2000/svg" xmlns:cc="http://creativecommons.org/ns#" xmlns:dc="http://purl.org/dc/elements/1.1/" xmlns:rdf="http://www.w3.org/1999/02/22-rdf-syntax-ns#">
 <metadata>
  <rdf:RDF>
   <cc:Work rdf:about="">
    <dc:format>image/svg+xml</dc:format>
    <dc:type rdf:resource="http://purl.org/dc/dcmitype/StillImage"/>
    <dc:title/>
   </cc:Work>
  </rdf:RDF>
 </metadata>
 <g transform="scale(.25391)">
  <g fill="#45d987">
   <path d="m454 133.22h-73.463c-4.143 0-7.5 3.357-7.5 7.5s3.357 7.5 7.5 7.5h73.463c4.143 0 7.5-3.357 7.5-7.5s-3.357-7.5-7.5-7.5z"/>
   <path d="m380.53 89.298h73.463c4.143 0 7.5-3.357 7.5-7.5s-3.357-7.5-7.5-7.5h-73.463c-4.143 0-7.5 3.357-7.5 7.5s3.358 7.5 7.5 7.5z"/>
   <path d="m504.5 103.76h-123.97c-4.143 0-7.5 3.357-7.5 7.5s3.357 7.5 7.5 7.5h123.97c4.143 0 7.5-3.357 7.5-7.5s-3.357-7.5-7.5-7.5z"/>
   <path d="m129.91 133.22h-71.909c-4.143 0-7.5 3.357-7.5 7.5s3.357 7.5 7.5 7.5h71.909c4.143 0 7.5-3.357 7.5-7.5s-3.357-7.5-7.5-7.5z"/>
   <path d="m129.91 74.298h-71.909c-4.143 0-7.5 3.357-7.5 7.5s3.357 7.5 7.5 7.5h71.909c4.143 0 7.5-3.357 7.5-7.5s-3.357-7.5-7.5-7.5z"/>
   <path d="m129.91 103.76h-122.41c-4.143 0-7.5 3.357-7.5 7.5s3.357 7.5 7.5 7.5h122.41c4.143 0 7.5-3.357 7.5-7.5s-3.357-7.5-7.5-7.5z"/>
  </g>
  <circle cx="255.54" cy="300.81" r="211.19" fill="#29cef6"/>
  <path d="m255.54 89.626c-5.198 0-10.349 0.196-15.453 0.565 109.42 7.914 195.73 99.184 195.73 210.62s-86.315 202.71-195.73 210.62c5.104 0.369 10.255 0.565 15.453 0.565 116.64 0 211.19-94.552 211.19-211.19s-94.551-211.19-211.19-211.19z" fill="#22b5ed"/>
  <path d="m271.92 104.46c-0.01 24.849-4.758 49.688-13.894 72.8-6.855 17.306-16.104 33.574-23.102 50.819-21.571 51.209 1.408 66.09-9.115 85.235-6.937 11.058-23.811 10.215-35.26 3.915-25.26-13.894-36.061-43.974-54.744-65.936-14.49-17.029-33.862-29.196-49.472-45.207-3.71-3.802-7.893-8.725-11.726-14.254 36.976-61.249 104.18-102.21 180.93-102.21 4.912 0 9.783 0.164 14.614 0.504 1.294 3.967 1.808 8.746 1.767 14.337z" fill="#f78e36"/>
  <path d="m270.15 90.126c-4.83-0.339-9.701-0.504-14.613-0.504-5.471 0-10.891 0.215-16.256 0.624 1.267 3.944 1.773 8.68 1.732 14.216-0.01 24.849-4.758 49.688-13.894 72.8-6.855 17.306-16.104 33.574-23.102 50.819-21.571 51.209 1.408 66.09-9.116 85.235-1.049 1.672-2.329 3.068-3.779 4.219 11.431 6.017 27.862 6.657 34.685-4.219 10.523-19.146-12.455-34.026 9.116-85.235 6.998-17.244 16.247-33.512 23.102-50.819 9.136-23.112 13.884-47.951 13.894-72.8 0.04-5.591-0.474-10.37-1.769-14.336z" fill="#f86f1b"/>
  <path d="m395.21 407.96c-3.432 15.271 1.13 30.727 5.549 46.163-23.267 22.054-51.548 38.856-82.944 48.537-7.04-12.836-12.075-27.593-19.423-40.305-13.123-22.712-34.92-40.408-43.501-65.206-8.427-24.366-1.624-53.316 16.782-71.362 29.916-29.34 84.814-21.951 117.03 0.298 12.558 8.674 22.383 22.855 21.684 38.096-0.72 15.507-11.767 28.631-15.179 43.779z" fill="#f78e36"/>
  <path d="m410.39 364.19c0.699-15.24-9.126-29.422-21.684-38.096-21.131-14.593-52.019-22.792-79.215-18.429 17.736 2.564 34.968 9.216 48.31 18.429 12.558 8.674 22.383 22.856 21.684 38.096-0.719 15.508-11.767 28.631-15.179 43.779-3.432 15.271 1.13 30.727 5.549 46.163-16.663 15.794-35.908 28.876-57.017 38.596 1.579 3.393 3.216 6.727 4.979 9.941 31.396-9.681 59.677-26.483 82.944-48.537-4.419-15.436-8.982-30.892-5.549-46.163 3.412-15.148 14.459-28.272 15.178-43.779z" fill="#f86f1b"/>
  <path d="m448.63 215.14c-13.442 9.413-32.135 11.582-48.301 11.983-15.528 0.668-31.426 0.843-46.194-4.008-47.037-16.597-42.083-62.205-5.827-89.397 5.591-4.275 11.52-8.663 17.635-12.969 36.257 22.269 65.268 55.185 82.687 94.391z" fill="#f3f3f3"/>
  <path d="m366.42 120.75c-5.13 3.613-10.117 7.28-14.895 10.893 31.652 23.688 56.432 56.048 70.822 93.559 9.667-1.669 19.073-4.677 26.76-10.06-17.419-39.206-46.431-72.122-82.687-94.392z" fill="#e4e4e4"/>
  <path d="m398.98 63.84h-285.63l17.729-53.281c2.102-6.294 8.16-10.559 14.99-10.559h220.46c6.83 0 12.888 4.265 14.989 10.559z" fill="#29cef6"/>
  <path d="m381.23 10.559c-2.101-6.294-8.159-10.559-14.989-10.559h-30.905c6.83 0 12.888 4.265 14.989 10.559l17.462 53.281h30.905z" fill="#22b5ed"/>
  <path d="m377.58 173.07h-243.12c-12.517 0-22.664-10.147-22.664-22.664v-78.293c0-12.517 10.147-22.664 22.664-22.664h243.12c12.517 0 22.664 10.147 22.664 22.664v78.294c-1e-3 12.516-10.148 22.663-22.665 22.663z" fill="#a9dbf5"/>
  <path d="m377.58 49.449h-30.905c12.517 0 22.664 10.147 22.664 22.664v78.294c0 12.517-10.147 22.664-22.664 22.664h30.905c12.517 0 22.664-10.147 22.664-22.664v-78.294c0-12.517-10.147-22.664-22.664-22.664z" fill="#88c3e0"/>
  <path d="m142.69 138.04v-53.569c0-2.276 1.845-4.121 4.121-4.121h218.4c2.276 0 4.121 1.845 4.121 4.121v53.569c0 2.276-1.845 4.121-4.121 4.121h-218.4c-2.276 0-4.121-1.845-4.121-4.121z" fill="#43809f"/>
  <g fill="#f78e36">
   <path d="m190.08 113.32c-8.534 0-15.453-6.918-15.453-15.453v-17.513h30.905v17.513c1e-3 8.535-6.917 15.453-15.452 15.453z"/>
   <path d="m241.59 113.32c-8.534 0-15.453-6.918-15.453-15.453v-17.513h30.905v17.513c1e-3 8.535-6.917 15.453-15.452 15.453z"/>
  </g>
 </g>
</svg>
