<?xml version="1.0" encoding="UTF-8"?>
<svg width="156.83mm" height="101.45mm" version="1.1" viewBox="0 0 156.83 101.45" xmlns="http://www.w3.org/2000/svg" xmlns:cc="http://creativecommons.org/ns#" xmlns:dc="http://purl.org/dc/elements/1.1/" xmlns:rdf="http://www.w3.org/1999/02/22-rdf-syntax-ns#" xmlns:xlink="http://www.w3.org/1999/xlink">
 <defs>
  <linearGradient id="linearGradient5394-3" x1="1138.6" x2="1139.6" y1="613.78" y2="611.26" gradientTransform="translate(-1024.1 -598.27)" gradientUnits="userSpaceOnUse">
   <stop stop-color="#a791d1" offset="0"/>
   <stop stop-color="#d1c5e7" offset="1"/>
  </linearGradient>
 </defs>
 <metadata>
  <rdf:RDF>
   <cc:Work rdf:about="">
    <dc:format>image/svg+xml</dc:format>
    <dc:type rdf:resource="http://purl.org/dc/dcmitype/StillImage"/>
    <dc:title/>
   </cc:Work>
  </rdf:RDF>
 </metadata>
 <g transform="translate(-20.365 -71.677)">
  <path d="m141.16 146.51s6.1878-18.44 11.554-26.41c2.8612-4.2496 6.8271-7.7497 10.729-11.004 1.4518-1.2109 4.952-0.5502 5.2271 2.2009 0.27505 2.7511-4.6743 5.4063-7.1528 7.9782-2.5652 2.6617-5.9236 4.6298-7.9781 7.703-3.8898 5.8184-6.8777 18.157-7.703 19.533-0.82533 1.3755-2.2009 2.2009-2.2009 2.2009z" fill="#77698e" fill-rule="evenodd"/>
  <path d="m149.41 125.6s8.2533-3.0261 8.8035-3.1637c0.55018-0.1376-4.1267 3.1637-4.6768 4.4017-0.55025 1.238-4.759 4.5803-5.9148 7.5655-0.88004 2.2726-0.55025 7.2903-0.55025 7.2903s-0.8253 6.3275-3.3013 6.6026c-2.476 0.2751-2.7511-2.4759-2.7511-2.4759z" fill="#5e5370" fill-rule="evenodd"/>
  <path d="m141.16 146.51s6.1878-18.44 11.554-26.41c2.8612-4.2496 6.8271-7.7497 10.729-11.004 1.4518-1.2109 4.952-0.5502 5.2271 2.2009 0.27505 2.7511-4.6743 5.4063-7.1528 7.9782-2.5652 2.6617-5.9236 4.6298-7.9781 7.703-3.8898 5.8184-6.8777 18.157-7.703 19.533-0.82533 1.3755-2.2009 2.2009-2.2009 2.2009z" fill="none"/>
  <path d="m145.8 72.34c-1.1111 0.01-2.2396 0.058-3.3814 0.1387v5.5377h6.4148v-5.5888c-0.99562-0.066-2.0072-0.095-3.0334-0.088zm3.1884 0.099v5.5772h6.4144v-4.4507c-2.0391-0.6115-4.185-0.9687-6.4144-1.1265zm-6.7248 0.051c-2.0974 0.1547-4.241 0.4205-6.4148 0.7602v4.7662h6.4148zm-6.5694 0.7839c-2.1159 0.3337-4.2593 0.7353-6.4152 1.1686v3.5739h6.4152zm19.864 0.3396v4.4029h6.4152v-1.2457c-1.9785-1.4316-4.1292-2.4552-6.4152-3.1572zm-26.433 0.8599c-2.1317 0.4297-4.275 0.8895-6.4148 1.3442v2.1988h6.4148zm-6.5698 1.3769c-2.1473 0.456-4.2904 0.905-6.4148 1.3135v0.8526h6.4148zm39.573 1.0325v1.1336h1.4064c-0.45833-0.4027-0.92721-0.7802-1.4064-1.1336zm-46.143 0.3099c-1.5813 0.3027-3.1522 0.5828-4.7057 0.8237h4.7057zm-27.726 0.5217c-1.1985-0.01-2.3695 0.082-3.4998 0.302h4.9472v-0.2572c-0.48586-0.027-0.96892-0.043-1.4473-0.045zm1.6023 0.055v0.2475h2.7134c-0.91116-0.1054-1.8175-0.1942-2.7134-0.2475zm-5.7968 0.4021c-0.25988 0.065-0.51778 0.1372-0.77255 0.2189v6.1963h6.4144v-6.4152zm5.7968 0v6.4152h6.4148v-6.1038c-0.80745-0.101-1.6172-0.2085-2.426-0.3114zm20.386 0c-0.22604 0.033-0.4514 0.064-0.67663 0.095v6.3204h6.4144v-6.4152zm5.8927 0v6.4152h6.4148v-6.4152zm6.5698 0v6.4152h6.4148v-6.4152zm6.5694 0v6.4152h6.4152v-6.4152zm6.5698 0v6.4152h6.4148v-6.4152zm6.5698 0v6.4152h6.4148v-6.4152zm6.5698 0v6.4152h6.4144v-6.4152zm6.5694 0v6.4152h6.4152v-6.4152zm6.5698 0v6.4152h6.4148v-0.2487c-1.0736-1.9543-2.3762-3.742-3.9286-5.3052-0.29725-0.2993-0.60004-0.5855-0.90719-0.8613zm-52.712 0.1158c-2.1836 0.2951-4.3282 0.502-6.4152 0.5778v5.7216h6.4152zm-26.279 0.1513c-0.8014 0.269-1.576 0.625-2.3177 1.0885-1.3618 0.8508-2.7324 1.7931-4.0971 2.8122v2.2474h6.4148zm13.294 0.064v6.0839h6.4148v-5.7157c-0.3135 0.01-0.62609 0.018-0.93692 0.023-1.7754 0.025-3.6186-0.1604-5.4779-0.3908zm-19.864 3.9527c-0.90164 0.6776-1.8005 1.388-2.6919 2.1312h2.6919zm-2.8755 2.2861c-1.197 1.0048-2.3804 2.0647-3.5393 3.1745v3.2399h6.4148v-6.4144zm3.0304 0v6.4144h6.4148v-6.4144zm6.5698 0v6.4144h6.4144v-6.4144zm6.5694 0v6.4144h6.4148v-6.4144zm6.5698 0v6.4144h6.4148v-6.4144zm6.5694 0v6.4144h6.4152v-6.4144zm6.5702 0v6.4144h6.4144v-6.4144zm6.5694 0v6.4144h6.4148v-6.4144zm6.5698 0v6.4144h6.4148v-6.4144zm6.5694 0v6.4144h6.4152v-6.4144zm6.5698 0v6.4144h6.4148v-6.4144zm6.5698 0v6.4144h6.4148v-6.4144zm6.5698 0v6.4144h6.4144v-6.4144zm6.5694 0v6.4144h6.4152v-6.4144zm6.5698 0v6.4144h6.4148v-6.4144zm6.5698 0v6.4144h2.5257c-0.59829-2.2671-1.4122-4.4242-2.461-6.4144zm-98.7 3.3246c-1.0311 0.9931-2.0422 2.0248-3.0263 3.0898h3.0263zm6.7247 3.2448v6.4148h6.4148v-6.4148zm6.5698 0v6.4148h6.4144v-6.4148zm6.5694 0v6.4148h6.4148v-6.4148zm6.5698 0v6.4148h6.4148v-6.4148zm6.5694 0v6.4148h6.4152v-6.4148zm6.5702 0v6.4148h6.4144v-6.4148zm6.5694 0v6.4148h6.4148v-6.4148zm6.5698 0v6.4148h6.4148v-6.4148zm6.5694 0v6.4148h6.4152v-6.4148zm26.279 0v6.4148h6.4152v-6.4148zm6.5698 0v6.4148h6.4148v-6.4148zm6.5698 0v6.4148h3.645c-0.18924-2.2003-0.54384-4.3524-1.078-6.4148zm-102.01 0.155c-1.071 1.1724-2.1074 2.3849-3.1015 3.6292v9.2003h6.4144v-12.829zm3.4679 0v12.829h6.4148v-12.829zm65.697 0v12.829h6.4148v-12.829zm6.5698 0v12.829h6.4148v-12.829zm6.5698 0v12.829h6.4144v-12.829zm-85.56 3.8229c-2.2688 2.8604-4.3056 5.89-5.9943 9.0066h5.9943v-6.4148zm13.294 2.5918v6.4148h6.4148v-6.4148zm6.5698 0v6.4148h6.4144v-6.4148zm6.5694 0v6.4148h6.4148v-6.4148zm6.5698 0v6.4148h6.4148v-6.4148zm6.5694 0v6.4148h6.4152v-6.4148zm6.5702 0v6.4148h6.4144v-6.4148zm6.5694 0v6.4148h6.4148v-6.4148zm6.5698 0v6.4148h6.4148v-6.4148zm6.5694 0v6.4148h6.4152v-6.4148zm26.279 0v6.4148h6.4152v-6.4148zm6.5698 0v6.4148h6.4148v-6.4148zm6.5698 0v6.4148h3.7346c0.1198-2.1568 0.0976-4.3071-0.076-6.4148zm-111.35 6.5694c-0.11393 0.212-0.22636 0.4242-0.33701 0.6368v5.7781h6.4148v-6.4149zm6.2328 0v6.4149h6.4144v-6.4149zm6.5694 0v6.4149h6.4148v-6.4149zm6.5698 0v6.4149h6.4148v-6.4149zm6.5698 0v6.4149h6.4144v-6.4149zm6.5694 0v6.4149h6.4148v-6.4149zm6.5698 0v6.4149h6.4148v-6.4149zm6.5694 0v6.4149h6.4152v-6.4149zm6.5702 0v6.4149h6.4144v-6.4149zm6.5694 0v6.4149h6.4148v-6.4149zm6.5698 0v6.4149h6.4148v-6.4149zm6.5694 0v6.4149h6.4152v-6.4149zm6.5698 0v6.4149h6.4148v-6.4149zm6.5698 0v6.4149h6.4148v-6.4149zm6.5698 0v6.4149h6.4144v-6.4149zm6.5694 0v6.4149h6.4152v-6.4149zm6.5698 0v6.4149h6.4148v-6.4149zm6.5698 0v6.4149h2.9398c0.39442-2.1196 0.65914-4.2697 0.78498-6.4149zm-111.84 0.937c-0.92455 1.8055-1.7288 3.6365-2.3899 5.4779h2.3899zm-2.4471 5.6328c-0.75637 2.1334-1.3194 4.2799-1.655 6.4149h4.102v-6.4149zm2.602 0v6.4149h6.4148v-6.4149zm6.5698 0v6.4149h6.4144v-6.4149zm6.5694 0v6.4149h6.4148v-6.4149zm6.5698 0v6.4149h6.4148v-6.4149zm6.5698 0v6.4149h6.4144v-6.4149zm6.5694 0v6.4149h6.4148v-6.4149zm6.5698 0v6.4149h6.4148v-6.4149zm6.5694 0v6.4149h6.4152v-6.4149zm6.5702 0v6.4149h6.4144v-6.4149zm6.5694 0v6.4149h6.4148v-6.4149zm6.5698 0v6.4149h6.4148v-6.4149zm6.5694 0v6.4149h6.4152v-6.4149zm6.5698 0v6.4149h6.4148v-6.4149zm6.5698 0v6.4149h6.4148v-6.4149zm6.5698 0v6.4149h6.4144v-6.4149zm6.5694 0v6.4149h6.4152v-6.4149zm6.5698 0v6.4149h6.4148v-6.4149zm6.5698 0v6.4149h1.2702c0.67609-2.0784 1.228-4.2293 1.6414-6.4149zm-115.96 6.5698c-0.3282 2.159-0.4208 4.3054-0.24412 6.4148h4.3683v-6.4148zm4.2792 0v6.4148h6.4148v-6.4148zm6.5698 0v6.4148h6.4144v-6.4148zm6.5694 0v6.4148h6.4148v-6.4148zm6.5698 0v6.4148h6.4148v-6.4148zm6.5698 0v6.4148h6.4144v-6.4148zm6.5694 0v6.4148h6.4148v-6.4148zm6.5698 0v6.4148h6.4148v-6.4148zm6.5694 0v6.4148h6.4152v-6.4148zm6.5702 0v6.4148h6.4144v-6.4148zm6.5694 0v6.4148h6.4148v-6.4148zm6.5698 0v6.4148h6.4148v-6.4148zm6.5694 0v6.4148h6.4152v-6.4148zm6.5698 0v6.4148h6.4148v-6.4148zm6.5698 0v6.4148h6.4148v-6.4148zm6.5698 0v6.4148h6.4144v-6.4148zm6.5694 0v6.4148h6.4152v-6.4148zm6.5698 0v6.4148h5.1548c0.44617-0.8869 0.86585-1.8007 1.26-2.7363v-3.6785zm6.5698 0v3.3076c0.44253-1.0762 0.84933-2.1811 1.2198-3.3076zm-116.19 6.5698c0.19664 2.1812 0.68037 4.3222 1.4992 6.3941 3e-3 0.01 6e-3 0.014 9e-3 0.02h2.8469v-6.4148zm4.5097 0v6.4148h6.4148v-6.4148zm6.5698 0v6.4148h6.4144v-6.4148zm6.5694 0v6.4148h6.4148v-6.4148zm6.5698 0v6.4148h6.4148v-6.4148zm6.5698 0v6.4148h6.4144v-6.4148zm6.5694 0v6.4148h6.4148v-6.4148zm6.5698 0v6.4148h6.4148v-6.4148zm6.5694 0v6.4148h6.4152v-6.4148zm6.5702 0v6.4148h6.4144v-6.4148zm6.5694 0v6.4148h6.4148v-6.4148zm6.5698 0v6.4148h6.4148v-6.4148zm6.5694 0v6.4148h6.4152v-6.4148zm6.5698 0v6.4148h6.4148v-6.4148zm6.5698 0v6.4148h6.4148v-6.4148zm6.5698 0v6.4148h6.4144v-6.4148zm6.5694 0v6.4148h6.4152v-6.4148zm6.5698 0v6.4148h0.96775c0.44449-0.5519 0.87472-1.1174 1.286-1.7005 1.0266-1.4556 1.9696-3.0372 2.822-4.7143zm-108.05 6.5693c0.72354 1.7837 1.6616 3.3975 2.7822 4.8577v-4.8577zm22.646 0v6.4152h6.4148v-6.4152zm6.5698 0v6.4152h6.4144v-6.4152zm6.5694 0v6.4152h6.4148v-6.4152zm6.5698 0v6.4152h6.4148v-6.4152zm6.5694 0v6.4152h6.4152v-6.4152zm6.5702 0v6.4152h6.4144v-6.4152zm6.5694 0v6.4152h6.4148v-6.4152zm6.5698 0v6.4152h6.4148v-6.4152zm6.5694 0v6.4152h6.4152v-6.4152zm26.279 0v6.4152h0.60251c2.1214-1.5555 4.0733-3.2967 5.8126-5.245v-1.1702zm6.5698 0v0.9964c0.28699-0.3259 0.56678-0.6589 0.84176-0.9964zm-105.11 0.155v4.9077c1.7474 2.221 3.9233 4.081 6.4148 5.6377v-10.545zm6.5698 0v10.64c1.3147 0.8107 2.7163 1.5373 4.1874 2.1898h2.227v-12.83zm6.5694 0v12.83h6.4148v-12.83zm65.697 0v12.83h6.4148v-12.83zm6.5698 0v12.83h1.24c1.7748-0.6597 3.5041-1.3909 5.1748-2.1996v-10.63zm6.5698 0v10.554c2.2582-1.1022 4.4075-2.3474 6.4144-3.7514v-6.803zm-72.266 6.4148v6.4148h6.4148v-6.4148zm6.5698 0v6.4148h6.4144v-6.4148zm6.5694 0v6.4148h6.4148v-6.4148zm6.5698 0v6.4148h6.4148v-6.4148zm6.5694 0v6.4148h6.4152v-6.4148zm6.5702 0v6.4148h6.4144v-6.4148zm6.5694 0v6.4148h6.4148v-6.4148zm6.5698 0v6.4148h6.4148v-6.4148zm6.5694 0v6.4148h6.4152v-6.4148zm26.279 0v0.2795c0.13131-0.093 0.26261-0.1854 0.39268-0.2795zm-87.436 6.5698c0.61419 0.2655 1.2391 0.5192 1.8757 0.7597v-0.7597zm2.0307 0v0.8165c2.043 0.7637 4.1935 1.404 6.4148 1.9394v-2.7559zm6.5698 0v2.7923c2.0879 0.4979 4.2364 0.9045 6.4148 1.2353v-4.0276zm6.5698 0v4.0516c2.1205 0.3183 4.2682 0.5617 6.4144 0.7526v-4.8042zm6.5694 0v4.8185c2.1506 0.1886 4.2979 0.3232 6.4148 0.4145v-5.233zm6.5698 0v5.2401c2.1843 0.092 4.3311 0.1402 6.4148 0.1618v-5.4019zm6.5694 0v5.403c1.6936 0.017 3.347 0.017 4.9344 0.01 0.49005 0 0.98516-0.011 1.4808-0.018v-5.3914zm6.5702 0v5.3895c2.0978-0.035 4.2424-0.1141 6.4144-0.2453v-5.1442zm6.5694 0v5.1341c2.1196-0.1304 4.2636-0.3127 6.4148-0.553v-4.5811zm6.5698 0v4.5639c2.1388-0.2417 4.2828-0.5391 6.4148-0.9073v-3.6566zm6.5694 0v3.6299c2.1583-0.376 4.3029-0.8215 6.4152-1.3457v-2.2842zm6.5698 0v2.2451c2.1806-0.5456 4.3261-1.1742 6.4148-1.898v-0.3471zm6.5698 0v0.2922c0.27461-0.096 0.54843-0.193 0.82108-0.2922z" fill="none" stroke="#1ac584" stroke-linecap="round" stroke-linejoin="round" stroke-width="1.3229"/>
  <g fill-rule="evenodd">
   <path d="m143.36 148.44s4.2606-11.145 7.9782-15.681c2.8144-3.4338 6.4238-6.3909 10.454-8.2532 3.8202-1.7652 8.7178-4.5494 12.38-2.476 1.1863 0.6717 3.0262 3.0262 1.3756 3.8515-1.6507 0.8254-7.9109 2.4754-11.555 4.4018-3.261 1.724-6.4391 3.7507-9.0786 6.3274-3.6618 3.5748-8.5865 11.396-9.0786 12.38-1.1004 2.2009-1.3755-1.1005-2.4759-0.5502z" fill="#6f49ae"/>
   <path d="m147.76 147.89s5.2221-8.3775 9.0786-11.279c4.9263-3.7069 10.933-6.4394 17.057-7.1527 1.1081-0.1291 3.3012-1.1005 3.3012 0.5502 0 1.6506-1.9564 3.7184-3.5764 4.9519-3.3474 2.5488-8.2708 2.1576-11.83 4.4017-3.3463 2.1101-5.9666 5.2388-8.5284 8.2533-2.6028 3.0627-6.8777 9.9038-6.8777 9.9038s-3.5764-2.751-3.8515-3.8514c-0.27513-1.1005 5.2271-5.7774 5.2271-5.7774z" fill="#77698e"/>
   <path d="m144.19 155.31s6.5746-10.235 11.004-14.306c2.2475-2.0655 4.8214-3.9452 7.7031-4.952 3.437-1.2009 10.561-4.2154 10.867-1.1004 0.16886 1.721-7.9753 1.8316-10.592 3.8515-4.1075 3.171-7.3544 7.3377-10.729 11.28-1.9563 2.285-4.4018 7.1528-5.5022 7.1528s-2.751-1.9258-2.751-1.9258z" fill="#5e5370"/>
   <path d="m144.19 147.75s5.9148-10.768 10.454-14.718c3.0011-2.6119 6.7956-4.3113 10.592-5.5022 2.3822-0.7474 7.4279-0.9629 7.4279-0.9629s-11.065 4.0449-15.544 7.7031c-4.8585 3.9686-10.867 14.03-11.555 14.856-0.68781 0.8254-1.3756-1.3755-1.3756-1.3755z" fill="#603f96"/>
   <path d="m48.173 145.41s-3.2082-23.648-4.6768-35.489c-0.48861-3.9396-2.286-8.5214-1.3756-11.83 0.46298-1.6823 4.5998-1.9032 5.2271-0.2751 1.8124 4.7046 2.006 13.023 3.0262 19.533 1.1789 7.5217 3.5764 21.458 3.5764 22.559 0 1.1004-4.952 5.7772-4.952 5.7772z" fill="#379e4a"/>
   <path d="m42.946 106.07s5.5022 16.782 5.5022 20.083c0 3.3014 3.3013 16.506 3.3013 16.506l-3.3013 2.7511z" fill="#21602c"/>
  </g>
  <g fill="none">
   <path d="m48.173 145.41s-3.2082-23.648-4.6768-35.489c-0.48861-3.9396-2.286-8.5214-1.3756-11.83 0.46298-1.6823 4.5998-1.9032 5.2271-0.2751 1.8124 4.7046 2.006 13.023 3.0262 19.533 1.1789 7.5217 3.5764 21.458 3.5764 22.559 0 1.1004-4.952 5.7772-4.952 5.7772z"/>
   <path d="m143.36 148.44s4.2606-11.145 7.9782-15.681c2.8144-3.4338 6.4238-6.3909 10.454-8.2532 3.8202-1.7652 8.7178-4.5494 12.38-2.476 1.1863 0.6717 3.0262 3.0262 1.3756 3.8515-1.6507 0.8254-7.9109 2.4754-11.555 4.4018-3.261 1.724-6.4391 3.7507-9.0786 6.3274-3.6618 3.5748-8.5865 11.396-9.0786 12.38-1.1004 2.2009-1.3755-1.1005-2.4759-0.5502z"/>
   <path d="m147.76 147.89s5.2221-8.3775 9.0786-11.279c4.9263-3.7069 10.933-6.4394 17.057-7.1527 1.1081-0.1291 3.3012-1.1005 3.3012 0.5502 0 1.6506-1.9564 3.7184-3.5764 4.9519-3.3474 2.5488-8.2708 2.1576-11.83 4.4017-3.3463 2.1101-5.9666 5.2388-8.5284 8.2533-2.6028 3.0627-6.8777 9.9038-6.8777 9.9038s-3.5764-2.751-3.8515-3.8514c-0.27513-1.1005 5.2271-5.7774 5.2271-5.7774z"/>
  </g>
  <path d="m60.257 158.27s-15.868 6.5817-14.215 11.432c1.6529 4.8497 74.05 3.8104 80.331 1.3856 6.281-2.4248 24.463-18.013 24.463-18.013l-75.703 2.7714z" fill="#0e3e61" fill-opacity=".50629" fill-rule="evenodd" opacity=".506"/>
  <g fill-rule="evenodd">
   <rect x="56.756" y="100.62" width="90.786" height="58.873" rx="4.9519" ry="4.9519" fill="#e1e1e1"/>
   <ellipse transform="rotate(-80.621)" cx="-95.028" cy="71.552" rx=".9633" ry="2.3119" fill="#ad98d4"/>
   <ellipse transform="rotate(-59.95)" cx="-60.201" cy="99.32" rx="1.0568" ry="2.5363" fill="#d1c5e7"/>
   <ellipse transform="rotate(-70.305)" cx="-81.744" cy="87.568" rx=".9633" ry="2.3119" fill="#9980ca"/>
   <ellipse transform="rotate(-38.142)" cx="-15.31" cy="114.29" rx=".88809" ry="2.1314" fill="#d1c5e7"/>
   <ellipse transform="rotate(-49.634)" cx="-42.61" cy="108.67" rx="1.0568" ry="2.5363" fill="#b39fd7"/>
   <rect transform="rotate(9.8196)" x="71.697" y="92.892" width="4.0648" height="4.0648" rx="1.0746" ry="1.0746" fill="#ad98d4"/>
   <ellipse transform="rotate(-27.826)" cx="4.4223" cy="115.33" rx=".88809" ry="2.1314" fill="#a38bcf"/>
   <rect transform="rotate(30.49)" x="99.14" y="57.698" width="4.4593" height="4.4593" rx="1.1789" ry="1.1789" fill="#a28ace"/>
   <rect transform="rotate(52.299)" x="113.87" y="12.971" width="3.7475" height="3.7475" rx=".99071" ry=".99071" fill="url(#linearGradient5394-3)"/>
   <path d="m86.587 100.62h-24.878c-2.7434 0-4.9521 2.2086-4.9521 4.952v48.969c0 2.7434 2.2087 4.952 4.9521 4.952h24.878z" fill="#636363"/>
  </g>
  <path d="m86.587 100.62h-24.878c-2.7434 0-4.9521 2.2086-4.9521 4.952v48.969c0 2.7434 2.2087 4.952 4.9521 4.952h24.878z" fill="none"/>
  <g fill-rule="evenodd">
   <path d="m42.003 152.99s-3.2722-11.195-11.309-19.502c-3.2064-3.314-10.686-8.1815-10.316-9.2171s1.9995-3.3284 2.9241-2.7728c0.92447 0.5553 6.8351 5.4741 9.7243 8.7359 3.5749 4.0358 6.9158 8.4024 9.2778 13.249 1.2937 2.6545 2.5848 8.473 2.5848 8.473s1.5889 3.2194-2.886 1.0343z" fill="#2c7e3b"/>
   <path d="m56.943 128.92-1.4697-0.084-1.8557-0.3496-12.303 24.416 8.9803 4.4897 13.859-27.723-3.1626-0.355-4.238 4.6147 0.18913-5.0085m4.0488 0.3938 0.0145-0.016-0.0145 0.016z" fill="#9a7336"/>
   <path d="m42.183 148.78s-0.5941-14.864-7.9758-27.623c-2.945-5.0906-10.699-13.423-9.9211-14.59 0.77815-1.1672 3.5016-3.5016 4.4742-2.5289 0.97264 0.9726 6.7688 8.8837 9.3375 13.812 3.1782 6.0976 5.9649 12.532 7.3922 19.258 0.78169 3.684 0.58359 11.283 0.58359 11.283s0.97265 4.4742-3.8906 0.389z" fill="#3aa54d"/>
   <path d="m41.067 152.33s-7.1674-8.337-10.925-12.347c-1.129-1.2046-3.7447-1.8844-3.4891-3.5156 0.12394-0.7909 1.4119-1.4548 2.1322-1.1055 2.65 1.285 6.0951 5.0391 8.7703 7.935 2.1612 2.3395 5.4802 6.2399 5.8298 7.5702 0.34965 1.3304-2.3179 1.4626-2.3179 1.4626z" fill="#2c7e3b"/>
   <path d="m26.888 137.5s1.1542-0.5752 1.7375-0.4444c1.5869 0.3559 2.5968 1.9728 3.7578 3.1116 3.5816 3.513 9.726 10.863 9.8211 11.405 0.0951 0.5419-1.4666 0.3969-1.4666 0.3969s-10.482-11.987-11.007-12.593c-0.52527-0.6061-2.8427-1.8755-2.8427-1.8755z" fill="#21602c"/>
  </g>
  <path d="m41.067 152.33s-7.1674-8.337-10.925-12.347c-1.129-1.2046-3.7447-1.8844-3.4891-3.5156 0.12394-0.7909 1.4119-1.4548 2.1322-1.1055 2.65 1.285 6.0951 5.0391 8.7703 7.935 2.1612 2.3395 5.4802 6.2399 5.8298 7.5702 0.34965 1.3304-2.3179 1.4626-2.3179 1.4626z" fill="none"/>
  <path d="m20.59 124.36c1.3328-1.7408 4.1771 1.4549 6.0305 2.6262 2.2534 1.4242 4.2777 3.2439 6.0304 5.2524 3.2637 3.74 6.3329 7.8387 8.1703 12.45 0.95105 2.3869 1.3617 7.5867 1.3617 7.5867 0.10376 0.026-4.9248-10.954-9.2402-16.438-3.8505-4.8934-8.7701-6.9916-11.964-10.991-0.27142-0.3399-0.51525-0.3215-0.38905-0.4864z" fill="#21602c" fill-rule="evenodd"/>
  <path d="m42.003 152.99s-3.2722-11.195-11.309-19.502c-3.2064-3.314-10.686-8.1815-10.316-9.2171s1.9995-3.3284 2.9241-2.7728c0.92447 0.5553 6.8351 5.4741 9.7243 8.7359 3.5749 4.0358 6.9158 8.4024 9.2778 13.249 1.2937 2.6545 2.5848 8.473 2.5848 8.473s1.5889 3.2194-2.886 1.0343z" fill="none"/>
  <path d="m26.037 109.09s10.126 12.388 13.228 19.648c3.1036 7.2631 6.0304 22.177 5.0578 23.149-0.97266 0.9727-2.3344 0.7781-2.3344 0.7781s-0.19453-11.088-4.2797-19.648c-4.0852-8.5593-14.979-21.009-13.812-22.566 1.1672-1.5562 2.1398-1.3617 2.1398-1.3617z" fill="#21602c" fill-rule="evenodd"/>
  <path d="m42.183 152.67s-0.5941-14.864-7.9758-27.623c-2.945-5.0906-10.699-13.423-9.9211-14.59 0.77815-1.1671 3.5016-3.5016 4.4742-2.5289 0.97264 0.9727 6.7688 8.8837 9.3375 13.812 3.1782 6.0976 5.9649 12.532 7.3922 19.259 0.78169 3.684 0.58359 11.283 0.58359 11.283s0.97265 4.4742-3.8906 0.389z" fill="none"/>
  <path d="m27.131 159.93 31.993-15.757 10.357 7.8351-37.246 18.286z" fill="#9a7336" fill-rule="evenodd"/>
  <path d="m51.423 133.02-2.3344 11.769 8.7539-3.1125-1.6535 3.8906-15.076 7.4894z" fill="#7e5e2c" fill-rule="evenodd"/>
  <path d="m34.078 157.31s11.359 6.0136 18.575 1.7373c7.2163-4.2763 4.6772-13.364 4.6772-13.364" fill="none"/>
  <g fill="#7e5e2c" fill-rule="evenodd">
   <path d="m28.566 162.59s11.283 3.7933 23.927-2.2371l-20.426 10.018z"/>
   <circle cx="49.964" cy="154.61" r="3.0248"/>
   <circle cx="49.429" cy="154.27" r="1.4724"/>
  </g>
  <g fill-rule="evenodd">
   <rect x="136.27" y="151.98" width="12.573" height="9.9263" rx="2.9779" ry="2.9779" fill="#5d526f"/>
   <path d="m142.5 154.18s3.2005-0.5126 4.1647 0.4999c0.61539 0.6463 0.18879 2.6705 0.18879 2.6705" fill="#77698e"/>
   <ellipse transform="rotate(-53.281)" cx="-46.863" cy="106.26" rx=".75099" ry="1.8024" fill="#d1c5e7"/>
   <ellipse transform="rotate(-42.965)" cx="-27.906" cy="113.06" rx=".75099" ry="1.8024" fill="#b09bd6"/>
   <rect transform="rotate(-45.587)" x="-34.031" y="111.62" width="2.9546" height="1.8802" rx=".66948" ry=".66245" fill="#d1c5e7"/>
   <ellipse transform="rotate(-75.242)" cx="-86.133" cy="80.256" rx=".75099" ry="1.8024" fill="#d1c5e7"/>
   <ellipse transform="rotate(-64.926)" cx="-71.199" cy="94.505" rx=".75099" ry="1.8024" fill="#b8a6da"/>
   <rect transform="rotate(-67.548)" x="-76.429" y="91.102" width="2.9546" height="1.8802" rx=".66948" ry=".66245" fill="#ac96d4"/>
   <ellipse transform="rotate(-19.272)" cx="19.985" cy="115.9" rx="1.2472" ry="1.1022" fill="#d1c5e7"/>
  </g>
  <g transform="matrix(2.5335 0 0 2.5335 -411.86 -3121.4)" fill-rule="evenodd">
   <rect x="218.15" y="1276.2" width="4.9911" height="4.9911" rx="1.3195" ry="1.3195" fill="#2769df" fill-opacity=".13107"/>
   <rect x="221.37" y="1276.9" width=".89041" height=".89041" rx=".2354" ry=".2354" fill="#fff" fill-opacity=".43689"/>
  </g>
  <path d="m90.851 153.6c-2.94-2.7917-9.7553-1.9866-11.359 0.1337 0 0-2.8063 0.8018-3.0736 1.8709-0.26727 1.069 2.4054 0.9354 2.4054 0.9354l-0.13363 2.2718s-4.6772-0.1336-7.8845 1.47c-3.2072 1.6036-4.8108 7.4835-3.4745 8.5526s11.493 0.2673 18.174-0.2672c6.6817-0.5346 5.6127-6.9491 5.6127-6.9491l-0.40091-5.2117s3.6081 0.1336 3.3409-0.9355c-0.26727-1.069-3.2072-1.8709-3.2072-1.8709z" fill="#488ded" fill-rule="evenodd"/>
  <path d="m81.764 160.55c2.5384-0.4895 4.0981-3.0589 4.8108-1.0692 0.78835 2.2007 1.0628 6.4955-0.93544 8.5527-1.1281 1.1613-2.1868 0.094-4.8109 0.6682-2.3455 0.5127-6.1466 0.8613-8.8554 0.4568-1.7375-0.2595-6.732 1.274-3.8399-2.8622 0.80181-2.0046 2.7301-3.1198 4.5436-4.0091 2.7689-1.3579 6.9537-1.2759 9.0872-1.7372z" fill="#166ce4" fill-rule="evenodd"/>
  <path d="m90.851 153.6c-2.94-2.7917-9.7553-1.9866-11.359 0.1337 0 0-2.8063 0.8018-3.0736 1.8709-0.26727 1.069 2.4054 0.9354 2.4054 0.9354l-0.13363 2.2718s-4.6772-0.1336-7.8845 1.47c-3.2072 1.6036-4.8108 7.4835-3.4745 8.5526s11.493 0.2673 18.174-0.2672c6.6817-0.5346 5.6127-6.9491 5.6127-6.9491l-0.40091-5.2117s3.6081 0.1336 3.3409-0.9355c-0.26727-1.069-3.2072-1.8709-3.2072-1.8709z" fill="none"/>
  <g transform="matrix(1.7569 0 0 1.7569 -252.59 -2118.9)" fill-rule="evenodd">
   <rect x="218.15" y="1276.2" width="4.9911" height="4.9911" rx="1.3195" ry="1.3195" fill="#2769df" fill-opacity=".13107"/>
   <rect x="221.37" y="1276.9" width=".89041" height=".89041" rx=".2354" ry=".2354" fill="#fff" fill-opacity=".43689"/>
  </g>
  <g transform="matrix(1.3945 0 0 1.3945 -162.56 -1648.5)" fill-rule="evenodd">
   <rect x="218.15" y="1276.2" width="4.9911" height="4.9911" rx="1.3195" ry="1.3195" fill="#2769df" fill-opacity=".13107"/>
   <rect x="221.37" y="1276.9" width=".89041" height=".89041" rx=".2354" ry=".2354" fill="#fff" fill-opacity=".43689"/>
  </g>
  <rect x="130.12" y="156.13" width="8.1322" height="7.2705" rx="1.926" ry="2.1811" fill="#50465f" fill-rule="evenodd"/>
  <g transform="matrix(-2.5335 0 0 2.5335 622.98 -3159.5)" fill-rule="evenodd">
   <rect x="218.15" y="1276.2" width="4.9911" height="4.9911" rx="1.3195" ry="1.3195" fill="#2769df" fill-opacity=".13107"/>
   <rect x="221.37" y="1276.9" width=".89041" height=".89041" rx=".2354" ry=".2354" fill="#fff" fill-opacity=".43689"/>
  </g>
  <g transform="matrix(-1.7569 0 0 1.7569 463.71 -2157)" fill-rule="evenodd">
   <rect x="218.15" y="1276.2" width="4.9911" height="4.9911" rx="1.3195" ry="1.3195" fill="#2769df" fill-opacity=".13107"/>
   <rect x="221.37" y="1276.9" width=".89041" height=".89041" rx=".2354" ry=".2354" fill="#fff" fill-opacity=".43689"/>
  </g>
  <g transform="matrix(-1.3945 0 0 1.3945 373.67 -1686.7)" fill-rule="evenodd">
   <rect x="218.15" y="1276.2" width="4.9911" height="4.9911" rx="1.3195" ry="1.3195" fill="#2769df" fill-opacity=".13107"/>
   <rect x="221.37" y="1276.9" width=".89041" height=".89041" rx=".2354" ry=".2354" fill="#fff" fill-opacity=".43689"/>
  </g>
  <path d="m61.708 100.62c-2.7434 0-4.9516 2.2088-4.9516 4.9522v0.81235h90.786v-0.81235c0-2.7434-2.2088-4.9522-4.9522-4.9522z" fill="#d9d9d9" fill-rule="evenodd" stroke="#d9d9d9" stroke-linecap="round" stroke-linejoin="round" stroke-width=".26458"/>
  <g fill="#0e3e61" fill-opacity=".50629" fill-rule="evenodd">
   <circle cx="62.522" cy="103.65" r="1.2333"/>
   <circle cx="65.857" cy="103.65" r="1.2333"/>
   <circle cx="69.328" cy="103.65" r="1.2333"/>
  </g>
  <rect x="52.636" y="155.45" width="8.9309" height="7.9846" rx="2.1152" ry="2.3954" fill="#50465f" fill-rule="evenodd"/>
  <rect x="49.359" y="159.45" width="5.8796" height="5.2566" rx="1.3925" ry="1.577" fill="#50465f" fill-rule="evenodd"/>
 </g>
</svg>
