<?xml version="1.0" encoding="UTF-8" standalone="no"?>
<!-- Created with Inkscape (http://www.inkscape.org/) -->

<svg
   xmlns:dc="http://purl.org/dc/elements/1.1/"
   xmlns:cc="http://creativecommons.org/ns#"
   xmlns:rdf="http://www.w3.org/1999/02/22-rdf-syntax-ns#"
   xmlns:svg="http://www.w3.org/2000/svg"
   xmlns="http://www.w3.org/2000/svg"
   xmlns:sodipodi="http://sodipodi.sourceforge.net/DTD/sodipodi-0.dtd"
   xmlns:inkscape="http://www.inkscape.org/namespaces/inkscape"
   width="135.46684mm"
   height="135.46666mm"
   viewBox="0 0 135.46684 135.46666"
   version="1.1"
   id="svg8"
   inkscape:version="0.92.5 (0.92.5+68)"
   sodipodi:docname="hosting_cost.svg">
  <defs
     id="defs2" />
  <sodipodi:namedview
     id="base"
     pagecolor="#ffffff"
     bordercolor="#666666"
     borderopacity="1.0"
     inkscape:pageopacity="0.0"
     inkscape:pageshadow="2"
     inkscape:zoom="0.35913444"
     inkscape:cx="322.16407"
     inkscape:cy="430.80517"
     inkscape:document-units="mm"
     inkscape:current-layer="layer1"
     showgrid="false"
     fit-margin-top="0"
     fit-margin-left="0"
     fit-margin-right="0"
     fit-margin-bottom="0"
     inkscape:window-width="1375"
     inkscape:window-height="786"
     inkscape:window-x="65"
     inkscape:window-y="24"
     inkscape:window-maximized="1" />
  <metadata
     id="metadata5">
    <rdf:RDF>
      <cc:Work
         rdf:about="">
        <dc:format>image/svg+xml</dc:format>
        <dc:type
           rdf:resource="http://purl.org/dc/dcmitype/StillImage" />
        <dc:title></dc:title>
      </cc:Work>
    </rdf:RDF>
  </metadata>
  <g
     inkscape:label="Layer 1"
     inkscape:groupmode="layer"
     id="layer1"
     transform="translate(-10.4048,-14.660933)">
    <g
       id="g1208"
       inkscape:export-filename="/home/jimafisk/Downloads/hosting_cost.png"
       inkscape:export-xdpi="96"
       inkscape:export-ydpi="96">
      <g
         transform="matrix(0.26458333,0,0,0.26458333,10.404765,14.660933)"
         id="g1036"
         style="fill:#43809f">
        <path
           id="path1032"
           d="m 180.797,257.856 c -4.142,0 -7.5,3.358 -7.5,7.5 v 85.336 c 0,4.142 3.358,7.5 7.5,7.5 4.142,0 7.5,-3.358 7.5,-7.5 v -85.336 c 0,-4.142 -3.358,-7.5 -7.5,-7.5 z"
           inkscape:connector-curvature="0" />
        <path
           id="path1034"
           d="m 331.203,257.856 c -4.142,0 -7.5,3.358 -7.5,7.5 v 85.336 c 0,4.142 3.358,7.5 7.5,7.5 4.142,0 7.5,-3.358 7.5,-7.5 v -85.336 c 0,-4.142 -3.358,-7.5 -7.5,-7.5 z"
           inkscape:connector-curvature="0" />
      </g>
      <path
         id="path1038"
         d="m 122.35606,41.647903 c -4.33282,0.06377 -8.37724,1.316832 -11.82185,3.447257 -0.35163,0.217487 -0.80883,-0.0172 -0.82947,-0.430213 C 108.86416,27.95307 95.049206,14.660933 78.128572,14.660933 c -16.916928,0 -30.729237,13.286052 -31.575374,29.992637 -0.0209,0.41275 -0.477573,0.647171 -0.829204,0.430213 C 42.279648,42.95812 38.236815,41.708758 33.906644,41.647639 21.271467,41.46931 10.708771,51.621901 10.41138,64.254697 10.104198,77.305799 20.591752,87.981736 33.573269,87.981736 h 89.129921 c 12.98125,0 23.46881,-10.675937 23.16189,-23.726774 -0.29766,-12.638088 -10.86882,-22.792796 -23.50902,-22.607059 z"
         inkscape:connector-curvature="0"
         style="fill:#f3f3f3;stroke-width:0.26458332" />
      <g
         transform="matrix(0.26458333,0,0,0.26458333,10.404765,14.660933)"
         id="g1044"
         style="fill:#e4e4e4">
        <path
           id="path1040"
           d="m 240.511,0.996 c 49.003,6.328 88.7,42.336 100.476,89.412 3.426,13.696 15.524,23.706 29.64,23.506 1.56,-0.022 3.123,-0.168 4.679,-0.513 C 372.13,50.238 319.916,0 255.964,0 250.727,0 245.57,0.343 240.511,0.996 Z"
           inkscape:connector-curvature="0" />
        <path
           id="path1042"
           d="m 511.975,187.443 c -1.124,-47.767 -41.078,-86.147 -88.852,-85.445 -4.852,0.071 -9.605,0.547 -14.236,1.377 40.061,7.207 71.193,41.987 72.183,84.068 1.16,49.326 -38.478,89.676 -87.541,89.676 h 30.905 c 49.063,0 88.702,-40.35 87.541,-89.676 z"
           inkscape:connector-curvature="0" />
      </g>
      <path
         id="path1046"
         d="M 115.96531,121.22716 H 40.392904 l 4.690798,-14.09726 c 0.556154,-1.66529 2.158735,-2.79374 3.96584,-2.79374 h 58.329778 c 1.8071,0 3.40995,1.12845 3.96584,2.79374 z"
         inkscape:connector-curvature="0"
         style="fill:#29cef6;stroke-width:0.26458332" />
      <path
         id="path1048"
         d="m 111.26896,107.1299 c -0.55616,-1.66529 -2.15874,-2.79374 -3.96584,-2.79374 h -8.17695 c 1.8071,0 3.40995,1.12845 3.96584,2.79374 l 4.62015,14.09726 h 8.17695 z"
         inkscape:connector-curvature="0"
         style="fill:#22b5ed;stroke-width:0.26458332" />
      <path
         id="path1050"
         d="M 110.30111,150.1276 H 45.975083 c -3.311789,0 -5.996516,-2.68473 -5.996516,-5.99652 v -20.71529 c 0,-3.31179 2.684727,-5.99651 5.996516,-5.99651 h 64.326297 c 3.31179,0 5.99651,2.68472 5.99651,5.99651 v 20.71529 c -2.6e-4,3.31179 -2.68499,5.99652 -5.99678,5.99652 z"
         inkscape:connector-curvature="0"
         style="fill:#a9dbf5;stroke-width:0.26458332" />
      <path
         id="path1052"
         d="m 110.30111,117.41928 h -8.17695 c 3.31179,0 5.99652,2.68472 5.99652,5.99651 v 20.71529 c 0,3.31179 -2.68473,5.99652 -5.99652,5.99652 h 8.17695 c 3.31179,0 5.99652,-2.68473 5.99652,-5.99652 v -20.71529 c 0,-3.31179 -2.68473,-5.99651 -5.99652,-5.99651 z"
         inkscape:connector-curvature="0"
         style="fill:#88c3e0;stroke-width:0.26458332" />
      <path
         id="path1054"
         d="m 48.155515,140.8603 v -14.17346 c 0,-0.60219 0.488156,-1.09035 1.090347,-1.09035 h 57.784468 c 0.60219,0 1.09035,0.48816 1.09035,1.09035 v 14.17346 c 0,0.60219 -0.48816,1.09035 -1.09035,1.09035 H 49.245862 c -0.602191,0 -1.090347,-0.48816 -1.090347,-1.09035 z"
         inkscape:connector-curvature="0"
         style="fill:#43809f;stroke-width:0.26458332" />
      <path
         id="path1056"
         d="m 60.691737,134.31848 c -2.257954,0 -4.088606,-1.83039 -4.088606,-4.08861 v -4.63364 h 8.176948 v 4.63364 c 2.64e-4,2.25822 -1.830123,4.08861 -4.088342,4.08861 z"
         inkscape:connector-curvature="0"
         style="fill:#f78e36;stroke-width:0.26458332" />
      <path
         id="path1058"
         d="m 74.322012,134.31848 c -2.257954,0 -4.088606,-1.83039 -4.088606,-4.08861 v -4.63364 h 8.176948 v 4.63364 c 2.64e-4,2.25822 -1.830123,4.08861 -4.088342,4.08861 z"
         inkscape:connector-curvature="0"
         style="fill:#f78e36;stroke-width:0.26458332" />
      <path
         id="path1060"
         d="m 51.34586,50.091551 c 1.982788,2.735527 6.825986,9.939073 7.52475,15.921038 0.07117,0.610393 0.919692,0.705908 1.132417,0.129381 1.028171,-2.78474 2.100262,-7.250906 0.101864,-10.538354 -2.757487,-4.536017 -6.22882,-5.973233 -8.151812,-6.428581 -0.528902,-0.125148 -0.926042,0.476514 -0.607219,0.916516 z"
         inkscape:connector-curvature="0"
         style="fill:#e4e4e4;stroke-width:0.26458332" />
      <path
         id="path1124"
         d="M 82.810047,53.547521 C 82.369323,53.3919 81.919584,53.22997 81.47014,53.062631 v -7.814135 c 0.742351,0.254763 1.25369,0.602058 1.485316,0.781414 0.9833,0.762185 2.398921,0.583131 3.161404,-0.39957 0.762484,-0.9824 0.583431,-2.396815 -0.399869,-3.1587 -0.574119,-0.444935 -2.074753,-1.456777 -4.247158,-1.862655 v -1.416518 c 0,-1.243473 -1.008837,-2.251409 -2.253205,-2.251409 -1.244368,0 -2.253216,1.007936 -2.253216,2.251409 v 1.576345 c -0.175443,0.04416 -0.352396,0.09133 -0.531755,0.145408 -2.773254,0.83489 -4.844703,3.201362 -5.405901,6.176802 -0.51403,2.726685 0.369223,5.362641 2.305187,6.880104 0.938233,0.735147 2.086472,1.409307 3.632173,2.112309 v 10.246401 c -1.159048,-0.143605 -2.009861,-0.507123 -3.354878,-1.386476 -1.041288,-0.680469 -2.437674,-0.389054 -3.119051,0.651328 -0.681365,1.040683 -0.389355,2.436172 0.651934,3.116641 2.276039,1.48772 3.87102,1.991839 5.821995,2.146258 v 1.588965 c 0,1.243471 1.008837,2.251408 2.253205,2.251408 1.24438,0 2.253217,-1.007937 2.253217,-2.251408 v -1.799264 c 3.951525,-0.958666 6.486238,-4.311744 7.042337,-7.618556 0.721028,-4.282002 -1.517462,-8.003404 -5.701828,-9.481211 z m -6.697141,-3.119945 c -0.598158,-0.468668 -0.856524,-1.451068 -0.657941,-2.502866 0.154425,-0.819268 0.6291,-1.77493 1.508753,-2.34304 v 5.428136 c -0.310042,-0.189871 -0.597556,-0.383647 -0.850812,-0.58223 z m 7.955635,11.853991 c -0.231933,1.379266 -1.113982,2.833938 -2.598401,3.595824 v -8.022632 c 2.907841,1.121197 2.726982,3.662819 2.598401,4.426808 z"
         inkscape:connector-curvature="0"
         style="fill:#ffc328;stroke-width:0.30042809" />
    </g>
  </g>
</svg>
