<?xml version="1.0" encoding="UTF-8"?>
<svg width="2e3" height="1e3" version="1.1" viewBox="0 0 529.17 264.58" xmlns="http://www.w3.org/2000/svg" xmlns:cc="http://creativecommons.org/ns#" xmlns:dc="http://purl.org/dc/elements/1.1/" xmlns:rdf="http://www.w3.org/1999/02/22-rdf-syntax-ns#">
 <metadata>
  <rdf:RDF>
   <cc:Work rdf:about="">
    <dc:format>image/svg+xml</dc:format>
    <dc:type rdf:resource="http://purl.org/dc/dcmitype/StillImage"/>
    <dc:title/>
   </cc:Work>
  </rdf:RDF>
 </metadata>
 <g fill-rule="evenodd">
  <path d="m84.358 9.2145c-0.01561 7.8e-5 -0.03126 3.89e-4 -0.04684 5.98e-4 -10.557 0.82056-15.782 4.4812-15.782 4.4812s-1.6141 0.26342 0.20601 3.5357c1.6603 2.9445-25.258 21.608-30.599 50.421-0.90883 4.9024-1.2521 7.6451 0.04295 8.7947l0.0184-0.0268c1.5396 0.76346 3.9715-0.54059 8.193-3.1316 24.975-15.329 32.732-47.152 36.077-46.659 3.7076 0.52416 3.3737-1.0769 3.3737-1.0769s1.5411-6.1911-1.4827-16.339z" fill="#22a6ed" fill-opacity=".2413"/>
  <path d="m109.98 69.49c-0.0156 7.8e-5 -0.0313 3.89e-4 -0.0468 5.98e-4 -10.557 0.82056-15.782 4.4812-15.782 4.4812s-1.6141 0.26342 0.20601 3.5357c1.6603 2.9445-25.258 21.608-30.599 50.421-0.90883 4.9024-1.2521 7.6451 0.04295 8.7948l0.0184-0.0268c1.5396 0.76346 3.9715-0.54059 8.193-3.1316 24.975-15.328 32.732-47.152 36.077-46.659 3.7076 0.52416 3.3737-1.0769 3.3737-1.0769s1.5411-6.1911-1.4827-16.339z" fill="#fe8e30" fill-opacity=".24314"/>
  <path d="m186.84 9.2145c-0.0156 7.8e-5 -0.0313 3.89e-4 -0.0468 5.98e-4 -10.557 0.82056-15.782 4.4812-15.782 4.4812s-1.6141 0.26342 0.20602 3.5357c1.6603 2.9445-25.258 21.608-30.599 50.421-0.90883 4.9024-1.2521 7.6451 0.0429 8.7948l0.0184-0.0268c1.5396 0.76346 3.9715-0.54059 8.193-3.1316 24.975-15.328 32.732-47.152 36.077-46.659 3.7076 0.52416 3.3737-1.0769 3.3737-1.0769s1.5411-6.1911-1.4827-16.339z" fill="#22a6ed" fill-opacity=".2413"/>
  <path d="m289.33 9.2145c-0.0156 8e-5 -0.0313 3.9e-4 -0.0468 6e-4 -10.557 0.82056-15.782 4.4812-15.782 4.4812s-1.6141 0.26341 0.20601 3.5357c1.6603 2.9445-25.258 21.608-30.599 50.421-0.90882 4.9024-1.2521 7.6451 0.043 8.7947l0.0184-0.0268c1.5396 0.76346 3.9715-0.54058 8.193-3.1316 24.975-15.328 32.732-47.152 36.077-46.659 3.7076 0.52416 3.3737-1.0769 3.3737-1.0769s1.5411-6.1911-1.4827-16.339z" fill="#fe8e30" fill-opacity=".24314"/>
  <g fill="#22a6ed" fill-opacity=".2413">
   <path d="m212.46 69.49c-0.0156 8e-5 -0.0313 3.9e-4 -0.0468 6e-4 -10.557 0.82056-15.782 4.4812-15.782 4.4812s-1.6141 0.26341 0.20602 3.5357c1.6603 2.9445-25.258 21.608-30.599 50.421-0.90883 4.9024-1.2521 7.6451 0.043 8.7948l0.0184-0.0268c1.5396 0.76346 3.9715-0.54059 8.193-3.1316 24.975-15.328 32.732-47.152 36.077-46.659 3.7076 0.52416 3.3737-1.0769 3.3737-1.0769s1.5411-6.1911-1.4827-16.339z"/>
   <path d="m314.95 69.49c-0.0156 7.8e-5 -0.0313 3.89e-4 -0.0468 5.98e-4 -10.557 0.82056-15.782 4.4812-15.782 4.4812s-1.6141 0.26342 0.20601 3.5357c1.6603 2.9445-25.258 21.608-30.599 50.421-0.90883 4.9024-1.2521 7.6451 0.043 8.7947l0.0184-0.0268c1.5396 0.76347 3.9715-0.54058 8.193-3.1316 24.975-15.328 32.732-47.152 36.077-46.659 3.7076 0.52416 3.3737-1.0769 3.3737-1.0769s1.5411-6.1911-1.4827-16.339z"/>
   <path d="m391.81 9.2145c-0.0156 8e-5 -0.0313 3.9e-4 -0.0468 6e-4 -10.557 0.82056-15.782 4.4812-15.782 4.4812s-1.6141 0.26342 0.20602 3.5357c1.6603 2.9445-25.258 21.608-30.599 50.421-0.90883 4.9024-1.2521 7.6451 0.043 8.7948l0.0184-0.0268c1.5396 0.76346 3.9715-0.54059 8.193-3.1316 24.975-15.328 32.732-47.152 36.077-46.659 3.7076 0.52416 3.3737-1.0769 3.3737-1.0769s1.5411-6.1911-1.4827-16.339z"/>
  </g>
  <path d="m417.43 69.49c-0.0156 8e-5 -0.0313 3.9e-4 -0.0468 6e-4 -10.557 0.82056-15.782 4.4812-15.782 4.4812s-1.6141 0.26342 0.20601 3.5357c1.6603 2.9445-25.258 21.608-30.599 50.421-0.90883 4.9024-1.2521 7.6451 0.043 8.7948l0.0184-0.0268c1.5396 0.76346 3.9715-0.54059 8.193-3.1316 24.975-15.329 32.732-47.152 36.077-46.659 3.7076 0.52416 3.3737-1.0769 3.3737-1.0769s1.5411-6.1911-1.4827-16.339z" fill="#fe8e30" fill-opacity=".24314"/>
  <path d="m494.3 9.2145c-0.0156 7.8e-5 -0.0313 3.89e-4 -0.0468 5.98e-4 -10.557 0.82056-15.782 4.4812-15.782 4.4812s-1.6141 0.26341 0.20601 3.5357c1.6603 2.9445-25.258 21.608-30.599 50.421-0.90883 4.9024-1.2521 7.6451 0.043 8.7948l0.0184-0.0268c1.5396 0.76346 3.9715-0.54059 8.193-3.1316 24.975-15.328 32.732-47.152 36.077-46.659 3.7076 0.52416 3.3737-1.0769 3.3737-1.0769s1.5411-6.1911-1.4827-16.339z" fill="#22a6ed" fill-opacity=".2413"/>
  <path d="m135.97 132.98c-0.0156 7e-5 -0.0313 3.8e-4 -0.0468 5.9e-4 -10.557 0.82056-15.782 4.4812-15.782 4.4812s-1.6141 0.26341 0.20602 3.5357c1.6603 2.9445-25.258 21.608-30.599 50.421-0.90883 4.9024-1.2521 7.6451 0.0429 8.7947l0.0184-0.0268c1.5396 0.76346 3.9715-0.54059 8.193-3.1316 24.975-15.328 32.732-47.152 36.077-46.659 3.7076 0.52417 3.3737-1.0769 3.3737-1.0769s1.5411-6.1911-1.4827-16.339z" fill="#22a6ed" fill-opacity=".2413"/>
  <path d="m238.46 132.98c-0.0156 8e-5 -0.0313 3.9e-4 -0.0468 6e-4 -10.557 0.82056-15.782 4.4812-15.782 4.4812s-1.6141 0.26341 0.20601 3.5357c1.6603 2.9445-25.258 21.608-30.599 50.421-0.90883 4.9024-1.2521 7.6451 0.043 8.7948l0.0184-0.0268c1.5396 0.76346 3.9715-0.54059 8.193-3.1316 24.975-15.328 32.732-47.152 36.077-46.659 3.7076 0.52416 3.3737-1.0769 3.3737-1.0769s1.5411-6.1911-1.4827-16.339z" fill="#fe8e30" fill-opacity=".24314"/>
  <g fill="#22a6ed" fill-opacity=".2413">
   <path d="m340.94 132.98c-0.0156 7e-5 -0.0313 3.8e-4 -0.0468 5.9e-4 -10.557 0.82056-15.782 4.4812-15.782 4.4812s-1.6141 0.26341 0.20602 3.5357c1.6603 2.9445-25.258 21.608-30.599 50.421-0.90883 4.9024-1.2521 7.6451 0.0429 8.7947l0.0184-0.0268c1.5396 0.76347 3.9715-0.54058 8.193-3.1316 24.975-15.328 32.732-47.152 36.077-46.659 3.7076 0.52417 3.3737-1.0769 3.3737-1.0769s1.5411-6.1911-1.4827-16.339z"/>
   <path d="m443.43 132.98c-0.0156 8e-5 -0.0313 3.9e-4 -0.0468 6e-4 -10.557 0.82056-15.782 4.4812-15.782 4.4812s-1.6141 0.26341 0.20601 3.5357c1.6603 2.9445-25.258 21.608-30.599 50.421-0.90883 4.9024-1.2521 7.6451 0.043 8.7947l0.0184-0.0268c1.5396 0.76346 3.9715-0.54058 8.193-3.1316 24.975-15.328 32.732-47.152 36.077-46.659 3.7076 0.52416 3.3737-1.0769 3.3737-1.0769s1.5411-6.1911-1.4827-16.339z"/>
   <path d="m519.92 69.49c-0.0156 8e-5 -0.0313 3.9e-4 -0.0468 6e-4 -10.557 0.82056-15.782 4.4812-15.782 4.4812s-1.6141 0.26341 0.20602 3.5357c1.6603 2.9445-25.258 21.608-30.599 50.421-0.90883 4.9024-1.2521 7.6451 0.043 8.7947l0.0184-0.0268c1.5396 0.76346 3.9715-0.54058 8.193-3.1316 24.975-15.328 32.732-47.152 36.077-46.659 3.7076 0.52416 3.3737-1.0769 3.3737-1.0769s1.5411-6.1911-1.4827-16.339z"/>
  </g>
  <path d="m58.737 194.07c-0.0156 8e-5 -0.0313 3.9e-4 -0.0468 6e-4 -10.557 0.82056-15.782 4.4812-15.782 4.4812s-1.6141 0.26342 0.20601 3.5357c1.6603 2.9445-25.258 21.608-30.599 50.421-0.90883 4.9024-1.2521 7.6451 0.043 8.7948l0.0184-0.0268c1.5396 0.76346 3.9715-0.54059 8.193-3.1316 24.975-15.329 32.732-47.152 36.077-46.659 3.7076 0.52416 3.3737-1.0769 3.3737-1.0769s1.5411-6.1911-1.4827-16.339z" fill="#fe8e30" fill-opacity=".24314"/>
  <g fill="#22a6ed" fill-opacity=".2413">
   <path d="m161.22 194.07c-0.0156 8e-5 -0.0313 3.9e-4 -0.0468 6e-4 -10.557 0.82056-15.782 4.4812-15.782 4.4812s-1.6141 0.26342 0.20601 3.5357c1.6603 2.9445-25.258 21.608-30.599 50.421-0.90882 4.9024-1.2521 7.6451 0.043 8.7948l0.0184-0.0268c1.5396 0.76346 3.9715-0.54059 8.193-3.1316 24.975-15.328 32.732-47.152 36.077-46.659 3.7076 0.52416 3.3737-1.0769 3.3737-1.0769s1.5411-6.1911-1.4827-16.339z"/>
   <path d="m263.71 194.07c-0.0156 8e-5 -0.0313 3.9e-4 -0.0468 6e-4 -10.557 0.82056-15.782 4.4812-15.782 4.4812s-1.6141 0.26342 0.20601 3.5357c1.6603 2.9445-25.258 21.608-30.599 50.421-0.90882 4.9024-1.2521 7.6451 0.0429 8.7948l0.0184-0.0268c1.5396 0.76346 3.9715-0.54059 8.193-3.1316 24.975-15.329 32.732-47.152 36.077-46.659 3.7076 0.52416 3.3737-1.0769 3.3737-1.0769s1.5411-6.1911-1.4827-16.339z"/>
   <path d="m366.19 194.07c-0.0156 8e-5 -0.0313 3.9e-4 -0.0468 6e-4 -10.557 0.82056-15.782 4.4812-15.782 4.4812s-1.6141 0.26341 0.20601 3.5357c1.6603 2.9445-25.258 21.608-30.599 50.421-0.90882 4.9024-1.2521 7.6451 0.043 8.7948l0.0184-0.0268c1.5396 0.76346 3.9715-0.54059 8.193-3.1316 24.975-15.328 32.732-47.152 36.077-46.659 3.7076 0.52416 3.3737-1.0769 3.3737-1.0769s1.5411-6.1911-1.4827-16.339z"/>
  </g>
  <path d="m468.68 194.07c-0.0156 7e-5 -0.0313 3.9e-4 -0.0468 5.9e-4 -10.557 0.82057-15.782 4.4812-15.782 4.4812s-1.6141 0.26341 0.20601 3.5357c1.6603 2.9445-25.258 21.608-30.599 50.421-0.90882 4.9024-1.2521 7.6451 0.043 8.7948l0.0184-0.0268c1.5396 0.76346 3.9715-0.54059 8.193-3.1316 24.975-15.328 32.732-47.152 36.077-46.659 3.7076 0.52416 3.3737-1.0769 3.3737-1.0769s1.5411-6.1911-1.4827-16.339z" fill="#fe8e30" fill-opacity=".24314"/>
  <path d="m37.734 132.98c-0.01561 8e-5 -0.0313 3.9e-4 -0.0468 6e-4 -10.557 0.82056-15.782 4.4812-15.782 4.4812s-1.6141 0.26342 0.20601 3.5357c1.6603 2.9445-25.258 21.608-30.599 50.421-0.90883 4.9024-1.2521 7.6451 0.043 8.7948l0.0184-0.0268c1.5396 0.76346 3.9715-0.54059 8.193-3.1316 24.975-15.329 32.732-47.152 36.077-46.659 3.7076 0.52416 3.3737-1.0769 3.3737-1.0769s1.5411-6.1911-1.4827-16.339z" fill="#22a6ed" fill-opacity=".2413"/>
  <path d="m545.35 132.98c-0.0156 8e-5 -0.0313 3.9e-4 -0.0468 6e-4 -10.557 0.82056-15.782 4.4812-15.782 4.4812s-1.6141 0.26342 0.20601 3.5357c1.6603 2.9445-25.258 21.608-30.599 50.421-0.90883 4.9024-1.2521 7.6451 0.043 8.7948l0.0184-0.0268c1.5396 0.76346 3.9715-0.54059 8.193-3.1316 24.975-15.329 32.732-47.152 36.077-46.659 3.7076 0.52416 3.3737-1.0769 3.3737-1.0769s1.5411-6.1911-1.4827-16.339z" fill="#22a6ed" fill-opacity=".2413"/>
 </g>
</svg>
