<?xml version="1.0" encoding="UTF-8"?>
<svg width="36.206mm" height="7.781mm" version="1.1" viewBox="0 0 36.206 7.781" xmlns="http://www.w3.org/2000/svg" xmlns:cc="http://creativecommons.org/ns#" xmlns:dc="http://purl.org/dc/elements/1.1/" xmlns:rdf="http://www.w3.org/1999/02/22-rdf-syntax-ns#">
 <metadata>
  <rdf:RDF>
   <cc:Work rdf:about="">
    <dc:format>image/svg+xml</dc:format>
    <dc:type rdf:resource="http://purl.org/dc/dcmitype/StillImage"/>
    <dc:title/>
   </cc:Work>
  </rdf:RDF>
 </metadata>
 <g transform="translate(-264.95 11.104)">
  <path d="m273.59-6.453-2e-3 1.6107c-7e-3 0.22466-0.12785 0.35734-0.35253 0.36241-0.25549 0-0.36051-0.14631-0.36051-0.36123v-4.6353c0-0.092936 0.0232-0.16264 0.0696-0.20911 0.0464-0.052254 0.11906-0.092936 0.2178-0.12198 0.16852-0.052248 0.37175-0.090037 0.6099-0.11327 0.24404-0.023229 0.47924-0.034889 0.70576-0.034889 0.7377 0 1.2751 0.15683 1.612 0.4705 0.34263 0.30786 0.51403 0.72609 0.51403 1.2547 0 0.54021-0.17425 0.97296-0.52275 1.2982-0.34852 0.31948-0.88589 0.47922-1.612 0.47922zm0.83646-0.59249c0.46468 0 0.82484-0.095841 1.0804-0.28753 0.25564-0.19168 0.38343-0.48792 0.38343-0.88872 0-0.39499-0.12489-0.68252-0.37466-0.86259-0.24395-0.18588-0.59546-0.27882-1.0543-0.27882-0.1568 0-0.31363 0.00874-0.47042 0.026165-0.15106 0.011654-0.2876 0.02902-0.40959 0.052251v2.2393z"/>
  <path d="m290.02-4.9895c0.13651 0 0.23267-0.00934 0.28845-0.027942 0.062-0.024852 0.12724-0.037205 0.19548-0.037205 0.068 0 0.13031 0.027942 0.18614 0.083763 0.0561 0.049626 0.0837 0.12719 0.0837 0.23267 0 0.099268-0.0499 0.17062-0.1489 0.21405-0.21711 0.099268-0.40323 0.14891-0.55839 0.14891-0.15512 0-0.29778-0.00934-0.42812-0.027942-0.12403-0.012426-0.24506-0.052715-0.36289-0.12099-0.27922-0.16132-0.41883-0.44672-0.41883-0.8562v-2.3639h-0.53971c-0.0931 0-0.24964-0.10621-0.25249-0.29294-2e-3 -0.17599 0.15385-0.26609 0.23168-0.26866l0.55806-0.00462 0.0103-0.64389c5e-3 -0.12544 0.16669-0.25549 0.33632-0.25619 0.18493 7.719e-4 0.34881 0.12909 0.3458 0.26617v0.60493h0.86549c0.0871 0 0.15818 0.027942 0.21402 0.083754 0.056 0.055807 0.0837 0.12719 0.0837 0.21405 0 0.086862-0.0279 0.15821-0.0837 0.21405-0.0562 0.055807-0.12713 0.083761-0.21402 0.083761h-0.86549v2.308c0 0.19234 0.0588 0.32263 0.17683 0.39087 0.062 0.037205 0.16125 0.055884 0.29781 0.055884z"/>
  <g transform="matrix(.77185 0 0 .77185 312.99 -65.312)" fill-rule="evenodd" stroke-width=".26458px">
   <path d="m-54.57 74.523c-1.7919 1.907-5.3906 2.3551-4.3001 4.9881 0.36199 0.74862-0.27419 1.0155-0.50107 0.61951 0 0-3.4086-2.8786-1.4504-4.6156 0.98084-1.0161 6.9801-5.3003 6.3041-1.3029z" fill="#1c7fc7"/>
   <path d="m-57.629 73.238s-1.5075 0.83503-2.7039 1.8531c0 0 3.0859-1.3869 5.7631-0.56799 0 0 0.39145-1.6984-3.0593-1.2851z" fill="#004a77" fill-opacity=".87434"/>
   <path d="m-62.252 72.183s0.38056-1.1878 2.1798-1.9508l0.96418 0.28985s6.7226-1.3794 4.5374 4.0016c0 0 0.5771-2.071-4.5695-1.033l-0.70199 0.43123c-1.906-0.26683-2.4099-1.7389-2.4099-1.7389" fill="#22a6ed"/>
  </g>
  <path d="m277.62-9.6188q0-0.14572 0.10242-0.2368 0.10234-0.10019 0.25131-0.10019 0.14885 0 0.24197 0.10019 0.10234 0.091077 0.10234 0.2368v4.8453q0 0.13662-0.10234 0.2368-0.0931 0.10019-0.24197 0.10019-0.14898 0-0.25131-0.10019-0.10242-0.10018-0.10242-0.2368z"/>
  <path d="m280.03-6.1675q0.0651 0.51186 0.39083 0.81897 0.33506 0.29781 0.91202 0.29781 0.58636 0 0.99581-0.18613 0.13033-0.065145 0.23266-0.065145 0.10242-0.00934 0.18612 0.074482 0.0931 0.083761 0.0931 0.18613 0 0.20474-0.16752 0.2885-0.15823 0.083758-0.28845 0.14891-0.13034 0.065144-0.27927 0.11168-0.34429 0.093063-0.80033 0.093063-0.93997 0-1.4611-0.52116-0.51184-0.53048-0.51184-1.4984 0-0.83759 0.43737-1.396 0.49331-0.62354 1.3866-0.62354 0.85624 0 1.3495 0.577 0.46533 0.53978 0.46533 1.3494 0 0.1396-0.10234 0.24197-0.0931 0.10237-0.24196 0.10237zm1.126-1.6845q-0.67936 0-0.9865 0.60492-0.11163 0.21405-0.13952 0.51186h2.2521q-0.0277-0.53978-0.4002-0.85621-0.2978-0.26058-0.72589-0.26058z"/>
  <path d="m285.85-7.7962q-0.67009 0-1.2564 0.73522v2.2801q0 0.1396-0.10244 0.24197-0.10232 0.10237-0.24199 0.10237-0.13951 0-0.24199-0.10237-0.10232-0.10237-0.10232-0.24197v-3.2666q0-0.14891 0.093-0.25128 0.10246-0.10237 0.2513-0.10237 0.13964 0 0.24199 0.10237 0.10244 0.093062 0.10244 0.25128v0.31642q0.30708-0.31642 0.53042-0.45602 0.42814-0.25128 0.81904-0.25128 0.40014 0 0.65139 0.12099 0.25126 0.11167 0.42812 0.32573 0.35368 0.41879 0.35368 1.0423v2.1684q0 0.1396-0.10242 0.24197-0.10234 0.10237-0.24195 0.10237-0.13958 0-0.24199-0.10237-0.10234-0.10237-0.10234-0.24197v-2.094q0-0.42811-0.19544-0.67007-0.19549-0.25127-0.64217-0.25127z"/>
  <path d="m291.49-8.0475q0-0.15821 0.10242-0.25128 0.10234-0.10237 0.25127-0.10237 0.14887 0 0.24197 0.10237 0.093 0.093062 0.093 0.25128v3.2666q0 0.1396-0.093 0.24197-0.0931 0.10237-0.24197 0.10237-0.14894 0-0.25127-0.10237-0.10242-0.10237-0.10242-0.24197zm0.76312-1.4983q0 0.16751-0.11161 0.27919-0.11174 0.11168-0.27921 0.11168h-0.0465q-0.16751 0-0.27921-0.11168-0.10234-0.11168-0.10234-0.27919v-0.027942q0-0.16752 0.11165-0.2792 0.11167-0.11167 0.26989-0.11167h0.0465q0.16747 0 0.27921 0.11167 0.11161 0.11168 0.11161 0.2792z"/>
  <path d="m295.26-5.0508q0.42813 0 0.80971-0.20474 0.13025-0.074483 0.24196-0.074483 0.11166-0.00934 0.19538 0.093062 0.0839 0.10237 0.0839 0.24197 0 0.1303-0.17686 0.24198-0.53977 0.35365-1.2098 0.35365-0.84694 0-1.4332-0.53047-0.61426-0.5677-0.60495-1.489 0-0.92135 0.60495-1.489 0.57697-0.53978 1.4332-0.53047 0.45601 0 0.74448 0.12099 0.29781 0.11167 0.46533 0.23266 0.17686 0.11168 0.17686 0.25128 0 0.1396-0.0839 0.23267-0.0837 0.093062-0.16746 0.093062-0.13033 0-0.26988-0.074483-0.39088-0.21405-0.80971-0.20474-0.67006 0-1.0423 0.38156-0.363 0.37226-0.363 0.98649 0 0.61423 0.363 0.99579 0.37224 0.37226 1.0423 0.37226z"/>
  <path d="m299.21-8.4383q0.88411 0 1.4239 0.55839 0.53971 0.5677 0.52112 1.4611 0 0.90273-0.52112 1.4611-0.53979 0.55839-1.4239 0.55839-0.89347 0-1.4146-0.55839-0.53979-0.55839-0.53979-1.4611 0-0.91204 0.53979-1.4611 0.52111-0.55839 1.4146-0.55839zm-0.85627 3.0991q0.18617 0.15821 0.40954 0.23267 0.23266 0.074482 0.44673 0.074482 0.21402 0 0.43739-0.074482 0.22337-0.074483 0.40943-0.24197 0.4095-0.37226 0.4095-1.0796 0-0.68868-0.4095-1.0702-0.34429-0.31642-0.84682-0.30712-0.82832 0-1.1447 0.74453-0.11171 0.26988-0.11171 0.64215 0 0.37226 0.11171 0.64215 0.11164 0.26989 0.28846 0.43741z"/>
 </g>
</svg>
