<svg id="Layer_1" enable-background="new 0 0 512 512" height="512" viewBox="0 0 512 512" width="512" xmlns="http://www.w3.org/2000/svg"><g><g><g><path d="m174.006 264.844h-84.586c-4.143 0-7.5-3.358-7.5-7.5s3.357-7.5 7.5-7.5h84.586c4.143 0 7.5 3.358 7.5 7.5s-3.358 7.5-7.5 7.5z" fill="#43809f"/></g><g><path d="m113.113 141.222h-63.261c-4.143 0-7.5-3.358-7.5-7.5s3.357-7.5 7.5-7.5h63.262c4.143 0 7.5 3.358 7.5 7.5s-3.358 7.5-7.501 7.5z" fill="#43809f"/></g></g><g><path d="m130.35 203.033h-122.85c-4.143 0-7.5-3.358-7.5-7.5s3.357-7.5 7.5-7.5h122.85c4.143 0 7.5 3.358 7.5 7.5s-3.358 7.5-7.5 7.5z" fill="#43809f"/></g><g><g><path d="m422.58 264.844h-84.854c-4.143 0-7.5-3.358-7.5-7.5s3.357-7.5 7.5-7.5h84.854c4.143 0 7.5 3.358 7.5 7.5s-3.357 7.5-7.5 7.5z" fill="#43809f"/></g><g><path d="m462.148 141.222h-63.262c-4.143 0-7.5-3.358-7.5-7.5s3.357-7.5 7.5-7.5h63.262c4.143 0 7.5 3.358 7.5 7.5s-3.357 7.5-7.5 7.5z" fill="#43809f"/></g></g><g><path d="m504.5 203.033h-122.85c-4.143 0-7.5-3.358-7.5-7.5s3.357-7.5 7.5-7.5h122.85c4.143 0 7.5 3.358 7.5 7.5s-3.357 7.5-7.5 7.5z" fill="#43809f"/></g><path d="m398.969 402.77h-285.628l17.729-53.281c2.102-6.294 8.159-10.559 14.989-10.559h220.459c6.83 0 12.888 4.265 14.989 10.559z" fill="#29cef6"/><path d="m381.219 349.489c-2.102-6.294-8.159-10.559-14.989-10.559h-30.905c6.83 0 12.888 4.265 14.989 10.559l17.462 53.281h30.905z" fill="#22b5ed"/><path d="m377.561 512h-243.122c-12.517 0-22.664-10.147-22.664-22.664v-78.294c0-12.517 10.147-22.664 22.664-22.664h243.123c12.517 0 22.664 10.147 22.664 22.664v78.294c-.001 12.517-10.148 22.664-22.665 22.664z" fill="#a9dbf5"/><path d="m377.561 388.378h-30.905c12.517 0 22.664 10.147 22.664 22.664v78.294c0 12.517-10.147 22.664-22.664 22.664h30.905c12.517 0 22.664-10.147 22.664-22.664v-78.294c0-12.517-10.147-22.664-22.664-22.664z" fill="#88c3e0"/><path d="m142.68 476.974v-53.569c0-2.276 1.845-4.121 4.121-4.121h218.398c2.276 0 4.121 1.845 4.121 4.121v53.569c0 2.276-1.845 4.121-4.121 4.121h-218.398c-2.276 0-4.121-1.845-4.121-4.121z" fill="#43809f"/><path d="m190.061 452.25c-8.534 0-15.453-6.918-15.453-15.453v-17.513h30.905v17.513c.001 8.534-6.917 15.453-15.452 15.453z" fill="#f78e36"/><path d="m241.577 452.25c-8.534 0-15.453-6.918-15.453-15.453v-17.513h30.905v17.513c.001 8.534-6.917 15.453-15.452 15.453z" fill="#f78e36"/><path d="m256 0c-16.103 0-68.628 72.612-150.519 74.944-2.243.064-4.036 1.91-4.008 4.144 2.117 173.442 138.494 269.113 154.527 269.113s152.399-96.514 154.527-269.113c.028-2.234-1.765-4.081-4.008-4.144-81.891-2.332-134.416-74.944-150.519-74.944z" fill="#f3f3f3"/><g><path d="m255.956 314.455c-13.23-8.448-39.381-29.47-64.348-62.908-23.585-31.587-51.361-81.65-57.851-147.693-.052-.53.312-1.013.835-1.114 52.466-10.078 91.128-41.904 115.674-62.111 1.628-1.339 3.371-2.775 5.086-4.17.379-.308.918-.308 1.297 0 1.715 1.395 3.459 2.83 5.086 4.17 24.544 20.205 63.202 52.028 115.661 62.108.523.101.887.584.835 1.114-6.514 65.699-34.272 115.729-57.844 147.363-25.034 33.597-51.204 54.742-64.431 63.241z" fill="#ffc328"/></g><path d="m377.396 102.737c-9.394-1.805-18.337-4.317-26.844-7.324-9.486 81.329-37.282 125.092-60.165 155.802-17.55 23.553-35.652 40.977-49.468 52.224 5.921 4.8 11.065 8.479 15.038 11.016 13.227-8.499 39.397-29.643 64.43-63.24 23.572-31.634 51.33-81.664 57.844-147.363.052-.531-.312-1.014-.835-1.115z" fill="#ffb200"/><path d="m295.085 132.191c.879 15.899-7.744 29.879-20.716 36.781-1.809.962-2.917 2.866-2.917 4.913v56.371c0 8.528-6.918 15.442-15.453 15.442-8.534 0-15.453-6.914-15.453-15.442v-56.31c0-2.065-1.097-4.006-2.921-4.977-12.362-6.579-20.773-19.587-20.773-34.557 0-21.996 18.158-39.747 40.315-39.103 20.159.586 36.806 16.76 37.918 36.882z" fill="#2b6181"/></g></svg>