<?xml version="1.0" encoding="UTF-8" standalone="no"?>
<!-- Created with Inkscape (http://www.inkscape.org/) -->

<svg
   xmlns:dc="http://purl.org/dc/elements/1.1/"
   xmlns:cc="http://creativecommons.org/ns#"
   xmlns:rdf="http://www.w3.org/1999/02/22-rdf-syntax-ns#"
   xmlns:svg="http://www.w3.org/2000/svg"
   xmlns="http://www.w3.org/2000/svg"
   xmlns:sodipodi="http://sodipodi.sourceforge.net/DTD/sodipodi-0.dtd"
   xmlns:inkscape="http://www.inkscape.org/namespaces/inkscape"
   width="135.46667mm"
   height="95.32798mm"
   viewBox="0 0 135.46667 95.32798"
   version="1.1"
   id="svg8"
   inkscape:version="0.92.5 (0.92.5+68)"
   sodipodi:docname="page_speed.svg">
  <defs
     id="defs2" />
  <sodipodi:namedview
     id="base"
     pagecolor="#ffffff"
     bordercolor="#666666"
     borderopacity="1.0"
     inkscape:pageopacity="0.0"
     inkscape:pageshadow="2"
     inkscape:zoom="0.35913444"
     inkscape:cx="238.80103"
     inkscape:cy="447.68347"
     inkscape:document-units="mm"
     inkscape:current-layer="layer1"
     showgrid="false"
     fit-margin-top="0"
     fit-margin-left="0"
     fit-margin-right="0"
     fit-margin-bottom="0"
     inkscape:window-width="1375"
     inkscape:window-height="786"
     inkscape:window-x="65"
     inkscape:window-y="24"
     inkscape:window-maximized="1" />
  <metadata
     id="metadata5">
    <rdf:RDF>
      <cc:Work
         rdf:about="">
        <dc:format>image/svg+xml</dc:format>
        <dc:type
           rdf:resource="http://purl.org/dc/dcmitype/StillImage" />
        <dc:title></dc:title>
      </cc:Work>
    </rdf:RDF>
  </metadata>
  <g
     inkscape:label="Layer 1"
     inkscape:groupmode="layer"
     id="layer1"
     transform="translate(-32.461272,-59.265338)">
    <path
       style="fill:#4380a0;stroke-width:0.26458332"
       inkscape:connector-curvature="0"
       d="m 153.32294,141.71738 -106.254552,0.003 c -3.023129,0 -5.473964,-2.45058 -5.474229,-5.4737 l -0.0021,-71.503913 c 0,-3.023129 2.450571,-5.473965 5.4737,-5.474229 l 106.254551,-0.0032 c 3.02313,0 5.47397,2.450571 5.47423,5.4737 l 0.002,71.503912 c 2.6e-4,3.02339 -2.45031,5.47423 -5.4737,5.47423 z"
       id="path913"
       inkscape:export-xdpi="96"
       inkscape:export-ydpi="96" />
    <path
       style="fill:#3b7191;stroke-width:0.26458332"
       inkscape:connector-curvature="0"
       d="m 158.7969,136.22092 c 0,3.03424 -2.43945,5.49698 -5.45147,5.49698 h -8.17695 c 3.01175,0 5.45148,-2.46274 5.45148,-5.49698 l -0.003,-71.458399 c 0,-3.031596 -2.43125,-5.488781 -5.43772,-5.496983 h 8.16346 c 3.01175,0 5.45147,2.459831 5.45147,5.496983 z"
       id="path915"
       inkscape:export-xdpi="96"
       inkscape:export-ydpi="96" />
    <path
       style="fill:#a9dbf5;stroke-width:0.26458332"
       inkscape:connector-curvature="0"
       d="M 160.84372,154.59332 H 39.54549 c -3.912658,0 -7.084218,-3.17156 -7.084218,-7.08422 v -5.44433 c 0,-0.60192 0.487891,-1.08982 1.089818,-1.08982 h 133.28703 c 0.60193,0 1.08982,0.4879 1.08982,1.08982 v 5.44433 c 0,3.91266 -3.17156,7.08422 -7.08422,7.08422 z"
       id="path917"
       inkscape:export-xdpi="96"
       inkscape:export-ydpi="96" />
    <path
       style="fill:#88c3e0;stroke-width:0.26458332"
       inkscape:connector-curvature="0"
       d="m 166.83759,140.97495 h -8.17695 c 0.6022,0 1.09035,0.4879 1.09035,1.08956 v 5.44724 c 0,3.91107 -3.17288,7.08157 -7.08686,7.08157 h 8.17695 c 3.91398,0 7.08686,-3.1705 7.08686,-7.08157 v -5.44724 c 0,-0.60166 -0.48816,-1.08956 -1.09035,-1.08956 z"
       id="path919"
       inkscape:export-xdpi="96"
       inkscape:export-ydpi="96" />
    <path
       style="fill:#f3f3f3;stroke-width:0.26458332"
       inkscape:connector-curvature="0"
       d="m 150.61969,131.74311 c 0,0.58447 -0.47387,1.05834 -1.05833,1.05834 h -7.11862 l -91.612242,0.003 c -0.584464,0 -1.058333,-0.47387 -1.058333,-1.05834 l -0.0026,-63.248377 c 0,-0.584464 0.473869,-1.058333 1.058333,-1.058333 l 91.612252,-0.0026 h 7.11888 c 0.58446,0 1.05833,0.473869 1.05833,1.058333 z"
       id="path921"
       inkscape:export-xdpi="96"
       inkscape:export-ydpi="96" />
    <path
       style="fill:#e4e4e4;stroke-width:0.26458332"
       inkscape:connector-curvature="0"
       d="m 149.56136,132.80145 h -7.11862 l -0.003,-65.36505 h 7.11888 c 0.58446,0 1.05833,0.473869 1.05833,1.058333 l 0.003,63.248377 c -2.7e-4,0.58447 -0.47387,1.05834 -1.0586,1.05834 z"
       id="path923"
       inkscape:export-xdpi="96"
       inkscape:export-ydpi="96" />
    <g
       id="g992"
       transform="matrix(0.54710863,0,0,0.54710863,49.392518,48.53379)"
       inkscape:export-xdpi="96"
       inkscape:export-ydpi="96">
      <path
         id="path815"
         d="m 96.502062,123.05231 -5.782204,-5.7822 25.633892,-25.633627 c 1.5965,-1.596496 4.18544,-1.596496 5.78194,0 1.59676,1.59676 1.59676,4.185443 0,5.781939 z"
         inkscape:connector-curvature="0"
         style="fill:#a9dbf5;stroke-width:0.26458332" />
      <path
         id="path817"
         d="m 90.755312,55.318981 c -0.529431,0 -1.091406,0.0087 -1.054893,0.0082 -37.019177,0.618331 -66.395864,30.596416 -66.678439,67.191199 -0.0021,0.29396 0.237331,0.53393 0.531548,0.53393 h 15.296356 c 0.290512,0 0.524404,-0.23468 0.527315,-0.52519 0.282575,-28.08976 23.221685,-50.853981 51.378113,-50.853981 28.156428,0 51.095538,22.764221 51.378118,50.853981 0.003,0.29051 0.2368,0.52519 0.52731,0.52519 h 15.29636 c 0.29395,0 0.53366,-0.24024 0.53154,-0.53419 C 158.20157,85.356597 127.98563,55.318981 90.755312,55.318981"
         inkscape:connector-curvature="0"
         style="fill:#ffc328;stroke-width:0.26458332" />
      <path
         id="path819"
         d="m 157.9571,123.05231 h -7.64355 c 0,-36.0336 -28.14373,-65.492837 -63.646844,-67.607917 1.435894,-0.08096 2.661709,-0.125412 4.088606,-0.125412 37.230318,0 67.446258,30.037616 67.733328,67.199139 0.002,0.29395 -0.23759,0.53419 -0.53154,0.53419"
         inkscape:connector-curvature="0"
         style="fill:#ffb200;stroke-width:0.26458332" />
      <path
         id="path821"
         d="m 157.9571,123.05231 h -15.29636 c -0.29051,0 -0.52414,-0.23468 -0.52731,-0.52519 -0.14023,-13.95757 -5.87455,-26.601477 -15.06247,-35.789133 l 11.58161,-11.581342 c 12.13829,12.143317 19.6932,28.869745 19.83607,47.361475 0.002,0.29395 -0.23759,0.53419 -0.53154,0.53419"
         inkscape:connector-curvature="0"
         style="fill:#f78e36;stroke-width:0.26458332" />
      <path
         id="path823"
         d="m 134.38431,79.424639 c 9.93722,11.785071 15.92924,27.005231 15.92924,43.627671 h 7.64355 c 0.29395,0 0.53366,-0.24024 0.53154,-0.53419 -0.14287,-18.49173 -7.69778,-35.218158 -19.83607,-47.361475 z"
         inkscape:connector-curvature="0"
         style="fill:#f86f1b;stroke-width:0.26458332" />
      <path
         inkscape:connector-curvature="0"
         d="m 99.477567,123.05231 c 0,4.81727 -3.904986,8.72226 -8.722255,8.72226 -4.817004,0 -8.722254,-3.90499 -8.722254,-8.72226 0,-4.81727 3.90525,-8.72225 8.722254,-8.72225 4.817269,0 8.722255,3.90498 8.722255,8.72225"
         id="path839"
         style="fill:#f78e36;stroke-width:0.26458332" />
      <path
         id="path843"
         d="m 90.755312,114.33006 c -1.477697,0 -2.868877,0.36883 -4.088606,1.01732 2.756165,1.46579 4.633913,4.36536 4.633913,7.70493 0,3.33931 -1.877748,6.23914 -4.633913,7.70467 1.219729,0.64876 2.610909,1.01759 4.088606,1.01759 4.817269,0 8.722255,-3.90525 8.722255,-8.72226 0,-4.81727 -3.904986,-8.72225 -8.722255,-8.72225"
         inkscape:connector-curvature="0"
         style="fill:#f86f1b;stroke-width:0.26458332" />
    </g>
    <path
       style="fill:#88c3e0;stroke-width:0.26458332"
       inkscape:connector-curvature="0"
       d="M 109.46322,147.51175 H 90.92625 c -1.805781,0 -3.269721,-1.46394 -3.269721,-3.26972 v -3.26708 h 25.076151 v 3.26708 c 0,1.80605 -1.46394,3.26972 -3.26946,3.26972 z"
       id="path925"
       inkscape:export-xdpi="96"
       inkscape:export-ydpi="96" />
  </g>
</svg>
