<?xml version="1.0" encoding="UTF-8"?>
<svg width="40" height="32.5" version="1.1" viewBox="0 0 40 32.5" xml:space="preserve" xmlns="http://www.w3.org/2000/svg" xmlns:cc="http://creativecommons.org/ns#" xmlns:dc="http://purl.org/dc/elements/1.1/" xmlns:rdf="http://www.w3.org/1999/02/22-rdf-syntax-ns#"><metadata><rdf:RDF><cc:Work rdf:about=""><dc:format>image/svg+xml</dc:format><dc:type rdf:resource="http://purl.org/dc/dcmitype/StillImage"/><dc:title/></cc:Work></rdf:RDF></metadata>
<path d="m40 3.8475c-1.4875 0.6525-3.0725 1.085-4.725 1.295 1.7-1.015 2.9975-2.61 3.6075-4.5325-1.585 0.94496-3.335 1.6125-5.2 1.985-1.505-1.6025-3.65-2.595-5.99-2.595-4.54 0-8.1952 3.685-8.1952 8.2024 0 0.65 0.055 1.275 0.19 1.87-6.8175-0.3325-12.85-3.6-16.902-8.5776-0.7075 1.2275-1.1225 2.6325-1.1225 4.145 0 2.84 1.4625 5.3575 3.6425 6.815-1.3175-0.025-2.61-0.4075-3.705-1.01v0.09c0 3.985 2.8425 7.295 6.57 8.0576-0.6675 0.1825-1.395 0.27-2.15 0.27-0.525 0-1.055-0.03-1.5525-0.14 1.0625 3.2475 4.0775 5.635 7.6625 5.7125-2.79 2.1825-6.3325 3.4975-10.167 3.4975-0.6725 0-1.3175-0.03-1.9625-0.1125 3.6325 2.3425 7.9375 3.68 12.58 3.68 15.09 0 23.34-12.5 23.34-23.335 0-0.3625-0.0125-0.7125-0.03-1.06 1.6275-1.155 2.995-2.5975 4.11-4.2575z" fill="#03a9f4" stroke-width=".078125"/>
</svg>
