<?xml version="1.0" encoding="UTF-8"?>
<svg width="34.396mm" height="34.396mm" version="1.1" viewBox="0 0 34.396 34.396" xmlns="http://www.w3.org/2000/svg" xmlns:cc="http://creativecommons.org/ns#" xmlns:dc="http://purl.org/dc/elements/1.1/" xmlns:rdf="http://www.w3.org/1999/02/22-rdf-syntax-ns#">
 <metadata>
  <rdf:RDF>
   <cc:Work rdf:about="">
    <dc:format>image/svg+xml</dc:format>
    <dc:type rdf:resource="http://purl.org/dc/dcmitype/StillImage"/>
    <dc:title/>
   </cc:Work>
  </rdf:RDF>
 </metadata>
 <g transform="translate(-10.405 -14.661)">
  <g transform="matrix(.25391 0 0 .25391 7.763 10.938)">
   <g transform="matrix(.26458 0 0 .26458 10.405 14.661)" fill="#43809f">
    <path d="m180.8 257.86c-4.142 0-7.5 3.358-7.5 7.5v85.336c0 4.142 3.358 7.5 7.5 7.5s7.5-3.358 7.5-7.5v-85.336c0-4.142-3.358-7.5-7.5-7.5z"/>
    <path d="m331.2 257.86c-4.142 0-7.5 3.358-7.5 7.5v85.336c0 4.142 3.358 7.5 7.5 7.5s7.5-3.358 7.5-7.5v-85.336c0-4.142-3.358-7.5-7.5-7.5z"/>
   </g>
   <path d="m122.36 41.648c-4.3328 0.06377-8.3772 1.3168-11.822 3.4473-0.35163 0.21749-0.80883-0.0172-0.82947-0.43021-0.84058-16.712-14.656-30.004-31.576-30.004-16.917 0-30.729 13.286-31.575 29.993-0.0209 0.41275-0.47757 0.64717-0.8292 0.43021-3.4443-2.1257-7.4872-3.375-11.817-3.4361-12.635-0.17833-23.198 9.9743-23.495 22.607-0.30718 13.051 10.18 23.727 23.162 23.727h89.13c12.981 0 23.469-10.676 23.162-23.727-0.29766-12.638-10.869-22.793-23.509-22.607z" fill="#f3f3f3" stroke-width=".26458"/>
   <g transform="matrix(.26458 0 0 .26458 10.405 14.661)" fill="#e4e4e4">
    <path d="m240.51 0.996c49.003 6.328 88.7 42.336 100.48 89.412 3.426 13.696 15.524 23.706 29.64 23.506 1.56-0.022 3.123-0.168 4.679-0.513-3.176-63.163-55.39-113.4-119.34-113.4-5.237 0-10.394 0.343-15.453 0.996z"/>
    <path d="m511.98 187.44c-1.124-47.767-41.078-86.147-88.852-85.445-4.852 0.071-9.605 0.547-14.236 1.377 40.061 7.207 71.193 41.987 72.183 84.068 1.16 49.326-38.478 89.676-87.541 89.676h30.905c49.063 0 88.702-40.35 87.541-89.676z"/>
   </g>
   <g stroke-width=".26458">
    <path d="m115.97 121.23h-75.572l4.6908-14.097c0.55615-1.6653 2.1587-2.7937 3.9658-2.7937h58.33c1.8071 0 3.41 1.1284 3.9658 2.7937z" fill="#29cef6"/>
    <path d="m111.27 107.13c-0.55616-1.6653-2.1587-2.7937-3.9658-2.7937h-8.177c1.8071 0 3.41 1.1284 3.9658 2.7937l4.6202 14.097h8.177z" fill="#22b5ed"/>
    <path d="m110.3 150.13h-64.326c-3.3118 0-5.9965-2.6847-5.9965-5.9965v-20.715c0-3.3118 2.6847-5.9965 5.9965-5.9965h64.326c3.3118 0 5.9965 2.6847 5.9965 5.9965v20.715c-2.6e-4 3.3118-2.685 5.9965-5.9968 5.9965z" fill="#a9dbf5"/>
    <path d="m110.3 117.42h-8.177c3.3118 0 5.9965 2.6847 5.9965 5.9965v20.715c0 3.3118-2.6847 5.9965-5.9965 5.9965h8.177c3.3118 0 5.9965-2.6847 5.9965-5.9965v-20.715c0-3.3118-2.6847-5.9965-5.9965-5.9965z" fill="#88c3e0"/>
    <path d="m48.156 140.86v-14.173c0-0.60219 0.48816-1.0904 1.0903-1.0904h57.784c0.60219 0 1.0904 0.48816 1.0904 1.0904v14.173c0 0.60219-0.48816 1.0904-1.0904 1.0904h-57.784c-0.60219 0-1.0903-0.48816-1.0903-1.0904z" fill="#43809f"/>
    <path d="m60.692 134.32c-2.258 0-4.0886-1.8304-4.0886-4.0886v-4.6336h8.1769v4.6336c2.64e-4 2.2582-1.8301 4.0886-4.0883 4.0886z" fill="#f78e36"/>
    <path d="m74.322 134.32c-2.258 0-4.0886-1.8304-4.0886-4.0886v-4.6336h8.1769v4.6336c2.64e-4 2.2582-1.8301 4.0886-4.0883 4.0886z" fill="#f78e36"/>
    <path d="m51.346 50.092c1.9828 2.7355 6.826 9.9391 7.5248 15.921 0.07117 0.61039 0.91969 0.70591 1.1324 0.12938 1.0282-2.7847 2.1003-7.2509 0.10186-10.538-2.7575-4.536-6.2288-5.9732-8.1518-6.4286-0.5289-0.12515-0.92604 0.47651-0.60722 0.91652z" fill="#e4e4e4"/>
   </g>
   <path d="m82.81 53.548c-0.44072-0.15562-0.89046-0.31755-1.3399-0.48489v-7.8141c0.74235 0.25476 1.2537 0.60206 1.4853 0.78141 0.9833 0.76218 2.3989 0.58313 3.1614-0.39957 0.76248-0.9824 0.58343-2.3968-0.39987-3.1587-0.57412-0.44494-2.0748-1.4568-4.2472-1.8627v-1.4165c0-1.2435-1.0088-2.2514-2.2532-2.2514s-2.2532 1.0079-2.2532 2.2514v1.5763c-0.17544 0.04416-0.3524 0.09133-0.53176 0.14541-2.7733 0.83489-4.8447 3.2014-5.4059 6.1768-0.51403 2.7267 0.36922 5.3626 2.3052 6.8801 0.93823 0.73515 2.0865 1.4093 3.6322 2.1123v10.246c-1.159-0.1436-2.0099-0.50712-3.3549-1.3865-1.0413-0.68047-2.4377-0.38905-3.1191 0.65133-0.68136 1.0407-0.38936 2.4362 0.65193 3.1166 2.276 1.4877 3.871 1.9918 5.822 2.1463v1.589c0 1.2435 1.0088 2.2514 2.2532 2.2514 1.2444 0 2.2532-1.0079 2.2532-2.2514v-1.7993c3.9515-0.95867 6.4862-4.3117 7.0423-7.6186 0.72103-4.282-1.5175-8.0034-5.7018-9.4812zm-6.6971-3.1199c-0.59816-0.46867-0.85652-1.4511-0.65794-2.5029 0.15442-0.81927 0.6291-1.7749 1.5088-2.343v5.4281c-0.31004-0.18987-0.59756-0.38365-0.85081-0.58223zm7.9556 11.854c-0.23193 1.3793-1.114 2.8339-2.5984 3.5958v-8.0226c2.9078 1.1212 2.727 3.6628 2.5984 4.4268z" fill="#ffc328" stroke-width=".30043"/>
  </g>
 </g>
</svg>
