<?xml version="1.0" encoding="UTF-8"?>
<svg width="34.396mm" height="33.181mm" version="1.1" viewBox="0 0 34.396 33.181" xmlns="http://www.w3.org/2000/svg" xmlns:cc="http://creativecommons.org/ns#" xmlns:dc="http://purl.org/dc/elements/1.1/" xmlns:rdf="http://www.w3.org/1999/02/22-rdf-syntax-ns#">
 <metadata>
  <rdf:RDF>
   <cc:Work rdf:about="">
    <dc:format>image/svg+xml</dc:format>
    <dc:type rdf:resource="http://purl.org/dc/dcmitype/StillImage"/>
    <dc:title/>
   </cc:Work>
  </rdf:RDF>
 </metadata>
 <g transform="translate(-69.072 -80.375)">
  <g transform="matrix(.20935 0 0 .20935 -203.54 375.95)">
   <g fill="none" stroke-linecap="round" stroke-width="6">
    <rect x="1353.7" y="-1349.4" width="61.414" height="61.414" rx="12.986" ry="12.295" stroke="#fed330" stroke-linejoin="round"/>
    <path d="m1365.9-1352.7v-12.258c0-6.8115 5.792-12.295 12.986-12.295h10.875c7.1944 0 12.986 5.4835 12.986 12.295v12.258" stroke="#0b3b65" stroke-linejoin="round"/>
    <path d="m1384.4-1323.9v10.346" stroke="#0b3b65"/>
   </g>
   <circle cx="1384.4" cy="-1323.9" r="3.8628" fill="#0b3b65" fill-rule="evenodd" stroke="#0b3b65" stroke-width="1.1795px"/>
  </g>
  <path d="m86.27 81.105s-5.5361 4.4583-16.253 7.3299c0 0-3.3405 19.142 16.253 24.392 19.593-5.25 16.254-24.392 16.254-24.392-10.972-2.94-16.254-7.3299-16.254-7.3299z" fill="none" stroke="#fe8e30" stroke-linecap="round" stroke-linejoin="round" stroke-width="1.4586"/>
 </g>
</svg>
