<?xml version="1.0" encoding="UTF-8"?>
<svg width="130" height="130" enable-background="new 0 0 512 512" version="1.1" viewBox="0 0 130 130" xmlns="http://www.w3.org/2000/svg" xmlns:cc="http://creativecommons.org/ns#" xmlns:dc="http://purl.org/dc/elements/1.1/" xmlns:rdf="http://www.w3.org/1999/02/22-rdf-syntax-ns#">
 <metadata>
  <rdf:RDF>
   <cc:Work rdf:about="">
    <dc:format>image/svg+xml</dc:format>
    <dc:type rdf:resource="http://purl.org/dc/dcmitype/StillImage"/>
    <dc:title/>
   </cc:Work>
  </rdf:RDF>
 </metadata>
 <g transform="scale(.25391)">
  <path d="m174.01 264.84h-84.586c-4.143 0-7.5-3.358-7.5-7.5s3.357-7.5 7.5-7.5h84.586c4.143 0 7.5 3.358 7.5 7.5s-3.358 7.5-7.5 7.5z" fill="#43809f"/>
  <path d="m113.11 141.22h-63.261c-4.143 0-7.5-3.358-7.5-7.5s3.357-7.5 7.5-7.5h63.262c4.143 0 7.5 3.358 7.5 7.5s-3.358 7.5-7.501 7.5z" fill="#43809f"/>
  <path d="m130.35 203.03h-122.85c-4.143 0-7.5-3.358-7.5-7.5s3.357-7.5 7.5-7.5h122.85c4.143 0 7.5 3.358 7.5 7.5s-3.358 7.5-7.5 7.5z" fill="#43809f"/>
  <path d="m422.58 264.84h-84.854c-4.143 0-7.5-3.358-7.5-7.5s3.357-7.5 7.5-7.5h84.854c4.143 0 7.5 3.358 7.5 7.5s-3.357 7.5-7.5 7.5z" fill="#43809f"/>
  <path d="m462.15 141.22h-63.262c-4.143 0-7.5-3.358-7.5-7.5s3.357-7.5 7.5-7.5h63.262c4.143 0 7.5 3.358 7.5 7.5s-3.357 7.5-7.5 7.5z" fill="#43809f"/>
  <path d="m504.5 203.03h-122.85c-4.143 0-7.5-3.358-7.5-7.5s3.357-7.5 7.5-7.5h122.85c4.143 0 7.5 3.358 7.5 7.5s-3.357 7.5-7.5 7.5z" fill="#43809f"/>
  <path d="m398.97 402.77h-285.63l17.729-53.281c2.102-6.294 8.159-10.559 14.989-10.559h220.46c6.83 0 12.888 4.265 14.989 10.559z" fill="#29cef6"/>
  <path d="m381.22 349.49c-2.102-6.294-8.159-10.559-14.989-10.559h-30.905c6.83 0 12.888 4.265 14.989 10.559l17.462 53.281h30.905z" fill="#22b5ed"/>
  <path d="m377.56 512h-243.12c-12.517 0-22.664-10.147-22.664-22.664v-78.294c0-12.517 10.147-22.664 22.664-22.664h243.12c12.517 0 22.664 10.147 22.664 22.664v78.294c-1e-3 12.517-10.148 22.664-22.665 22.664z" fill="#a9dbf5"/>
  <path d="m377.56 388.38h-30.905c12.517 0 22.664 10.147 22.664 22.664v78.294c0 12.517-10.147 22.664-22.664 22.664h30.905c12.517 0 22.664-10.147 22.664-22.664v-78.294c0-12.517-10.147-22.664-22.664-22.664z" fill="#88c3e0"/>
  <path d="m142.68 476.97v-53.569c0-2.276 1.845-4.121 4.121-4.121h218.4c2.276 0 4.121 1.845 4.121 4.121v53.569c0 2.276-1.845 4.121-4.121 4.121h-218.4c-2.276 0-4.121-1.845-4.121-4.121z" fill="#43809f"/>
  <path d="m190.06 452.25c-8.534 0-15.453-6.918-15.453-15.453v-17.513h30.905v17.513c1e-3 8.534-6.917 15.453-15.452 15.453z" fill="#f78e36"/>
  <path d="m241.58 452.25c-8.534 0-15.453-6.918-15.453-15.453v-17.513h30.905v17.513c1e-3 8.534-6.917 15.453-15.452 15.453z" fill="#f78e36"/>
  <path d="m256 0c-16.103 0-68.628 72.612-150.52 74.944-2.243 0.064-4.036 1.91-4.008 4.144 2.117 173.44 138.49 269.11 154.53 269.11s152.4-96.514 154.53-269.11c0.028-2.234-1.765-4.081-4.008-4.144-81.891-2.332-134.42-74.944-150.52-74.944z" fill="#f3f3f3"/>
  <path d="m255.96 314.46c-13.23-8.448-39.381-29.47-64.348-62.908-23.585-31.587-51.361-81.65-57.851-147.69-0.052-0.53 0.312-1.013 0.835-1.114 52.466-10.078 91.128-41.904 115.67-62.111 1.628-1.339 3.371-2.775 5.086-4.17 0.379-0.308 0.918-0.308 1.297 0 1.715 1.395 3.459 2.83 5.086 4.17 24.544 20.205 63.202 52.028 115.66 62.108 0.523 0.101 0.887 0.584 0.835 1.114-6.514 65.699-34.272 115.73-57.844 147.36-25.034 33.597-51.204 54.742-64.431 63.241z" fill="#ffc328"/>
  <path d="m377.4 102.74c-9.394-1.805-18.337-4.317-26.844-7.324-9.486 81.329-37.282 125.09-60.165 155.8-17.55 23.553-35.652 40.977-49.468 52.224 5.921 4.8 11.065 8.479 15.038 11.016 13.227-8.499 39.397-29.643 64.43-63.24 23.572-31.634 51.33-81.664 57.844-147.36 0.052-0.531-0.312-1.014-0.835-1.115z" fill="#ffb200"/>
  <path d="m295.08 132.19c0.879 15.899-7.744 29.879-20.716 36.781-1.809 0.962-2.917 2.866-2.917 4.913v56.371c0 8.528-6.918 15.442-15.453 15.442-8.534 0-15.453-6.914-15.453-15.442v-56.31c0-2.065-1.097-4.006-2.921-4.977-12.362-6.579-20.773-19.587-20.773-34.557 0-21.996 18.158-39.747 40.315-39.103 20.159 0.586 36.806 16.76 37.918 36.882z" fill="#2b6181"/>
 </g>
</svg>
