<?xml version="1.0" encoding="UTF-8"?>
<svg width="34.396mm" height="24.204mm" version="1.1" viewBox="0 0 34.396 24.204" xmlns="http://www.w3.org/2000/svg" xmlns:cc="http://creativecommons.org/ns#" xmlns:dc="http://purl.org/dc/elements/1.1/" xmlns:rdf="http://www.w3.org/1999/02/22-rdf-syntax-ns#">
 <metadata>
  <rdf:RDF>
   <cc:Work rdf:about="">
    <dc:format>image/svg+xml</dc:format>
    <dc:type rdf:resource="http://purl.org/dc/dcmitype/StillImage"/>
    <dc:title/>
   </cc:Work>
  </rdf:RDF>
 </metadata>
 <g transform="translate(-32.461 -59.265)">
  <g stroke-width=".067179">
   <path d="m63.149 80.2-26.979 7.8e-4c-0.76759 0-1.3899-0.62222-1.3899-1.3898l-5.2e-4 -18.155c0-0.76759 0.62222-1.3899 1.3898-1.3899l26.979-8.32e-4c0.76759 0 1.3899 0.62222 1.3899 1.3898l5.08e-4 18.155c6.6e-5 0.76766-0.62215 1.3899-1.3898 1.3899z" fill="#4380a0"/>
   <path d="m64.539 78.805c0 0.77041-0.61939 1.3957-1.3842 1.3957h-2.0762c0.7647 0 1.3842-0.6253 1.3842-1.3957l-7.8e-4 -18.144c0-0.76974-0.61731-1.3936-1.3807-1.3957h2.0728c0.7647 0 1.3842 0.62457 1.3842 1.3957z" fill="#3b7191"/>
   <path d="m65.058 83.47h-30.798c-0.99345 0-1.7987-0.80528-1.7987-1.7987v-1.3823c0-0.15283 0.12388-0.27671 0.27671-0.27671h33.842c0.15283 0 0.27671 0.12388 0.27671 0.27671v1.3823c0 0.99345-0.80528 1.7987-1.7987 1.7987z" fill="#a9dbf5"/>
   <path d="m66.58 80.012h-2.0762c0.1529 0 0.27685 0.12388 0.27685 0.27665v1.3831c0 0.99304-0.80561 1.7981-1.7994 1.7981h2.0762c0.99378 0 1.7994-0.80501 1.7994-1.7981v-1.3831c0-0.15276-0.12395-0.27665-0.27685-0.27665z" fill="#88c3e0"/>
   <path d="m62.462 77.668c0 0.1484-0.12032 0.26872-0.26872 0.26872h-1.8075l-23.261 7.8e-4c-0.1484 0-0.26872-0.12032-0.26872-0.26872l-6.76e-4 -16.059c0-0.1484 0.12032-0.26872 0.26872-0.26872l23.261-6.76e-4h1.8075c0.1484 0 0.26872 0.12032 0.26872 0.26872z" fill="#f3f3f3"/>
   <path d="m62.194 77.937h-1.8075l-7.8e-4 -16.597h1.8075c0.1484 0 0.26872 0.12032 0.26872 0.26872l7.8e-4 16.059c-6.8e-5 0.1484-0.12032 0.26872-0.26878 0.26872z" fill="#e4e4e4"/>
  </g>
  <g transform="matrix(.13891 0 0 .13891 36.76 56.541)" stroke-width=".26458">
   <path d="m96.502 123.05-5.7822-5.7822 25.634-25.634c1.5965-1.5965 4.1854-1.5965 5.7819 0 1.5968 1.5968 1.5968 4.1854 0 5.7819z" fill="#a9dbf5"/>
   <path d="m90.755 55.319c-0.52943 0-1.0914 0.0087-1.0549 0.0082-37.019 0.61833-66.396 30.596-66.678 67.191-0.0021 0.29396 0.23733 0.53393 0.53155 0.53393h15.296c0.29051 0 0.5244-0.23468 0.52732-0.52519 0.28258-28.09 23.222-50.854 51.378-50.854s51.096 22.764 51.378 50.854c3e-3 0.29051 0.2368 0.52519 0.52731 0.52519h15.296c0.29395 0 0.53366-0.24024 0.53154-0.53419-0.28707-37.162-30.503-67.199-67.733-67.199" fill="#ffc328"/>
   <path d="m157.96 123.05h-7.6436c0-36.034-28.144-65.493-63.647-67.608 1.4359-0.08096 2.6617-0.12541 4.0886-0.12541 37.23 0 67.446 30.038 67.733 67.199 2e-3 0.29395-0.23759 0.53419-0.53154 0.53419" fill="#ffb200"/>
   <path d="m157.96 123.05h-15.296c-0.29051 0-0.52414-0.23468-0.52731-0.52519-0.14023-13.958-5.8746-26.601-15.062-35.789l11.582-11.581c12.138 12.143 19.693 28.87 19.836 47.361 2e-3 0.29395-0.23759 0.53419-0.53154 0.53419" fill="#f78e36"/>
   <path d="m134.38 79.425c9.9372 11.785 15.929 27.005 15.929 43.628h7.6436c0.29395 0 0.53366-0.24024 0.53154-0.53419-0.14287-18.492-7.6978-35.218-19.836-47.361z" fill="#f86f1b"/>
   <path d="m99.478 123.05c0 4.8173-3.905 8.7223-8.7223 8.7223-4.817 0-8.7223-3.905-8.7223-8.7223s3.9052-8.7222 8.7223-8.7222c4.8173 0 8.7223 3.905 8.7223 8.7222" fill="#f78e36"/>
   <path d="m90.755 114.33c-1.4777 0-2.8689 0.36883-4.0886 1.0173 2.7562 1.4658 4.6339 4.3654 4.6339 7.7049 0 3.3393-1.8777 6.2391-4.6339 7.7047 1.2197 0.64876 2.6109 1.0176 4.0886 1.0176 4.8173 0 8.7223-3.9052 8.7223-8.7223 0-4.8173-3.905-8.7222-8.7223-8.7222" fill="#f86f1b"/>
  </g>
  <path d="m52.013 81.672h-4.7067c-0.4585 0-0.8302-0.37171-0.8302-0.83021v-0.82953h6.367v0.82953c0 0.45857-0.3717 0.83021-0.83014 0.83021z" fill="#88c3e0" stroke-width=".067179"/>
 </g>
</svg>
