<?xml version="1.0" encoding="UTF-8" standalone="no"?>
<svg
   xmlns:dc="http://purl.org/dc/elements/1.1/"
   xmlns:cc="http://creativecommons.org/ns#"
   xmlns:rdf="http://www.w3.org/1999/02/22-rdf-syntax-ns#"
   xmlns:svg="http://www.w3.org/2000/svg"
   xmlns="http://www.w3.org/2000/svg"
   xmlns:sodipodi="http://sodipodi.sourceforge.net/DTD/sodipodi-0.dtd"
   xmlns:inkscape="http://www.inkscape.org/namespaces/inkscape"
   inkscape:version="1.0 (1.0+r73+1)"
   sodipodi:docname="vendor.svg"
   version="1.1"
   width="130"
   viewBox="0 0 130 130"
   height="130"
   enable-background="new 0 0 512 512"
   id="Layer_1">
  <metadata
     id="metadata47">
    <rdf:RDF>
      <cc:Work
         rdf:about="">
        <dc:format>image/svg+xml</dc:format>
        <dc:type
           rdf:resource="http://purl.org/dc/dcmitype/StillImage" />
        <dc:title></dc:title>
      </cc:Work>
    </rdf:RDF>
  </metadata>
  <defs
     id="defs45" />
  <sodipodi:namedview
     inkscape:current-layer="Layer_1"
     inkscape:window-maximized="1"
     inkscape:window-y="24"
     inkscape:window-x="65"
     inkscape:cy="334.88605"
     inkscape:cx="251.33014"
     inkscape:zoom="0.48841714"
     fit-margin-bottom="0"
     fit-margin-right="0"
     fit-margin-left="0"
     fit-margin-top="0"
     showgrid="false"
     id="namedview43"
     inkscape:window-height="876"
     inkscape:window-width="1535"
     inkscape:pageshadow="2"
     inkscape:pageopacity="0"
     guidetolerance="10"
     gridtolerance="10"
     objecttolerance="10"
     borderopacity="1"
     bordercolor="#666666"
     pagecolor="#ffffff" />
  <g
     transform="scale(0.25390625)"
     id="g40">
    <path
       id="path2"
       fill="#43809f"
       d="m 203.099,310.951 v -54.075 c 0,-29.169 23.731,-52.9 52.901,-52.9 29.17,0 52.901,23.731 52.901,52.9 v 54.075 h 30.905 v -54.075 c 0,-46.21 -37.596,-83.806 -83.806,-83.806 -46.21,0 -83.806,37.596 -83.806,83.806 v 54.075 z" />
    <path
       id="path4"
       fill="#88c3e0"
       d="m 256,226.6 c -8.534,0 -15.453,-6.918 -15.453,-15.453 v -43.842 h 30.905 v 43.842 C 271.453,219.682 264.534,226.6 256,226.6 Z" />
    <g
       id="g18"
       fill="#45d987">
      <path
         id="path6"
         d="m 454.281,421.491 h -57.435 c -4.142,0 -7.5,3.357 -7.5,7.5 0,4.143 3.358,7.5 7.5,7.5 h 57.435 c 4.142,0 7.5,-3.357 7.5,-7.5 0,-4.143 -3.358,-7.5 -7.5,-7.5 z" />
      <path
         id="path8"
         d="m 396.846,375.79 h 57.435 c 4.142,0 7.5,-3.357 7.5,-7.5 0,-4.143 -3.358,-7.5 -7.5,-7.5 h -57.435 c -4.142,0 -7.5,3.357 -7.5,7.5 0,4.143 3.358,7.5 7.5,7.5 z" />
      <path
         id="path10"
         d="M 504.5,391.141 H 396.846 c -4.142,0 -7.5,3.357 -7.5,7.5 0,4.143 3.358,7.5 7.5,7.5 H 504.5 c 4.142,0 7.5,-3.357 7.5,-7.5 0,-4.143 -3.358,-7.5 -7.5,-7.5 z" />
      <path
         id="path12"
         d="M 115.154,421.491 H 57.719 c -4.142,0 -7.5,3.357 -7.5,7.5 0,4.143 3.358,7.5 7.5,7.5 h 57.435 c 4.142,0 7.5,-3.357 7.5,-7.5 0,-4.143 -3.358,-7.5 -7.5,-7.5 z" />
      <path
         id="path14"
         d="M 115.154,360.79 H 57.719 c -4.142,0 -7.5,3.357 -7.5,7.5 0,4.143 3.358,7.5 7.5,7.5 h 57.435 c 4.142,0 7.5,-3.357 7.5,-7.5 0,-4.143 -3.358,-7.5 -7.5,-7.5 z" />
      <path
         id="path16"
         d="M 115.154,391.141 H 7.5 c -4.142,0 -7.5,3.357 -7.5,7.5 0,4.143 3.358,7.5 7.5,7.5 h 107.654 c 4.142,0 7.5,-3.357 7.5,-7.5 0,-4.143 -3.358,-7.5 -7.5,-7.5 z" />
    </g>
    <path
       id="path20"
       fill="#29cef6"
       d="M 398.969,63.84 H 113.341 L 131.07,10.559 C 133.172,4.265 139.23,0 146.06,0 h 220.459 c 6.83,0 12.888,4.265 14.989,10.559 z" />
    <path
       id="path22"
       fill="#22b5ed"
       d="M 381.218,10.559 C 379.117,4.265 373.059,0 366.229,0 h -30.905 c 6.83,0 12.888,4.265 14.989,10.559 l 17.462,53.281 h 30.905 z" />
    <path
       id="path24"
       fill="#a9dbf5"
       d="M 377.561,173.07 H 134.439 c -12.517,0 -22.664,-10.147 -22.664,-22.664 V 72.113 c 0,-12.517 10.147,-22.664 22.664,-22.664 h 243.123 c 12.517,0 22.664,10.147 22.664,22.664 v 78.294 c -10e-4,12.516 -10.148,22.663 -22.665,22.663 z" />
    <path
       id="path26"
       fill="#88c3e0"
       d="m 377.561,49.449 h -30.905 c 12.517,0 22.664,10.147 22.664,22.664 v 78.294 c 0,12.517 -10.147,22.664 -22.664,22.664 h 30.905 c 12.517,0 22.664,-10.147 22.664,-22.664 V 72.113 c 0,-12.517 -10.147,-22.664 -22.664,-22.664 z" />
    <path
       id="path28"
       fill="#43809f"
       d="M 142.68,138.044 V 84.475 c 0,-2.276 1.845,-4.121 4.121,-4.121 h 218.398 c 2.276,0 4.121,1.845 4.121,4.121 v 53.569 c 0,2.276 -1.845,4.121 -4.121,4.121 H 146.801 c -2.276,0 -4.121,-1.845 -4.121,-4.121 z" />
    <path
       id="path30"
       fill="#f78e36"
       d="m 190.061,113.32 c -8.534,0 -15.453,-6.918 -15.453,-15.453 V 80.354 h 30.905 v 17.513 c 0.001,8.535 -6.917,15.453 -15.452,15.453 z" />
    <path
       id="path32"
       fill="#f78e36"
       d="m 241.577,113.32 c -8.534,0 -15.453,-6.918 -15.453,-15.453 V 80.354 h 30.905 v 17.513 c 10e-4,8.535 -6.917,15.453 -15.452,15.453 z" />
    <path
       id="path34"
       fill="#ffc328"
       d="M 369.32,512 H 142.68 c -19.344,0 -35.026,-15.682 -35.026,-35.026 V 315.235 c 0,-19.344 15.682,-35.026 35.026,-35.026 h 226.64 c 19.344,0 35.026,15.682 35.026,35.026 v 161.738 c 0,19.345 -15.682,35.027 -35.026,35.027 z" />
    <path
       id="path36"
       fill="#ffb200"
       d="m 369.32,280.209 h -30.905 c 19.344,0 35.026,15.682 35.026,35.026 v 161.738 c 0,19.345 -15.682,35.026 -35.026,35.026 h 30.905 c 19.344,0 35.026,-15.682 35.026,-35.026 V 315.235 c 0,-19.344 -15.682,-35.026 -35.026,-35.026 z" />
    <path
       id="path38"
       fill="#2b6181"
       d="m 295.085,353.754 c 0.879,15.899 -7.744,29.879 -20.716,36.781 -1.809,0.962 -2.917,2.866 -2.917,4.914 v 56.371 c 0,8.528 -6.918,15.442 -15.453,15.442 -8.534,0 -15.453,-6.914 -15.453,-15.442 v -56.31 c 0,-2.065 -1.097,-4.006 -2.921,-4.977 -12.362,-6.579 -20.773,-19.587 -20.773,-34.557 0,-21.996 18.158,-39.747 40.315,-39.103 20.159,0.586 36.806,16.76 37.918,36.881 z" />
  </g>
</svg>
