<?xml version="1.0" encoding="UTF-8"?>
<svg width="40" height="38.334" enable-background="new 0 0 24 24" version="1.1" viewBox="0 0 1.875 1.7969" xmlns="http://www.w3.org/2000/svg" xmlns:cc="http://creativecommons.org/ns#" xmlns:dc="http://purl.org/dc/elements/1.1/" xmlns:rdf="http://www.w3.org/1999/02/22-rdf-syntax-ns#">
 <metadata>
  <rdf:RDF>
   <cc:Work rdf:about="">
    <dc:format>image/svg+xml</dc:format>
    <dc:type rdf:resource="http://purl.org/dc/dcmitype/StillImage"/>
    <dc:title/>
   </cc:Work>
  </rdf:RDF>
 </metadata>
 <path d="m0.9375 0c-0.51797 0-0.9375 0.4125-0.9375 0.92125 0 0.40711 0.26859 0.75234 0.64102 0.87406 0.046875 0.00867 0.064062-0.019844 0.064062-0.044297 0-0.021875-7.8126e-4 -0.079844-0.001172-0.15664-0.26078 0.055547-0.31578-0.12359-0.31578-0.12359-0.042656-0.10633-0.1043-0.13477-0.1043-0.13477-0.084922-0.05711 0.006562-0.055938 0.006562-0.055938 0.094141 0.00641 0.14359 0.094922 0.14359 0.094922 0.083594 0.14086 0.21945 0.10016 0.27305 0.076641 0.008438-0.05961 0.032578-0.10016 0.059375-0.1232-0.2082-0.023047-0.42703-0.10227-0.42703-0.45523 0-0.10055 0.036328-0.18273 0.096484-0.24719-0.010547-0.023282-0.042188-0.11695 0.008203-0.24383 0 0 0.078516-0.024688 0.25781 0.094453 0.075-0.020469 0.15469-0.030625 0.23437-0.031094 0.079687 4.6872e-4 0.15937 0.010625 0.23437 0.031094 0.17813-0.11914 0.25664-0.094453 0.25664-0.094453 0.050391 0.12687 0.01875 0.22055 0.00938 0.24383 0.059766 0.064453 0.096094 0.14664 0.096094 0.24719-5.2e-6 0.35391-0.21915 0.4318-0.42774 0.45445 0.032813 0.027656 0.063282 0.084141 0.063282 0.17047 0 0.12328-0.00117 0.22234-0.00117 0.25227 0 0.024141 0.016406 0.052969 0.064453 0.04375 0.37508-0.12094 0.64344-0.46641 0.64344-0.87289 0-0.50875-0.41977-0.92125-0.9375-0.92125z" fill="#212121" stroke-width=".078125"/>
</svg>
